<svg width="38" height="48" viewBox="0 0 38 48" fill="none" xmlns="http://www.w3.org/2000/svg">
<path d="M19 6C11.5562 6 5.5 12.0562 5.5 19.5C5.5 26.9438 11.5562 33 19 33C26.4438 33 32.5 26.9438 32.5 19.5C32.5 12.0562 26.4438 6 19 6ZM19 31.5C16.6266 31.5 14.3065 30.7962 12.3332 29.4776C10.3598 28.1591 8.8217 26.2849 7.91345 24.0922C7.00519 21.8995 6.76755 19.4867 7.23058 17.1589C7.6936 14.8311 8.83649 12.6929 10.5147 11.0147C12.1929 9.33649 14.3311 8.1936 16.6589 7.73058C18.9867 7.26755 21.3995 7.50519 23.5922 8.41345C25.7849 9.3217 27.6591 10.8598 28.9776 12.8332C30.2962 14.8065 31 17.1266 31 19.5C30.9964 22.6815 29.731 25.7317 27.4813 27.9813C25.2317 30.231 22.1815 31.4964 19 31.5Z" fill="#57A4FF"/>
<path d="M33 20.0833C33 27.8153 26.732 33.5 19 33.5C11.268 33.5 5 26.6487 5 18.9167C5 11.1847 11.268 5.5 19 5.5C26.732 5.5 33 12.3513 33 20.0833Z" fill="white"/>
<path d="M19 0.75C8.66125 0.75 0.25 9.16125 0.25 19.5C0.25 23.8003 3.33531 29.7562 9.41875 37.2028C12.2543 40.6503 15.281 43.936 18.4844 47.0447C18.6237 47.1766 18.8082 47.25 19 47.25C19.1918 47.25 19.3763 47.1766 19.5156 47.0447C22.719 43.936 25.7457 40.6503 28.5813 37.2028C34.6647 29.7562 37.75 23.8003 37.75 19.5C37.75 9.16125 29.3387 0.75 19 0.75ZM19 45.4547C16.0769 42.585 1.75 28.0819 1.75 19.5C1.75 9.98812 9.48812 2.25 19 2.25C28.5119 2.25 36.25 9.98812 36.25 19.5C36.25 28.0781 21.9231 42.585 19 45.4547Z" fill="#57A4FF"/>
</svg>
