<svg width="199" height="109" viewBox="0 0 199 109" fill="none" xmlns="http://www.w3.org/2000/svg">
<path fill-rule="evenodd" clip-rule="evenodd" d="M76.64 9.10004L84.89 12.6L84.88 21.49L76.64 17.96V9.10004Z" fill="#FEFEFE"/>
<path d="M76.61 9.00004L84.86 12.5L84.88 12.51V12.53L84.87 21.42V21.48L84.82 21.46L76.58 17.93L76.56 17.92V17.9L76.55 9.04004V8.98004L76.61 9.00004ZM84.81 12.56L76.63 9.10004V17.87L84.8 21.36L84.81 12.56Z" fill="#EBECEC"/>
<path fill-rule="evenodd" clip-rule="evenodd" d="M149.99 38.64L158.24 42.13L158.23 51.02L149.99 47.5V38.64Z" fill="#FEFEFE"/>
<path d="M149.96 38.54L158.21 42.03L158.24 42.04V42.07L158.23 50.96V51.02L158.17 51L149.93 47.47L149.91 47.46V47.43V38.58V38.52L149.96 38.54ZM158.16 42.09L149.98 38.64L149.99 47.41L158.15 50.9L158.16 42.09Z" fill="#EBECEC"/>
<path fill-rule="evenodd" clip-rule="evenodd" d="M79.3101 26.75L87.5601 30.24L87.5501 39.13L79.3101 35.61V26.75Z" fill="#FEFEFE"/>
<path d="M79.2801 26.65L87.5301 30.14L87.5601 30.15V30.18L87.5501 39.07V39.13L87.4901 39.11L79.2501 35.58L79.2301 35.57V35.54V26.69V26.63L79.2801 26.65ZM87.4801 30.2L79.3001 26.74V35.52L87.4701 39.01L87.4801 30.2Z" fill="#EBECEC"/>
<path fill-rule="evenodd" clip-rule="evenodd" d="M132 36.19L140.25 39.68L140.24 48.58L132 45.05V36.19Z" fill="#FEFEFE"/>
<path d="M131.97 36.09L140.22 39.59L140.24 39.6V39.62L140.23 48.51V48.57L140.18 48.55L131.94 45.02L131.92 45.01V44.99V36.13V36.07L131.97 36.09ZM140.17 39.65L131.99 36.19V44.96L140.16 48.45L140.17 39.65Z" fill="#EBECEC"/>
<path fill-rule="evenodd" clip-rule="evenodd" d="M156.32 57.11L164.57 60.6L164.56 69.49L156.32 65.97V57.11Z" fill="#FEFEFE"/>
<path d="M156.29 57.0101L164.54 60.5101L164.56 60.5201V60.5401L164.55 69.4301V69.4901L164.5 69.4701L156.26 65.9401L156.23 65.9301V65.9001V57.0501V56.9901L156.29 57.0101ZM164.49 60.5701L156.31 57.1101V65.8801L164.48 69.3701L164.49 60.5701Z" fill="#EBECEC"/>
<path fill-rule="evenodd" clip-rule="evenodd" d="M167.67 44L175.92 47.49L175.91 56.38L167.67 52.85V44Z" fill="#FEFEFE"/>
<path d="M167.64 43.9L175.89 47.39L175.92 47.4V47.43L175.91 56.32V56.38L175.85 56.35L167.61 52.83L167.59 52.82V52.79V43.93V43.88L167.64 43.9ZM175.84 47.45L167.66 43.99L167.67 52.77L175.83 56.26L175.84 47.45Z" fill="#EBECEC"/>
<path fill-rule="evenodd" clip-rule="evenodd" d="M150.03 38.7L158.29 42.2L158.28 51.09L150.04 47.56L150.03 38.7Z" fill="#FEFEFE"/>
<path d="M150 38.61L158.26 42.1L158.28 42.11V42.13L158.27 51.02V51.08L158.22 51.06L149.98 47.53L149.95 47.52V47.5V38.64V38.58L150 38.61ZM158.2 42.16L150.03 38.7V47.47L158.19 50.97L158.2 42.16Z" fill="#EBECEC"/>
<path fill-rule="evenodd" clip-rule="evenodd" d="M196.64 54.48L166.1 65.87V71.35L196.63 60.02L196.64 54.48Z" fill="#D9DADA"/>
<path fill-rule="evenodd" clip-rule="evenodd" d="M196.88 61.3201L165.85 72.9301V108.32L197.51 96.6301L196.88 61.3201Z" fill="#F0F4F7"/>
<path fill-rule="evenodd" clip-rule="evenodd" d="M195.04 71.8701L168.6 81.6101L168.61 85.5301L195.08 75.8001L195.04 71.8701Z" fill="white"/>
<path fill-rule="evenodd" clip-rule="evenodd" d="M195.11 77.86L168.66 87.6L168.67 91.51L195.14 81.78L195.11 77.86Z" fill="white"/>
<path fill-rule="evenodd" clip-rule="evenodd" d="M194.92 83.39L168.47 93.13L168.48 97.05L194.95 87.32L194.92 83.39Z" fill="white"/>
<path fill-rule="evenodd" clip-rule="evenodd" d="M195.11 89.1301L168.66 98.8701L168.67 102.79L195.14 93.0601L195.11 89.1301Z" fill="white"/>
<path fill-rule="evenodd" clip-rule="evenodd" d="M187.53 66.1201L168.57 73.1301V74.6101L187.52 67.6101L187.53 66.1201Z" fill="#FEF3DD"/>
<path fill-rule="evenodd" clip-rule="evenodd" d="M187.58 69.03L168.62 76.08L168.59 77.73L187.56 70.61L187.58 69.03Z" fill="#FEF3DD"/>
<path fill-rule="evenodd" clip-rule="evenodd" d="M61.4602 64.15C61.1402 68.12 66.3002 73.92 68.2902 65.05C68.4302 64.44 68.5102 64.12 68.4602 63.99C68.4502 63.94 67.4702 64.61 65.8502 64.85C64.8802 64.99 62.5102 64.96 61.5202 64.08L61.4602 64.15Z" fill="#CBDCE6"/>
<path fill-rule="evenodd" clip-rule="evenodd" d="M61.4501 63.78C61.8801 63.1 64.6401 63.17 65.3801 63.2C66.8601 63.27 66.8201 63.4 67.8701 63.57C70.2101 63.93 66.3701 64.88 65.3601 64.91C63.8501 64.94 62.2001 64.77 61.6101 64.16C61.4901 64.04 61.3501 63.95 61.4501 63.78Z" fill="#243018"/>
<path fill-rule="evenodd" clip-rule="evenodd" d="M64.7101 61.56C66.2801 62.05 68.8801 60.71 66.8301 62.77C66.8301 62.77 67.8001 62.77 68.6501 63.03C69.9101 63.42 66.3801 62.79 68.8301 64.44C70.3001 65.42 68.1101 64.92 67.0801 64.25C66.7401 64.03 67.0101 67.22 66.1401 64.13C65.9701 64.17 65.9101 65.32 65.6301 65.23C65.3001 65.11 64.6701 63.56 64.6101 63.61C64.5401 63.67 64.4701 64.08 64.3501 64.12C64.0101 64.22 63.8501 63.36 63.8001 62.94C63.6501 61.53 64.3501 61.74 64.7101 61.56Z" fill="#237C8C"/>
<path fill-rule="evenodd" clip-rule="evenodd" d="M60.9301 49.38C61.1401 49.76 62.1101 51.71 62.2501 51.29C63.2001 48.36 62.6001 53.28 63.7201 51.57C64.1601 50.89 64.0801 54.73 64.1601 54.57C65.3201 52.19 64.4901 57.18 64.9401 57.18C65.0901 57.22 65.6101 55.7 65.7201 55.96C65.7201 56.76 66.1001 61.66 65.3001 61.66C63.5901 61.66 64.4501 61.24 63.2701 60.58C62.9201 60.38 62.7001 59.14 61.9201 58.54C61.9101 58.53 60.1601 56.82 62.3201 57.5C63.5701 57.88 58.2801 54.91 61.0901 54.91C62.1301 54.91 60.2301 54.36 60.2301 52.36C61.2701 52.27 61.3001 54.05 61.0601 51.79C61.0201 51.37 60.9901 49.49 60.9301 49.38Z" fill="#E8B234"/>
<path fill-rule="evenodd" clip-rule="evenodd" d="M65.6101 61.48C66.3801 60.73 66.7901 59.85 67.5701 58.89C68.6801 57.53 67.3801 61.24 68.6701 59.14C68.7701 58.98 69.7501 57.76 69.7501 58.21C69.7501 60.07 69.6601 58.55 71.1201 58.26C72.0301 58.07 71.5001 58.29 71.4001 59.37C71.3701 59.66 71.5701 59.38 72.4601 59.48C72.8901 59.53 74.1101 59.66 73.3901 60.09C72.1401 60.84 71.8001 60.51 71.6001 60.63C71.3901 60.74 72.5401 61.6 72.2501 61.64C70.9501 61.77 70.0301 61.27 70.9301 61.91C71.0501 62 71.5901 62.57 71.3601 62.53C70.3001 62.35 70.5501 62.59 69.2801 62.15C67.8701 61.65 69.8301 63.5 69.0501 63.14C69.0101 63.13 66.8301 62.64 66.8301 62.77C67.4001 62.09 67.7901 61.61 67.2301 61.62C67.0201 61.63 65.8001 61.72 65.3901 61.67C65.2901 61.66 65.2101 61.59 65.6101 61.48Z" fill="#F6C039"/>
<path fill-rule="evenodd" clip-rule="evenodd" d="M73.2501 54.31C73.0901 54.34 71.5001 54.26 70.0301 54.73C69.7901 54.8 69.4101 54.98 69.3801 54.88C69.3201 54.66 69.8101 53.7 69.8701 53.3C69.8801 53.24 69.7301 53.26 69.6601 53.31C68.0701 53.9 67.6801 55.92 67.6801 55.86C67.6801 55.71 67.2301 54.26 67.1101 54.46C66.7401 55.11 65.8001 56.62 65.8001 57.44C65.8001 57.86 65.8101 58.67 65.8101 59.57C65.8101 59.69 65.7901 60.02 65.7801 60.14C65.7701 60.38 65.7601 60.55 65.7301 60.75C65.6801 61.01 65.6701 61.22 65.5201 61.39C64.9801 62 65.4001 61.75 65.9701 61.09C66.5801 60.4 67.3501 59.27 67.3601 59.25C68.1501 57.98 68.0301 58.98 68.0301 59.52C68.0301 59.68 68.0701 59.8 68.1201 59.8C68.1701 59.81 68.2901 59.74 68.4601 59.46C68.6401 59.17 69.3801 58.2 69.6501 58.13C69.8101 58.08 69.7201 58.25 69.7501 58.82C69.7601 59.18 69.7501 59.23 69.8701 59.06C70.0201 58.83 70.4201 58.41 71.2701 58.3C71.5601 58.26 71.6101 58.06 71.5301 58.93C71.5101 59.18 71.8001 58.83 72.4701 58.86C73.2701 58.9 73.0501 58.02 71.3301 57.73C69.9301 57.5 72.3501 57.21 72.4101 57.19C72.6001 57.14 74.0701 56.51 72.8201 56.27C72.3501 56.18 70.9301 55.8 72.0301 55.47C73.0601 55.16 73.8701 54.2 73.2501 54.31Z" fill="#163854"/>
<path fill-rule="evenodd" clip-rule="evenodd" d="M62.1301 62.91C62.1701 62.99 62.1701 62.96 62.1301 63.02C61.8701 63.45 59.8701 63.85 62.3501 63.76C62.9101 63.74 63.6601 63.45 63.8801 63.42C63.7401 62.57 63.7801 62.26 63.9401 61.98C64.0201 61.83 64.1901 61.8 64.7101 61.64C64.7101 61.61 63.6001 59.58 63.5801 59.82C63.5501 60.19 63.5301 60.48 63.4501 60.55C63.0301 60.96 62.0101 57.32 62.1201 59.8C62.1401 60.26 60.4301 58.39 59.8101 58.61C59.7601 58.66 59.9101 58.77 59.9701 58.83C61.4601 60.43 61.2501 59.58 59.1101 59.76C58.2801 59.83 57.0001 60.58 58.5001 60.56C60.4701 60.53 59.0601 61.25 58.6701 61.58C58.5601 61.68 58.6801 61.73 58.8001 61.74C59.2001 61.77 60.4901 61.98 60.5301 62C60.6001 62.04 60.5101 62.11 60.4601 62.14C57.4201 63.64 61.9901 62.88 62.0001 62.87C62.0701 62.85 62.1101 62.86 62.1301 62.91Z" fill="#22788F"/>
<path fill-rule="evenodd" clip-rule="evenodd" d="M156.43 86.4801C156.26 88.6801 159.11 91.8901 160.22 86.9801C160.29 86.6401 160.34 86.4701 160.31 86.3901C160.3 86.3701 159.76 86.7301 158.86 86.8701C158.33 86.9501 157.01 86.9301 156.46 86.4401L156.43 86.4801Z" fill="#CBDCE6"/>
<path fill-rule="evenodd" clip-rule="evenodd" d="M156.43 86.28C156.66 85.9 158.19 85.94 158.6 85.96C159.43 85.99 159.4 86.06 159.98 86.16C161.28 86.36 159.15 86.89 158.59 86.9C157.76 86.92 156.84 86.82 156.51 86.49C156.45 86.42 156.37 86.37 156.43 86.28Z" fill="#243018"/>
<path fill-rule="evenodd" clip-rule="evenodd" d="M158.23 85.05C159.1 85.32 160.54 84.57 159.41 85.71C159.41 85.72 159.95 85.72 160.42 85.86C161.11 86.08 159.16 85.73 160.52 86.64C161.33 87.19 160.12 86.91 159.55 86.54C159.36 86.41 159.51 88.18 159.03 86.47C158.93 86.49 158.9 87.13 158.75 87.08C158.56 87.01 158.21 86.15 158.18 86.18C158.14 86.21 158.1 86.44 158.03 86.46C157.85 86.52 157.76 86.04 157.73 85.81C157.65 85.03 158.03 85.15 158.23 85.05Z" fill="#237C8C"/>
<path fill-rule="evenodd" clip-rule="evenodd" d="M156.14 78.3C156.25 78.51 156.79 79.59 156.87 79.35C157.4 77.73 157.06 80.46 157.68 79.51C157.93 79.13 157.88 81.26 157.93 81.17C158.57 79.85 158.11 82.62 158.36 82.62C158.44 82.64 158.73 81.8 158.8 81.94C158.8 82.39 159.01 85.1 158.56 85.1C157.61 85.1 158.09 84.87 157.43 84.5C157.24 84.39 157.12 83.7 156.68 83.37C156.68 83.37 155.71 82.42 156.91 82.79C157.6 83.01 154.67 81.36 156.23 81.36C156.8 81.36 155.75 81.06 155.75 79.95C156.33 79.9 156.34 80.88 156.21 79.63C156.19 79.4 156.17 78.35 156.14 78.3Z" fill="#E8B234"/>
<path fill-rule="evenodd" clip-rule="evenodd" d="M158.73 85.0001C159.16 84.5901 159.39 84.1001 159.82 83.5701C160.43 82.8101 159.71 84.8701 160.43 83.7001C160.48 83.6201 161.03 82.9401 161.03 83.1901C161.03 84.2201 160.97 83.3801 161.79 83.2101C162.29 83.1101 162 83.2401 161.94 83.8301C161.93 83.9901 162.04 83.8401 162.53 83.8901C162.77 83.9201 163.44 83.9901 163.05 84.2301C162.35 84.6501 162.16 84.4701 162.05 84.5301C161.93 84.5901 162.57 85.0701 162.41 85.0901C161.69 85.1601 161.18 84.8801 161.68 85.2401C161.75 85.2901 162.05 85.6001 161.92 85.5801C161.33 85.4801 161.47 85.6201 160.77 85.3701C159.98 85.1001 161.07 86.1201 160.64 85.9201C160.62 85.9201 159.41 85.6401 159.41 85.7101C159.72 85.3401 159.94 85.0701 159.63 85.0801C159.51 85.0801 158.84 85.1301 158.61 85.1101C158.55 85.1001 158.51 85.0601 158.73 85.0001Z" fill="#F6C039"/>
<path fill-rule="evenodd" clip-rule="evenodd" d="M162.97 81.03C162.88 81.05 161.99 81 161.18 81.26C161.05 81.3 160.84 81.4 160.82 81.34C160.79 81.22 161.06 80.69 161.09 80.47C161.1 80.43 161.01 80.44 160.97 80.47C160.1 80.8 159.88 81.92 159.88 81.89C159.88 81.81 159.63 81 159.57 81.11C159.36 81.47 158.84 82.31 158.84 82.76C158.84 83 158.84 83.44 158.84 83.94C158.84 84.01 158.83 84.19 158.83 84.26C158.82 84.39 158.81 84.48 158.8 84.6C158.77 84.74 158.77 84.86 158.68 84.95C158.38 85.29 158.62 85.15 158.93 84.79C159.27 84.4 159.7 83.78 159.7 83.77C160.14 83.06 160.07 83.61 160.07 83.91C160.08 84.01 160.09 84.07 160.12 84.07C160.15 84.08 160.22 84.04 160.31 83.88C160.41 83.72 160.82 83.19 160.97 83.14C161.06 83.12 161.01 83.21 161.02 83.53C161.03 83.73 161.03 83.75 161.09 83.66C161.18 83.53 161.4 83.3 161.87 83.24C162.03 83.22 162.05 83.11 162.01 83.59C162 83.73 162.16 83.53 162.54 83.55C162.98 83.57 162.86 83.08 161.9 82.92C161.12 82.79 162.47 82.63 162.5 82.62C162.61 82.59 163.42 82.24 162.73 82.11C162.47 82.07 161.68 81.85 162.29 81.67C162.86 81.5 163.31 80.96 162.97 81.03Z" fill="#163854"/>
<path fill-rule="evenodd" clip-rule="evenodd" d="M156.81 85.79C156.83 85.84 156.82 85.82 156.8 85.85C156.66 86.09 155.55 86.31 156.92 86.26C157.24 86.25 157.65 86.09 157.77 86.07C157.69 85.61 157.72 85.43 157.8 85.28C157.85 85.2 157.94 85.18 158.23 85.09C158.23 85.07 157.62 83.95 157.61 84.08C157.59 84.28 157.58 84.45 157.54 84.49C157.3 84.72 156.74 82.69 156.8 84.07C156.81 84.32 155.86 83.29 155.52 83.41C155.49 83.44 155.57 83.5 155.61 83.53C156.43 84.42 156.31 83.95 155.13 84.05C154.67 84.09 153.96 84.5 154.79 84.49C155.88 84.47 155.1 84.87 154.89 85.06C154.82 85.11 154.89 85.14 154.96 85.14C155.18 85.16 155.9 85.28 155.92 85.29C155.95 85.31 155.91 85.35 155.88 85.37C154.19 86.2 156.72 85.78 156.73 85.77C156.77 85.76 156.79 85.77 156.81 85.79Z" fill="#22788F"/>
<path fill-rule="evenodd" clip-rule="evenodd" d="M80.4901 11.86C84.1601 13.01 84.8201 16.32 83.8801 17.72C82.7901 19.36 78.8501 18.53 77.6401 16.22C76.2001 13.46 78.0701 11.1 80.4901 11.86Z" fill="#EF7E2E"/>
<path d="M158.43 65.86C158.9 65.86 159.28 65.081 159.28 64.12C159.28 63.159 158.9 62.38 158.43 62.38C157.961 62.38 157.58 63.159 157.58 64.12C157.58 65.081 157.961 65.86 158.43 65.86Z" fill="#FB5F77"/>
<path fill-rule="evenodd" clip-rule="evenodd" d="M96.6401 17.63L129.05 31.65V37.47L96.6501 23.51L96.6401 17.63Z" fill="#D9DADA"/>
<path fill-rule="evenodd" clip-rule="evenodd" d="M96.3801 24.87L129.32 39.16V76.73L95.7201 62.31L96.3801 24.87Z" fill="#F0F4F7"/>
<path fill-rule="evenodd" clip-rule="evenodd" d="M98.33 36.19L126.41 48.2L126.39 52.36L98.3 40.35L98.33 36.19Z" fill="white"/>
<path fill-rule="evenodd" clip-rule="evenodd" d="M98.2701 42.54L126.34 54.55L126.33 58.71L98.2301 46.7L98.2701 42.54Z" fill="white"/>
<path fill-rule="evenodd" clip-rule="evenodd" d="M98.4601 48.42L126.54 60.44L126.53 64.59L98.4301 52.59L98.4601 48.42Z" fill="white"/>
<path fill-rule="evenodd" clip-rule="evenodd" d="M98.2701 54.51L126.34 66.53L126.33 70.68L98.2301 58.67L98.2701 54.51Z" fill="white"/>
<path fill-rule="evenodd" clip-rule="evenodd" d="M106.31 30.56L126.43 39.2V40.78L106.32 32.14L106.31 30.56Z" fill="#FEF3DD"/>
<path fill-rule="evenodd" clip-rule="evenodd" d="M106.26 33.65L126.38 42.33L126.42 44.08L106.28 35.32L106.26 33.65Z" fill="#FEF3DD"/>
<path fill-rule="evenodd" clip-rule="evenodd" d="M93.68 42.08C93.17 42.62 92 44.57 90.81 42.43C90.71 42.24 90.23 41.51 90.06 40.58C89.94 39.89 90.21 39.02 90.46 38.33C90.85 37.21 91.83 36.77 92.99 36.77C94.6 36.86 95.33 37.44 95.53 38.27C95.74 39.14 95.33 40.31 93.68 42.08Z" fill="#2B2A29"/>
<path fill-rule="evenodd" clip-rule="evenodd" d="M95.68 38.63C96.24 38.99 96.26 39.48 96.32 39.9C96.42 40.63 96.3 41.37 96.26 41.8C96.17 42.69 96.44 43.27 96.21 43.62C95.73 44.36 94.54 43.83 94.55 44.12C94.56 44.63 94.6 45.67 94.55 45.67C93.73 45.81 91.34 45.58 91.46 44.59C91.57 43.73 91.64 43.36 91.68 43.33C91.68 43.33 91.74 43.53 92.45 43.34C92.89 43.21 93.51 42.37 94.11 41.59C94.78 40.71 95.37 39.77 95.48 39.26C95.52 39.06 95.53 38.54 95.68 38.63Z" fill="#E8AD83"/>
<path fill-rule="evenodd" clip-rule="evenodd" d="M103.08 43.03C103.21 44.33 102.19 46.44 101.96 49.37C101.89 50.25 101.32 51.56 101.03 52.82C101.03 52.82 101.55 52.89 101.82 53.11C103.11 54.22 102.83 56.24 102.85 56.21C103.02 55.96 103.37 54.14 103.45 52.54C103.55 50.74 103.43 50.48 103.53 49.56C103.59 48.99 103.64 48.02 103.83 48.02C104.39 48.02 104.5 47.51 104.57 46.9C104.62 46.42 104.7 45.89 104.51 45.46C104.41 45.23 103.88 44.99 103.58 44.96C103.52 44.96 104.15 42.69 103.24 42.77C103.16 42.78 103.08 42.96 103.08 43.03Z" fill="#E8AD83"/>
<path fill-rule="evenodd" clip-rule="evenodd" d="M98.99 50.17C99.9 51.45 99.67 52.66 100.57 53.1C100.82 53.23 101.05 52.82 101.08 52.83C101.27 52.84 102.08 52.98 102.56 54.16C102.63 54.33 102.7 54.54 102.74 54.72C102.87 55.22 102.9 55.72 102.85 56.21C102.83 56.45 102.63 56.81 102.45 56.99C101.91 57.52 101.46 57.7 101.07 57.72C100.11 57.77 99.46 56.58 98.36 55.32C97.36 54.18 93.7 49.21 96.2 48.35C98.05 47.7 97.87 48.59 98.99 50.17Z" fill="#A9C4F1"/>
<path fill-rule="evenodd" clip-rule="evenodd" d="M90.51 44.89C90.51 45.95 91.56 46.51 92.54 46.94C93.4 47.32 96.72 47.29 96.03 46.85C94.68 45.99 94.78 45.71 94.55 45.67C94.33 45.64 94.11 45.75 93.4 45.68C92.78 45.61 91.61 45.42 91.46 44.74C91.44 44.65 91.34 44.66 91.29 44.64C91.18 44.61 91.06 44.65 90.9 44.66C90.69 44.67 90.51 44.64 90.51 44.89Z" fill="#A9C4F1"/>
<path fill-rule="evenodd" clip-rule="evenodd" d="M87.46 46.96C87.33 48.24 88.21 50.79 88.63 53.26C88.72 53.79 88.65 54.32 88.67 54.79C88.78 57.08 87.7 59.4 87.54 61.75C87.32 65.1 88.65 65.01 90.99 66.29C91.06 66.34 92.71 67.06 92.92 67.12C95.03 67.75 96.31 67.55 96.91 65.77C97.23 64.83 97.57 64.49 97.29 61.92C97.11 60.31 96.87 57.89 97.22 56.47C97.56 55.09 97.87 54.71 97.86 54.7C97.53 53.89 97.13 53.53 96.32 52.26C96.01 51.78 95.79 51.33 95.69 51.09C95.38 50.35 95.36 50.15 95.34 49.87C95.33 49.7 95.32 49.47 95.45 49.01C95.46 48.98 95.63 48.57 96.2 48.35C96.33 48.29 96.49 48.24 96.68 48.2C96.73 48.19 96.79 48.18 96.85 48.17C97.01 48.13 97.58 48.21 97.57 48.2C97.54 48.18 97.31 48.07 97.06 47.78C96.72 47.38 96.21 46.93 96.13 46.98C95.83 47.13 94.47 47.25 93.59 47.15C92.82 47.06 91.99 46.76 91.39 46.33C91.15 46.16 90.86 45.94 90.75 45.71C90.37 44.93 90.54 44.71 90.67 44.67C90.72 44.66 90.34 44.67 89.78 44.71C88.67 44.82 87.57 45.94 87.46 46.96Z" fill="#769DE0"/>
<path fill-rule="evenodd" clip-rule="evenodd" d="M91.02 66.29C91.11 68 91.73 69.71 92.1 71.8C92.22 72.5 92.51 73.21 92.54 73.79C92.69 76.75 91.27 78.66 91.26 82.18C91.26 84.13 91.12 85.61 91.63 88.98C91.67 89.26 91.71 90.64 91.89 91.41C91.99 91.81 94.24 91.38 94.99 90.67C95.22 90.46 95.07 84.66 95.51 82.38C95.82 80.73 95.93 80.04 95.99 79.07C96.08 77.48 96.69 75.92 96.86 74C96.98 72.66 97.17 71.24 97.23 70.38C97.37 68.14 97.19 68.1 97.29 66.45C97.31 66.05 97.42 63.94 97.41 63.99C97.35 64.4 96.66 66.42 96.44 66.73C95.72 67.77 93.98 67.57 92.95 67.23L91.02 66.29Z" fill="#D86260"/>
<path fill-rule="evenodd" clip-rule="evenodd" d="M87.64 63.64C87.74 65.35 87.87 65.88 88.23 67.97C88.35 68.66 88.64 69.37 88.67 69.96C88.82 72.92 87.14 75.46 87.13 78.97C87.13 80.93 87.25 81.77 87.76 85.14C87.8 85.42 87.59 86.75 87.94 87.45C88.23 88.05 90.42 87.59 91.12 86.83C91.25 86.7 91.14 84.69 91.23 82.58C91.28 81.15 91.49 79.66 91.68 78.75C92.01 77.11 92.25 76.2 92.31 75.22C92.4 73.63 92.32 71.84 91.69 70.02C91.27 68.79 90.93 67.15 90.99 66.29C90.07 65.82 90.21 65.85 89.22 65.4C87.72 64.73 87.64 63.64 87.64 63.64Z" fill="#E27C78"/>
<path fill-rule="evenodd" clip-rule="evenodd" d="M91.81 92.7C91.85 93.12 91.96 93.69 92.25 93.9C92.57 94.12 93.1 94.06 93.89 93.92C95.29 93.67 94.67 92.85 96.31 92.57C97.43 92.37 98.48 91.5 98.84 90.63C99.13 89.91 98.94 89.11 97.98 89.39C97.08 89.65 96.75 89.69 96.05 89.77C95.79 89.8 95.51 89.75 95.1 89.83C95.1 89.83 95.09 90.23 95.06 90.42C95 90.74 94.81 90.82 93.96 91.21C93.82 91.27 93.51 91.37 93.37 91.41C92.95 91.54 92.67 91.53 92.22 91.56C92.12 91.56 92.02 91.54 91.96 91.49C91.9 91.44 91.85 91.24 91.85 91.24C91.85 91.31 91.8 92.66 91.81 92.7Z" fill="#2B2A29"/>
<path fill-rule="evenodd" clip-rule="evenodd" d="M87.89 87.34C87.89 87.34 87.93 89.23 87.91 89.7C87.89 90.51 88.75 91.15 89.76 90.81C90.47 90.58 91.52 90.03 91.68 89.59C91.74 89.42 91.69 89.49 91.65 89.16C91.54 88.33 91.35 87 91.33 86.54C91.32 86.39 91.26 86.34 91.18 86.34C91.18 86.51 91.17 86.75 91.08 86.88C90.85 87.21 90.35 87.35 89.98 87.49C89.01 87.86 87.95 87.72 87.89 87.34Z" fill="#2B2A29" stroke="#2B2A29" stroke-width="0.0762"/>
<path fill-rule="evenodd" clip-rule="evenodd" d="M93.76 88.41C102.06 88.41 104.43 88.43 104.43 90.96C104.43 93.48 101.35 94.04 93.06 94.04C84.77 94.04 78.91 93.53 78.91 91.01C78.91 88.98 83.34 88.94 89.33 88.34C90.81 88.19 92.12 88.41 93.76 88.41Z" fill="#EBECEC"/>
<path fill-rule="evenodd" clip-rule="evenodd" d="M93.58 42.23C93.08 42.81 91.97 44.55 90.78 42.41C90.68 42.22 90.2 41.49 90.03 40.56C89.91 39.87 90.18 39 90.43 38.31C90.82 37.19 91.81 36.75 92.96 36.75C94.57 36.84 95.3 37.42 95.5 38.25C95.71 39.12 95.14 40.38 93.58 42.23Z" fill="#2B2A29"/>
<path fill-rule="evenodd" clip-rule="evenodd" d="M95.62 38.62C96.18 38.98 96.23 39.46 96.29 39.88C96.39 40.61 96.27 41.36 96.23 41.78C96.14 42.67 96.41 43.25 96.19 43.6C95.7 44.34 94.51 43.81 94.52 44.1C94.53 44.61 94.57 45.65 94.52 45.65C94.19 45.71 93.6 45.69 93.02 45.63C92.83 45.61 92.63 45.57 92.4 45.49C92.39 45.48 92.36 45.48 92.35 45.47C92.29 45.45 92.25 45.44 92.21 45.42C92.15 45.39 92.05 45.36 91.99 45.33C91.62 45.13 91.39 44.92 91.43 44.57C91.55 43.68 91.53 43.38 91.66 43.37C91.76 43.36 91.96 43.44 92.42 43.32C92.86 43.19 93.48 42.35 94.08 41.57C94.75 40.69 95.34 39.75 95.45 39.24C95.48 39.07 95.49 38.7 95.55 38.59C95.55 38.57 95.59 38.61 95.62 38.62Z" fill="#E8AD83"/>
<path fill-rule="evenodd" clip-rule="evenodd" d="M103.05 43.01C103.18 44.31 102.16 46.42 101.93 49.35C101.86 50.23 101.29 51.54 101 52.8C101 52.8 101.53 52.87 101.79 53.09C103.08 54.2 102.81 56.22 102.83 56.19C102.99 55.94 103.34 54.13 103.42 52.52C103.52 50.72 103.4 50.47 103.5 49.54C103.56 48.98 103.61 48 103.8 48C104.36 48 104.48 47.49 104.54 46.88C104.59 46.4 104.67 45.87 104.48 45.44C104.38 45.21 103.85 44.98 103.55 44.94C103.49 44.94 104.12 42.67 103.21 42.75C103.13 42.76 103.05 42.94 103.05 43.01Z" fill="#E8AD83"/>
<path fill-rule="evenodd" clip-rule="evenodd" d="M98.96 50.15C99.87 51.43 99.64 52.64 100.54 53.08C100.79 53.21 101.02 52.8 101.05 52.81C101.24 52.82 102.05 52.96 102.53 54.14C102.6 54.31 102.67 54.52 102.72 54.7C102.84 55.2 102.87 55.7 102.83 56.19C102.8 56.43 102.6 56.79 102.42 56.97C101.88 57.5 101.43 57.68 101.04 57.7C100.08 57.75 99.43 56.56 98.33 55.3C97.33 54.16 93.67 49.19 96.17 48.33C98.02 47.68 97.84 48.57 98.96 50.15Z" fill="#A9C4F1"/>
<path fill-rule="evenodd" clip-rule="evenodd" d="M90.48 44.87C90.48 45.93 91.53 46.49 92.51 46.92C93.37 47.3 96.69 47.27 96 46.83C94.65 45.97 94.75 45.69 94.52 45.65C94.3 45.62 94.08 45.73 93.37 45.66C93.1 45.63 92.75 45.57 92.39 45.47C92.32 45.45 92.26 45.43 92.2 45.4C91.83 45.26 91.51 45.04 91.43 44.72C91.42 44.63 91.31 44.64 91.26 44.62C91.15 44.59 91.04 44.63 90.87 44.64C90.66 44.65 90.48 44.62 90.48 44.87Z" fill="#A9C4F1"/>
<path fill-rule="evenodd" clip-rule="evenodd" d="M87.44 46.94C87.3 48.22 88.18 50.77 88.6 53.24C88.69 53.77 88.62 54.3 88.64 54.77C88.75 57.06 87.7 59.38 87.51 61.73C87.25 65.11 88.6 65.02 90.96 66.27C91.04 66.31 92.74 67.07 92.96 67.13C95.08 67.69 96.28 67.49 96.88 65.75C97.21 64.81 97.54 64.47 97.26 61.9C97.08 60.29 96.84 57.87 97.19 56.45C97.53 55.07 97.84 54.69 97.84 54.68C97.5 53.88 97.1 53.51 96.29 52.24C95.98 51.76 95.76 51.31 95.66 51.07C95.49 50.62 95.42 50.38 95.38 50.2C95.35 50.08 95.34 49.97 95.32 49.85C95.32 49.81 95.32 49.76 95.31 49.71C95.3 49.55 95.32 49.33 95.42 48.99C95.43 48.96 95.59 48.52 96.17 48.33C96.24 48.3 96.32 48.27 96.4 48.25C96.48 48.23 96.56 48.2 96.65 48.18C96.7 48.17 96.76 48.16 96.82 48.15C96.98 48.11 97.55 48.19 97.54 48.18C97.52 48.16 97.28 48.05 97.03 47.76C96.69 47.37 96.19 46.91 96.1 46.96C95.8 47.11 94.44 47.23 93.56 47.13C92.79 47.04 91.96 46.74 91.36 46.31C91.22 46.21 91.07 46.09 90.94 45.96C90.85 45.87 90.8 45.8 90.72 45.69C90.61 45.52 90.56 45.37 90.53 45.23C90.45 44.9 90.54 44.67 90.64 44.66C90.69 44.65 90.31 44.65 89.75 44.69C88.64 44.8 87.54 45.92 87.44 46.94Z" fill="#769DE0"/>
<path fill-rule="evenodd" clip-rule="evenodd" d="M90.99 66.27C91.08 67.98 91.71 69.69 92.07 71.78C92.19 72.48 92.48 73.19 92.51 73.77C92.66 76.73 91.24 78.65 91.23 82.16C91.23 84.11 91.09 85.59 91.6 88.96C91.64 89.24 91.68 90.62 91.86 91.39C91.96 91.79 94.21 91.36 94.97 90.65C95.19 90.44 95.04 84.64 95.48 82.36C95.79 80.71 95.9 80.02 95.96 79.05C96.05 77.46 96.66 75.9 96.83 73.98C96.95 72.64 97.14 71.22 97.2 70.36C97.34 68.12 97.16 68.08 97.26 66.43C97.28 66.03 97.39 63.92 97.38 63.97C97.32 64.38 96.61 66.43 96.36 66.71C95.53 67.64 94.02 67.41 92.96 67.12L90.99 66.27Z" fill="#D86260"/>
<path fill-rule="evenodd" clip-rule="evenodd" d="M87.61 63.62C87.71 65.33 87.84 65.86 88.2 67.95C88.32 68.64 88.61 69.35 88.64 69.94C88.79 72.9 87.11 75.44 87.1 78.95C87.1 80.91 87.22 81.75 87.73 85.12C87.77 85.4 87.56 86.73 87.91 87.44C88.2 88.03 90.39 87.57 91.1 86.81C91.22 86.68 91.11 84.67 91.2 82.56C91.25 81.13 91.46 79.64 91.65 78.73C91.98 77.09 92.22 76.18 92.28 75.2C92.37 73.61 92.15 71.89 91.7 70.02C91.4 68.77 91.1 67.12 91.01 66.28L90.98 66.27C90.07 65.8 90.19 65.83 89.19 65.38C87.69 64.71 87.61 63.62 87.61 63.62Z" fill="#E27C78"/>
<path fill-rule="evenodd" clip-rule="evenodd" d="M91.78 92.68C91.82 93.1 91.93 93.67 92.22 93.88C92.54 94.1 93.07 94.04 93.86 93.9C95.26 93.65 94.64 92.83 96.28 92.55C97.4 92.35 98.45 91.48 98.81 90.61C99.1 89.89 98.92 89.09 97.95 89.37C97.05 89.63 96.72 89.67 96.02 89.75C95.76 89.78 95.48 89.73 95.07 89.81C95.07 89.81 95.06 90.21 95.03 90.4C94.97 90.73 94.78 90.8 93.93 91.19C93.79 91.25 93.48 91.35 93.34 91.39C93.24 91.42 93.15 91.43 93.06 91.45C92.78 91.51 92.57 91.52 92.23 91.54C92.13 91.54 91.99 91.5 91.93 91.45C91.87 91.4 91.83 91.22 91.83 91.22C91.82 91.29 91.77 92.64 91.78 92.68Z" fill="#2B2A29"/>
<path fill-rule="evenodd" clip-rule="evenodd" d="M87.86 87.32C87.86 87.32 87.9 89.21 87.88 89.68C87.86 90.49 88.72 91.13 89.73 90.79C90.05 90.69 90.47 90.47 90.84 90.26C90.92 90.21 90.92 90.11 90.99 90.07C91.14 89.98 91.4 89.91 91.51 89.86C91.66 89.79 91.66 89.74 91.66 89.72C91.66 89.64 91.65 89.35 91.61 89C91.52 88.14 91.33 86.81 91.31 86.52C91.31 86.52 91.22 86.53 91.15 86.53C91.15 86.7 91.1 86.81 91.05 86.86C90.93 86.98 90.79 87.07 90.66 87.15C90.41 87.3 90.16 87.4 89.95 87.47C89.06 87.78 87.94 87.68 87.86 87.32Z" fill="#2B2A29"/>
<path d="M142.73 99.94C148.651 99.94 153.45 98.3461 153.45 96.38C153.45 94.4139 148.651 92.82 142.73 92.82C136.81 92.82 132.01 94.4139 132.01 96.38C132.01 98.3461 136.81 99.94 142.73 99.94Z" fill="#EFEFEF"/>
<path fill-rule="evenodd" clip-rule="evenodd" d="M141.04 53.87C140.22 53.92 138.75 55.11 138.71 55.07C136.87 53.39 136.8 47.96 138.97 46.47C139.57 46.06 143.05 45.4 144.1 45.72C146.09 46.32 145.98 47.64 146.37 49.37C146.82 51.32 145.46 52.45 146.93 54.3C148.58 56.38 145.84 61.15 145.9 58.88C145.93 57.88 145.2 57.08 144.4 56.02C144.05 55.56 143.16 54.23 143.16 54.23C143.22 54.06 143.31 53.8 143.44 53.2C143.86 51.31 145.7 48.15 144.19 47.11C144.19 47.11 144.47 47.62 144.33 48.25C143.92 50.07 142.66 53.28 141.83 51.44C141.76 51.29 141.64 50.01 140.96 50.97C140.61 51.46 142.1 52.14 141.07 53.59C141.04 53.63 141.1 53.87 141.04 53.87Z" fill="#5A303E"/>
<path fill-rule="evenodd" clip-rule="evenodd" d="M141.77 51.14C141.79 51.01 141.76 50.83 141.71 50.76C141.25 50.21 140.66 50.48 140.9 51.31C140.99 51.63 141.1 52.11 141.08 52.5C141.04 53.42 141.06 53.78 141.03 54.07C141.03 54.12 141.46 54.3 142.49 54.37C142.87 54.4 143.03 54.42 143.14 54.27C143.35 53.96 143.37 53.21 143.46 53.18C143.5 53.16 144.07 53.06 144.71 53.03C144.92 53.02 145.68 51.33 144.96 50.32C144.74 50.01 145.05 49.41 145.09 48.77C145.13 48.14 144.81 47.56 144.19 47.11C144.18 48.76 143.79 48.86 143.38 49.3C143.03 49.67 142.58 49.95 142.42 51.3C142.41 51.34 141.7 51.41 141.77 51.14Z" fill="#E8AB7E"/>
<path fill-rule="evenodd" clip-rule="evenodd" d="M137.71 56.58C138.01 55.9 138.26 55.51 138.64 55.2C138.88 55.01 139.33 54.65 139.88 54.32C140.19 54.14 140.83 53.9 141.04 53.87C141.05 53.87 140.98 53.99 141.03 54.07C141.07 54.13 141.38 54.24 141.74 54.29C142.27 54.36 142.81 54.39 142.83 54.39C142.84 54.39 143 54.42 143.07 54.34C143.12 54.28 143.15 54.25 143.15 54.23C143.15 54.23 144.22 55.56 145.23 57.12C146.16 58.56 145.87 58.51 146.03 59.46C146.05 59.57 146.34 65.05 146.34 65.05C146.27 65.81 145.7 66.9 144.99 67.02C144.48 67.11 142.63 67.59 141.77 67.72C140.13 67.98 139.7 67.88 139.48 67.66C138.88 67.04 139.2 64.18 139.2 62.96C139.2 61.71 137.54 60.72 137.66 58.21C137.69 57.44 137.34 57.45 137.71 56.58Z" fill="#BF3743"/>
<path fill-rule="evenodd" clip-rule="evenodd" d="M140.02 56.95C140.28 57.64 140.08 61.26 139.63 63.4C139.61 63.5 140.12 63.61 141.56 64.15C142.34 64.44 144.02 64.7 143.99 64.83C143.81 65.77 143.84 66.42 143.84 66.42C143.44 66.39 143.22 66.33 142.52 66.16C141.5 65.92 140.7 65.97 139.35 65.45C137.52 64.76 137.49 65.57 137.6 62.6C137.62 61.91 136.76 56.15 138.57 56.15C139.15 56.15 139.71 56.36 140.02 56.95Z" fill="#C86A6A"/>
<path fill-rule="evenodd" clip-rule="evenodd" d="M143.99 64.85C144.1 64.87 144.77 64.74 145.35 64.77C145.98 64.81 146.46 64.96 147.45 65.05C147.4 65.07 147.02 65.49 146.66 65.71C146.56 65.77 146.06 66.34 146.02 66.34C145.68 66.36 145.32 66.42 144.76 66.4C144.47 66.39 143.85 66.1 143.85 66.1C143.86 66.04 143.85 65.85 143.89 65.5C143.92 65.14 143.99 64.85 143.99 64.85Z" fill="#EFAA80"/>
<path fill-rule="evenodd" clip-rule="evenodd" d="M146.15 61.44L149.07 63.71L147.92 64.77L146.29 64.14L146.15 61.44Z" fill="#C86A6A"/>
<path fill-rule="evenodd" clip-rule="evenodd" d="M149.55 64.4C149.66 64.45 149.86 64.51 150.02 64.58L150.16 64.43C150.25 64.49 150.4 64.82 150.41 64.87C150.43 65 150.2 65.18 150.04 65.36C149.91 65.52 149.88 65.68 149.59 65.73C149.37 65.76 148.88 65.59 148.79 65.44C148.69 65.33 148.77 65.14 148.89 65.21C149.01 65.28 149.24 65.33 149.24 65.32C149.26 65.31 149.02 65.13 149.02 65.12C149 65.1 148.94 65.02 148.98 64.97C149.04 64.89 149.22 64.96 149.36 65.01C149.44 65.04 149.57 65.09 149.56 65.06C149.56 65.06 149.1 64.83 149.14 64.74C149.21 64.56 149.83 64.81 149.81 64.83C149.78 64.87 149.53 64.71 149.42 64.61C149.34 64.52 149.39 64.39 149.55 64.4Z" fill="#EFAA80"/>
<path fill-rule="evenodd" clip-rule="evenodd" d="M139.68 67.86C139.68 67.86 138.86 68.84 138.7 70.8C138.56 72.59 138.96 73.71 139.24 74.94C139.71 76.97 140.51 78.91 140.4 81.64C140.38 81.99 141.87 82.04 142.59 81.8C144.01 81.31 144.23 82.07 146.41 80.63C146.91 80.3 146.96 79.74 146.96 77.62C146.96 74.96 146.96 73.63 147.17 70.83C147.22 70.26 146.87 66.66 146.6 66.69C146.32 66.71 145.96 66.76 145.72 66.85C144.6 67.25 143.64 67.33 141.53 67.86C140.62 68.08 139.8 67.91 139.68 67.86Z" fill="#68A087"/>
<path fill-rule="evenodd" clip-rule="evenodd" d="M140.76 81.88C140.54 83.59 139.72 84.08 139.88 87.5C139.93 88.67 139.8 91.31 139.26 92.21C139.22 92.29 139.42 93.79 139.38 94.24C139.29 95.22 138.97 96.74 140.43 96.74C140.75 96.74 141.06 96.71 141.15 96.62C141.19 96.57 141.09 96.04 141.09 95C141.09 93.3 140.88 90.44 141.69 88.93C142.32 87.76 143.62 83.7 143.77 82.37C143.82 81.95 143.84 81.67 143.84 81.67C143.84 81.67 143.88 81.64 143.47 81.72C142.8 81.86 141.86 82 141.39 81.95C141.25 81.93 140.76 81.88 140.76 81.88Z" fill="#E6AD80"/>
<path fill-rule="evenodd" clip-rule="evenodd" d="M139.27 92.13C138.72 92.11 138.79 94.49 138.85 95.14C138.96 96.25 138.44 96.48 138.98 97.4C139.38 98.06 139.69 98.8 140.19 98.99C140.51 99.1 140.78 99.04 141.27 99.01C141.67 98.98 141.31 96.39 141.31 96.02C141.31 95.21 141.1 94.58 141.06 93.92C141.01 94.15 141.09 94.65 141.06 94.96C141.04 95.13 141.06 95.29 141.06 95.47C141.06 95.87 141.08 96.28 141.12 96.59C141.13 96.66 140.84 96.72 140.54 96.74C140.39 96.75 140.26 96.75 140.11 96.72C139.8 96.65 139.45 96.46 139.34 95.93C139.22 95.35 139.25 95.16 139.29 94.87C139.32 94.59 139.36 94.21 139.36 93.65C139.36 93.5 139.48 92.14 139.27 92.13Z" fill="#7F0E14"/>
<path fill-rule="evenodd" clip-rule="evenodd" d="M143.5 89.93C143.51 89.9 142.96 89.92 142.69 90.62C142.47 91.21 142.56 91.69 142.83 92.36C142.95 92.66 142.89 94.48 142.89 94.48C143.04 94.48 143.17 94.47 143.22 94.45C143.22 94.45 143.2 94.32 143.2 93.64C143.2 92.37 143.54 92.9 143.54 92.9C143.7 93.56 144.47 96.11 145.6 96.35C145.95 96.43 146.22 96.33 146.38 96.22C146.64 96.03 146.31 94.95 146.06 94.25C145.84 93.63 145.68 92.79 145.68 92.85C145.68 92.91 145.72 93.42 145.7 94.03C145.7 94.13 145.67 94.65 145.49 94.85C145.34 95 145.1 94.95 144.77 94.51C144.18 93.74 143.89 92.91 143.7 91.98C143.61 91.57 143.46 90.18 143.5 89.93Z" fill="#892428"/>
<path fill-rule="evenodd" clip-rule="evenodd" d="M146.41 80.67C145.94 83.22 145.81 84.58 145.7 86.32C145.64 87.41 145.61 87.01 145.55 89.02C145.54 89.33 145.4 90.21 145.48 91.34C145.51 91.71 145.59 92.31 145.63 92.66C145.7 93.38 145.75 93.72 145.7 94.23C145.61 95.15 145.21 95.31 144.39 93.87C144.09 93.34 143.88 92.79 143.74 92.09C143.5 90.82 143.48 89.29 143.42 88.03C143.35 86.59 143.13 85.35 143.06 85.21C143.06 85.21 143.71 83.86 143.84 81.65C144.33 81.54 146.41 80.64 146.41 80.67Z" fill="#DC9D72"/>
<path fill-rule="evenodd" clip-rule="evenodd" d="M149.11 64.04L153.77 61.15L153.81 61.24L149.26 65.23L143.71 69.02L143.58 68.9L149.11 64.04Z" fill="#393185"/>
<path fill-rule="evenodd" clip-rule="evenodd" d="M143.58 68.9L143.42 68.69L148.99 63.65L153.56 60.98L153.79 61.17L149.11 64.04L143.58 68.9Z" fill="#FEFEFE"/>
<path fill-rule="evenodd" clip-rule="evenodd" d="M28.41 32.21L0.660034 42.56V47.54L28.4 37.24L28.41 32.21Z" fill="#D9DADA"/>
<path fill-rule="evenodd" clip-rule="evenodd" d="M28.6301 38.4301L0.430054 48.9701V81.1401L29.2001 70.5101L28.6301 38.4301Z" fill="#F0F4F7"/>
<path fill-rule="evenodd" clip-rule="evenodd" d="M26.9601 48.01L2.93005 56.86L2.94005 60.42L26.9901 51.58L26.9601 48.01Z" fill="white"/>
<path fill-rule="evenodd" clip-rule="evenodd" d="M27.0201 53.45L2.99011 62.3L3.00011 65.86L27.0501 57.02L27.0201 53.45Z" fill="white"/>
<path fill-rule="evenodd" clip-rule="evenodd" d="M26.8501 58.48L2.82007 67.33L2.83007 70.89L26.8801 62.05L26.8501 58.48Z" fill="white"/>
<path fill-rule="evenodd" clip-rule="evenodd" d="M27.0201 63.7L2.99011 72.55L3.00011 76.11L27.0501 67.27L27.0201 63.7Z" fill="white"/>
<path fill-rule="evenodd" clip-rule="evenodd" d="M20.13 42.79L2.91003 49.16V50.5L20.12 44.14L20.13 42.79Z" fill="#FEF3DD"/>
<path fill-rule="evenodd" clip-rule="evenodd" d="M20.18 45.4301L2.95004 51.8401L2.92004 53.3301L20.16 46.8601L20.18 45.4301Z" fill="#FEF3DD"/>
<path d="M41.5801 99.32C48.3953 99.32 53.9201 97.4844 53.9201 95.22C53.9201 92.9556 48.3953 91.12 41.5801 91.12C34.7649 91.12 29.2401 92.9556 29.2401 95.22C29.2401 97.4844 34.7649 99.32 41.5801 99.32Z" fill="#EFEFEF"/>
<path fill-rule="evenodd" clip-rule="evenodd" d="M25.04 44.12C25.04 43.93 25.24 44.03 25.76 44.84C26.4 45.85 27.04 46.78 27.93 47.54C28.64 48.14 27.73 47.93 27.28 48.64C26.75 49.47 26.96 49.93 25.85 48.11C25.23 47.12 25.19 46.71 25.25 46.5C25.37 46.04 26.41 46.39 25.39 44.96C25.38 44.94 25.04 44.57 25.04 44.12Z" fill="#E9AC80"/>
<path fill-rule="evenodd" clip-rule="evenodd" d="M28.21 47.91C28.46 48.22 28.6 48.86 29.21 49.53C30.12 50.53 31.23 53.56 32.6 53.76C33.03 53.83 37.79 55.96 37.77 55.97C37.42 56.4 36.28 57.92 36 58.44C35.92 58.57 35.9 58.81 35.88 58.82C35.86 58.84 34.98 58.3 34.15 57.96C33.04 57.51 32.61 57.24 31.6 56.54C30.02 55.46 30.07 56.13 29.14 54.28C28.57 53.13 27.99 51.81 27.45 50.76C27.2 50.28 26.78 49.45 27.09 48.97C27.36 48.56 27.52 47.98 28.21 47.98L28.25 47.96L28.21 47.91Z" fill="#EEC22E"/>
<path fill-rule="evenodd" clip-rule="evenodd" d="M36.2201 48.35C36.1901 48.39 34.9501 53.12 37.5501 53.12C37.8001 53.12 38.3701 53.14 38.5001 52.96C38.5001 52.96 38.3201 52.55 38.0601 51.99C37.8901 51.62 35.9701 48.76 36.2201 48.35Z" fill="#D39E76"/>
<path fill-rule="evenodd" clip-rule="evenodd" d="M46.01 57.23C47.2 59.08 48.91 60.82 45.21 60.82L44.95 59.87C44.64 58.13 45.99 57.19 46.01 57.23Z" fill="#F1C13B"/>
<path fill-rule="evenodd" clip-rule="evenodd" d="M42.6601 63.21C42.7001 63.26 42.9801 66.57 42.7201 66.65C40.4601 67.39 36.9701 69.53 35.2901 66.42C35.2101 66.29 36.0001 60.03 36.1301 60.42C36.7001 62.14 38.9601 63.06 40.7101 63.15C41.0601 63.17 42.6901 63.41 42.6601 63.21Z" fill="#F9D974"/>
<path fill-rule="evenodd" clip-rule="evenodd" d="M40.57 67.45C41.85 72.73 40 72.94 39.12 77.24C38.83 78.65 39.84 85.8 39.29 90.25C39.2 90.99 39.25 92.17 39.25 92.17C39.29 92.34 38.47 92.53 37.06 92.35C36.46 89.48 35.32 76.93 34.99 75.61C34.81 74.86 34.72 65.34 35.35 66.52C36.42 68.55 38.65 68.11 39.79 67.72C40.19 67.58 40.59 67.47 40.57 67.45Z" fill="#5349A2"/>
<path fill-rule="evenodd" clip-rule="evenodd" d="M42.7701 66.63C44.0001 68.2 43.0901 71.69 42.1401 74.61C41.2901 77.2 40.4001 79.21 41.1801 79.97C42.8601 81.6 43.9301 88.43 43.3801 88.44C42.6101 88.45 41.9301 89.59 41.7801 90.25C41.7501 90.25 39.3001 83.62 39.3001 82.94C39.3201 80.84 38.3301 77.22 40.4601 73.29C41.5401 71.28 40.7801 68.19 40.6101 67.44C40.6101 67.44 41.2701 67.18 41.8201 66.98C42.2901 66.8 42.7501 66.61 42.7701 66.63Z" fill="#4A4297"/>
<path fill-rule="evenodd" clip-rule="evenodd" d="M43.69 89.0001C43.05 89.1901 42.94 89.8901 42.81 90.3901C42.62 91.1001 42.75 91.7601 42.9 92.5501C43.11 93.6201 43.39 94.3801 43.13 95.5901C43.09 95.7801 42.37 97.0501 43.23 97.0101C43.99 96.9801 43.85 97.1101 44.41 96.2201C45.35 94.7201 45.97 94.2101 44.87 92.5101C44.83 92.4401 44.66 91.9601 44.98 92.3001C45.44 92.7801 45.37 93.2301 45.94 92.7601C45.94 92.7601 44.52 90.7801 44.51 90.1901C44.49 89.4701 44.03 88.9401 44.03 88.9401C43.93 88.9401 43.81 88.9601 43.69 89.0001Z" fill="#140B66"/>
<path fill-rule="evenodd" clip-rule="evenodd" d="M43.11 89.48C42.85 90.05 42.79 90.36 42.73 90.8C42.69 91.09 42.66 91.35 42.72 91.63C42.97 92.78 43.3 94.87 43.15 94.47C42.89 93.81 42.72 93.01 42.38 92.37C42.2 92.02 41.9 90.51 41.79 90.17C42.14 89.4 42.55 88.56 43.46 88.41C43.33 88.69 43.94 88.87 43.94 88.94C43.94 88.98 43.35 88.93 43.11 89.48Z" fill="#DEAE8A"/>
<path fill-rule="evenodd" clip-rule="evenodd" d="M44.8101 92.17C44.8501 91.93 43.6501 90.74 43.5501 91.62C43.3401 93.56 44.0601 94.32 43.0301 95.77C42.7701 96.15 42.7901 96.58 42.9101 96.83C42.9801 96.97 43.6501 96.96 43.8701 96.89C44.0501 96.83 44.1401 96.61 44.1901 96.52C44.6901 95.74 44.8901 95.58 45.2401 94.83C45.6101 94.04 45.5401 93.87 45.1701 92.92C44.9401 92.32 44.7601 92.4 44.8101 92.17Z" fill="#2F228E"/>
<path fill-rule="evenodd" clip-rule="evenodd" d="M35.34 96.23C35.46 96.1 36.34 96.23 36.7 96.42C37.29 96.72 37.89 96.03 38.21 95.1C38.69 93.7 39.25 93.27 39.63 93.19C39.9 93.12 40.24 93.15 40.24 93.16C40.16 93.32 40.73 94.65 40.13 96.59C40.07 96.77 40.02 97.9 40.02 98.19C39.65 98.19 39.48 98.18 39.48 98.16C39.47 98.15 39.48 97.68 39.48 97.14C39.48 96.87 39.48 95.31 39.21 95.89C38.97 96.4 38.41 97.91 37.78 97.91C37.01 97.91 36.1 97.97 35.57 97.34C35.26 96.97 35.25 96.31 35.34 96.23Z" fill="#180966"/>
<path fill-rule="evenodd" clip-rule="evenodd" d="M37.2 92.3801C37.16 92.3301 37.37 93.2601 37.32 93.8101C37.32 93.8201 37.03 96.0001 36.38 96.3001C36.38 96.3101 37.07 96.8001 37.56 96.2501C38.45 95.2601 38.38 93.5001 39.77 93.1901C39.8 93.1801 39.82 92.9101 39.63 92.7601C39.39 92.5601 39.27 92.2401 39.26 92.2401C38.52 92.5901 37.23 92.4401 37.2 92.3801Z" fill="#DEAE8A"/>
<path fill-rule="evenodd" clip-rule="evenodd" d="M10.69 89.28C10.51 91.47 13.37 94.69 14.47 89.77C14.55 89.44 14.59 89.26 14.57 89.18C14.56 89.16 14.02 89.53 13.12 89.66C12.58 89.74 11.27 89.72 10.72 89.24L10.69 89.28Z" fill="#CBDCE6"/>
<path fill-rule="evenodd" clip-rule="evenodd" d="M10.68 89.07C10.92 88.69 12.45 88.73 12.86 88.75C13.68 88.79 13.66 88.86 14.24 88.95C15.53 89.16 13.41 89.68 12.84 89.69C12.01 89.71 11.09 89.62 10.77 89.28C10.7 89.21 10.62 89.16 10.68 89.07Z" fill="#243018"/>
<path fill-rule="evenodd" clip-rule="evenodd" d="M12.48 87.84C13.36 88.11 14.8 87.37 13.66 88.51C13.66 88.51 14.2 88.51 14.67 88.65C15.37 88.87 13.41 88.52 14.77 89.44C15.58 89.98 14.37 89.7 13.8 89.33C13.61 89.21 13.76 90.97 13.28 89.27C13.18 89.29 13.15 89.93 13 89.87C12.81 89.81 12.47 88.95 12.43 88.98C12.39 89.01 12.36 89.23 12.29 89.26C12.1 89.31 12.01 88.84 11.98 88.6C11.9 87.82 12.28 87.94 12.48 87.84Z" fill="#237C8C"/>
<path fill-rule="evenodd" clip-rule="evenodd" d="M10.39 81.09C10.51 81.3 11.05 82.38 11.12 82.14C11.65 80.52 11.32 83.25 11.94 82.3C12.18 81.92 12.14 84.05 12.18 83.97C12.82 82.65 12.37 85.41 12.61 85.41C12.7 85.43 12.98 84.59 13.05 84.74C13.05 85.18 13.26 87.9 12.81 87.9C11.86 87.9 12.34 87.66 11.69 87.29C11.5 87.19 11.37 86.5 10.94 86.16C10.93 86.16 9.97001 85.21 11.16 85.59C11.85 85.8 8.93001 84.15 10.48 84.15C11.06 84.15 10.01 83.85 10.01 82.74C10.58 82.69 10.59 83.68 10.46 82.42C10.44 82.19 10.42 81.15 10.39 81.09Z" fill="#E8B234"/>
<path fill-rule="evenodd" clip-rule="evenodd" d="M12.9901 87.8001C13.4101 87.3801 13.6401 86.8901 14.0701 86.3601C14.6901 85.6001 13.9701 87.6601 14.6801 86.5001C14.7401 86.4101 15.2801 85.7301 15.2801 85.9801C15.2801 87.0101 15.2301 86.1701 16.0401 86.0101C16.5401 85.9101 16.2501 86.0301 16.2001 86.6201C16.1801 86.7901 16.2901 86.6301 16.7801 86.6901C17.0201 86.7101 17.7001 86.7901 17.3001 87.0201C16.6101 87.4401 16.4201 87.2601 16.3001 87.3201C16.1901 87.3901 16.8301 87.8601 16.6601 87.8801C15.9501 87.9601 15.4301 87.6801 15.9301 88.0301C16.0001 88.0801 16.3001 88.4001 16.1701 88.3801C15.5801 88.2701 15.7201 88.4101 15.0201 88.1601C14.2401 87.8901 15.3201 88.9101 14.8901 88.7201C14.8701 88.7101 13.6601 88.4401 13.6601 88.5101C13.9801 88.1301 14.2001 87.8701 13.8801 87.8701C13.7701 87.8801 13.0901 87.9301 12.8601 87.9001C12.8101 87.8901 12.7601 87.8501 12.9901 87.8001Z" fill="#F6C039"/>
<path fill-rule="evenodd" clip-rule="evenodd" d="M17.2201 83.82C17.1301 83.84 16.2501 83.8 15.4301 84.05C15.3001 84.09 15.0901 84.19 15.0801 84.14C15.0401 84.02 15.3101 83.48 15.3501 83.26C15.3501 83.23 15.2701 83.24 15.2301 83.26C14.3501 83.59 14.1301 84.71 14.1301 84.68C14.1301 84.6 13.8801 83.79 13.8201 83.9C13.6101 84.26 13.0901 85.1 13.0901 85.56C13.0901 85.79 13.1001 86.24 13.0901 86.73C13.0901 86.8 13.0901 86.98 13.0801 87.05C13.0701 87.18 13.0701 87.28 13.0501 87.39C13.0301 87.53 13.0201 87.65 12.9401 87.74C12.6401 88.08 12.8701 87.94 13.1901 87.58C13.5201 87.19 13.9501 86.57 13.9601 86.56C14.4001 85.86 14.3201 86.41 14.3301 86.71C14.3301 86.8 14.3501 86.86 14.3801 86.87C14.4001 86.87 14.4701 86.83 14.5701 86.68C14.6601 86.52 15.0701 85.98 15.2201 85.94C15.3201 85.91 15.2601 86 15.2801 86.32C15.2901 86.52 15.2801 86.55 15.3501 86.45C15.4301 86.33 15.6501 86.09 16.1201 86.03C16.2801 86.01 16.3101 85.9 16.2701 86.38C16.2601 86.52 16.4201 86.33 16.7901 86.34C17.2301 86.36 17.1101 85.88 16.1601 85.72C15.3801 85.59 16.7201 85.43 16.7501 85.42C16.8601 85.39 17.6701 85.04 16.9801 84.91C16.7201 84.86 15.9301 84.65 16.5401 84.47C17.1101 84.29 17.5601 83.76 17.2201 83.82Z" fill="#163854"/>
<path fill-rule="evenodd" clip-rule="evenodd" d="M11.0601 88.5901C11.0801 88.6301 11.0801 88.6101 11.0601 88.6501C10.9101 88.8801 9.81007 89.1101 11.1801 89.0601C11.4901 89.0501 11.9001 88.8901 12.0301 88.8701C11.9501 88.4001 11.9701 88.2301 12.0601 88.0701C12.1101 87.9901 12.2001 87.9701 12.4801 87.8801C12.4801 87.8701 11.8701 86.7401 11.8601 86.8701C11.8401 87.0801 11.8301 87.2401 11.7901 87.2801C11.5601 87.5101 10.9901 85.4901 11.0501 86.8601C11.0601 87.1201 10.1201 86.0801 9.77007 86.2001C9.74007 86.2301 9.83007 86.2901 9.86007 86.3301C10.6901 87.2101 10.5701 86.7401 9.38007 86.8401C8.92007 86.8801 8.21007 87.3001 9.04007 87.2801C10.1401 87.2701 9.36007 87.6601 9.14007 87.8501C9.08007 87.9001 9.14007 87.9301 9.21007 87.9401C9.43007 87.9501 10.1501 88.0701 10.1701 88.0801C10.2101 88.1001 10.1601 88.1501 10.1301 88.1601C8.45007 88.9901 10.9801 88.5701 10.9901 88.5701C11.0201 88.5501 11.0501 88.5601 11.0601 88.5901Z" fill="#22788F"/>
<path d="M14.9801 95.87C17.0622 95.87 18.7501 95.2477 18.7501 94.48C18.7501 93.7124 17.0622 93.09 14.9801 93.09C12.898 93.09 11.2101 93.7124 11.2101 94.48C11.2101 95.2477 12.898 95.87 14.9801 95.87Z" fill="#FDE0E4"/>
<path d="M101.43 103.75C103.512 103.75 105.2 103.128 105.2 102.36C105.2 101.592 103.512 100.97 101.43 100.97C99.3479 100.97 97.66 101.592 97.66 102.36C97.66 103.128 99.3479 103.75 101.43 103.75Z" fill="#D9F0F8"/>
<path d="M126.3 90.95C128.382 90.95 130.07 90.3277 130.07 89.56C130.07 88.7924 128.382 88.17 126.3 88.17C124.218 88.17 122.53 88.7924 122.53 89.56C122.53 90.3277 124.218 90.95 126.3 90.95Z" fill="#EDEAFB"/>
<path d="M80.2301 79.2701C82.3122 79.2701 84.0001 78.6477 84.0001 77.8801C84.0001 77.1124 82.3122 76.4901 80.2301 76.4901C78.148 76.4901 76.4601 77.1124 76.4601 77.8801C76.4601 78.6477 78.148 79.2701 80.2301 79.2701Z" fill="#F1FEE4"/>
<path d="M49.64 77.7201C51.7221 77.7201 53.41 77.0977 53.41 76.3301C53.41 75.5624 51.7221 74.9401 49.64 74.9401C47.5579 74.9401 45.87 75.5624 45.87 76.3301C45.87 77.0977 47.5579 77.7201 49.64 77.7201Z" fill="#E4F9F4"/>
<path fill-rule="evenodd" clip-rule="evenodd" d="M39.73 20.95L33.3 18.17L33.36 27.93L39.58 30.94L39.73 20.95Z" fill="#B8BDF7"/>
<path d="M38.4801 21.82L34.0701 19.71V20.25L38.4701 22.34L38.4801 21.82Z" fill="#FEFEFE"/>
<path d="M38.4801 23.0001L34.0701 20.8801L34.0601 21.3801L38.4801 23.5201V23.0001Z" fill="#FEFEFE"/>
<path d="M38.4601 24.1901L34.0601 22.0801L34.0701 22.6001L38.4701 24.7601L38.4601 24.1901Z" fill="#FEFEFE"/>
<path d="M38.4901 25.7201L34.0801 23.4401L34.0601 24.0201L38.4801 26.2901L38.4901 25.7201Z" fill="#FEFEFE"/>
<path d="M38.4601 27.0101L34.0601 24.8801L34.0801 25.4101L38.4701 27.5801L38.4601 27.0101Z" fill="#FEFEFE"/>
<path d="M38.4701 28.37L34.0801 26.17L34.0701 26.72L38.4701 28.91V28.37Z" fill="#FEFEFE"/>
<path fill-rule="evenodd" clip-rule="evenodd" d="M80.65 28.78L86.16 31.11L86.23 37.1L80.7 34.74L80.65 28.78Z" fill="#4387F6"/>
<path d="M136.12 39.08C136.92 39.08 137.64 39.47 138.15 40.1C138.65 40.7 138.95 41.53 138.95 42.44C138.95 43.35 138.65 44.18 138.15 44.78C137.8 45.21 137.35 45.53 136.84 45.69V44.27C137.07 44.15 137.35 44.29 137.53 44.07C137.9 43.62 138.06 43.14 138.06 42.44C138.06 40.86 137.5 40.93 137.05 40.87C136.58 40.81 136.12 41.03 136.12 41.03C135.65 41.07 135.11 40.27 134.79 40.66C134.42 41.11 134.19 41.74 134.19 42.44C134.19 43.14 134.29 43.36 134.65 43.81C134.88 44.06 135.03 44.07 135.17 44.18V45.6C134.76 45.43 134.39 45.15 134.1 44.78C133.6 44.18 133.3 43.35 133.3 42.44C133.3 41.53 133.6 40.7 134.1 40.1C134.61 39.47 135.33 39.08 136.12 39.08Z" fill="#2B2A29"/>
<path d="M147.854 28.9301H147.54V29.6246H147.854V28.9301Z" fill="#D9DADA"/>
<path d="M147.844 29.9901H147.53V30.6846H147.844V29.9901Z" fill="#D9DADA"/>
<path d="M147.844 31.0601H147.53V31.7546H147.844V31.0601Z" fill="#D9DADA"/>
<path d="M147.864 32.11H147.55V32.8045H147.864V32.11Z" fill="#D9DADA"/>
<path d="M147.864 33.1801H147.55V33.8746H147.864V33.1801Z" fill="#D9DADA"/>
<path d="M147.864 34.23H147.55V34.9245H147.864V34.23Z" fill="#D9DADA"/>
<path d="M147.864 35.29H147.55V35.9845H147.864V35.29Z" fill="#D9DADA"/>
<path d="M147.854 36.35H147.54V37.0445H147.854V36.35Z" fill="#D9DADA"/>
<path d="M147.854 37.41H147.54V38.1045H147.854V37.41Z" fill="#D9DADA"/>
<path d="M147.844 38.46H147.53V39.1545H147.844V38.46Z" fill="#D9DADA"/>
<path d="M147.844 39.54H147.53V40.2345H147.844V39.54Z" fill="#D9DADA"/>
<path d="M147.864 40.59H147.55V41.2845H147.864V40.59Z" fill="#D9DADA"/>
<path d="M147.864 41.65H147.55V42.3445H147.864V41.65Z" fill="#D9DADA"/>
<path d="M147.864 42.71H147.55V43.4045H147.864V42.71Z" fill="#D9DADA"/>
<path d="M147.864 43.77H147.55V44.4645H147.864V43.77Z" fill="#D9DADA"/>
<path d="M147.854 44.83H147.54V45.5245H147.854V44.83Z" fill="#D9DADA"/>
<path d="M147.864 45.9301H147.55V46.6246H147.864V45.9301Z" fill="#D9DADA"/>
<path d="M147.854 46.9901H147.54V47.6846H147.854V46.9901Z" fill="#D9DADA"/>
<path d="M147.854 48.0701H147.54V48.7646H147.854V48.0701Z" fill="#D9DADA"/>
<path d="M147.874 49.1201H147.56V49.8146H147.874V49.1201Z" fill="#D9DADA"/>
<path d="M147.874 50.1801H147.56V50.8746H147.874V50.1801Z" fill="#D9DADA"/>
<path d="M147.874 51.2401H147.56V51.9346H147.874V51.2401Z" fill="#D9DADA"/>
<path d="M147.874 52.3H147.56V52.9946H147.874V52.3Z" fill="#D9DADA"/>
<path d="M147.864 53.35H147.55V54.0445H147.864V53.35Z" fill="#D9DADA"/>
<path d="M147.864 54.41H147.55V55.1045H147.864V54.41Z" fill="#D9DADA"/>
<path d="M147.854 55.47H147.54V56.1645H147.854V55.47Z" fill="#D9DADA"/>
<path d="M147.854 56.54H147.54V57.2345H147.854V56.54Z" fill="#D9DADA"/>
<path d="M147.874 57.6H147.56V58.2945H147.874V57.6Z" fill="#D9DADA"/>
<path d="M147.874 58.66H147.56V59.3545H147.874V58.66Z" fill="#D9DADA"/>
<path d="M147.874 59.72H147.56V60.4145H147.874V59.72Z" fill="#D9DADA"/>
<path d="M147.874 60.78H147.56V61.4745H147.874V60.78Z" fill="#D9DADA"/>
<path d="M147.864 61.83H147.55V62.5245H147.864V61.83Z" fill="#D9DADA"/>
<path d="M149.743 30.7711L149.617 31.059L150.254 31.3369L150.379 31.0489L149.743 30.7711Z" fill="#D9DADA"/>
<path d="M150.71 31.202L150.584 31.4899L151.221 31.7678L151.346 31.4798L150.71 31.202Z" fill="#D9DADA"/>
<path d="M151.695 31.6318L151.569 31.9198L152.206 32.1976L152.331 31.9097L151.695 31.6318Z" fill="#D9DADA"/>
<path d="M152.664 32.0414L152.538 32.3294L153.175 32.6072L153.3 32.3193L152.664 32.0414Z" fill="#D9DADA"/>
<path d="M153.639 32.4628L153.513 32.7507L154.15 33.0286L154.275 32.7406L153.639 32.4628Z" fill="#D9DADA"/>
<path d="M154.609 32.8882L154.483 33.1762L155.12 33.454L155.245 33.1661L154.609 32.8882Z" fill="#D9DADA"/>
<path d="M155.58 33.3079L155.454 33.5959L156.091 33.8737L156.216 33.5858L155.58 33.3079Z" fill="#D9DADA"/>
<path d="M156.543 33.7372L156.417 34.0252L157.054 34.303L157.179 34.0151L156.543 33.7372Z" fill="#D9DADA"/>
<path d="M185.134 51.1902L185.25 51.4821L185.895 51.2247L185.779 50.9328L185.134 51.1902Z" fill="#D9DADA"/>
<path d="M186.12 50.8062L186.236 51.098L186.881 50.8406L186.765 50.5488L186.12 50.8062Z" fill="#D9DADA"/>
<path d="M187.118 50.4072L187.234 50.699L187.879 50.4416L187.763 50.1498L187.118 50.4072Z" fill="#D9DADA"/>
<path d="M188.091 50.0062L188.207 50.298L188.852 50.0406L188.736 49.7488L188.091 50.0062Z" fill="#D9DADA"/>
<path d="M189.076 49.6082L189.192 49.9L189.837 49.6426L189.721 49.3508L189.076 49.6082Z" fill="#D9DADA"/>
<path d="M190.06 49.2182L190.176 49.5101L190.821 49.2527L190.705 48.9609L190.06 49.2182Z" fill="#D9DADA"/>
<path d="M191.042 48.8223L191.158 49.1141L191.803 48.8567L191.687 48.5649L191.042 48.8223Z" fill="#D9DADA"/>
<path d="M192.024 48.4392L192.14 48.731L192.785 48.4736L192.669 48.1818L192.024 48.4392Z" fill="#D9DADA"/>
<path d="M163.311 36.8264L163.185 37.1143L163.822 37.3922L163.947 37.1042L163.311 36.8264Z" fill="#D9DADA"/>
<path d="M164.278 37.2573L164.152 37.5452L164.789 37.8231L164.914 37.5351L164.278 37.2573Z" fill="#D9DADA"/>
<path d="M165.263 37.6873L165.137 37.9752L165.774 38.2531L165.899 37.9651L165.263 37.6873Z" fill="#D9DADA"/>
<path d="M166.232 38.0969L166.106 38.3848L166.743 38.6627L166.868 38.3747L166.232 38.0969Z" fill="#D9DADA"/>
<path d="M167.208 38.5182L167.082 38.8062L167.719 39.084L167.844 38.796L167.208 38.5182Z" fill="#D9DADA"/>
<path d="M168.177 38.944L168.051 39.232L168.688 39.5098L168.813 39.2219L168.177 38.944Z" fill="#D9DADA"/>
<path d="M169.148 39.363L169.022 39.651L169.659 39.9288L169.784 39.6409L169.148 39.363Z" fill="#D9DADA"/>
<path d="M170.111 39.793L169.985 40.081L170.622 40.3588L170.747 40.0709L170.111 39.793Z" fill="#D9DADA"/>
<path d="M171.082 40.217L170.956 40.505L171.593 40.7828L171.718 40.4949L171.082 40.217Z" fill="#D9DADA"/>
<path d="M172.049 40.648L171.923 40.936L172.56 41.2138L172.685 40.9258L172.049 40.648Z" fill="#D9DADA"/>
<path d="M173.034 41.0781L172.908 41.366L173.545 41.6439L173.67 41.3559L173.034 41.0781Z" fill="#D9DADA"/>
<path d="M174.003 41.4871L173.877 41.775L174.514 42.0529L174.639 41.7649L174.003 41.4871Z" fill="#D9DADA"/>
<path d="M174.978 41.9091L174.852 42.197L175.489 42.4749L175.614 42.1869L174.978 41.9091Z" fill="#D9DADA"/>
<path d="M175.948 42.334L175.822 42.622L176.459 42.8998L176.584 42.6119L175.948 42.334Z" fill="#D9DADA"/>
<path d="M176.919 42.754L176.793 43.042L177.43 43.3198L177.555 43.0319L176.919 42.754Z" fill="#D9DADA"/>
<path d="M177.882 43.183L177.756 43.471L178.393 43.7488L178.518 43.4609L177.882 43.183Z" fill="#D9DADA"/>
<path d="M184.864 59.5341L185.178 59.536L185.182 58.8415L184.868 58.8396L184.864 59.5341Z" fill="#D9DADA"/>
<path d="M184.878 58.4761L185.192 58.478L185.196 57.7835L184.882 57.7817L184.878 58.4761Z" fill="#D9DADA"/>
<path d="M184.885 57.4011L185.199 57.403L185.203 56.7085L184.889 56.7066L184.885 57.4011Z" fill="#D9DADA"/>
<path d="M184.879 56.3491L185.193 56.351L185.197 55.6565L184.883 55.6546L184.879 56.3491Z" fill="#D9DADA"/>
<path d="M184.881 55.2861L185.195 55.288L185.199 54.5935L184.885 54.5917L184.881 55.2861Z" fill="#D9DADA"/>
<path d="M184.89 54.2282L185.204 54.23L185.208 53.5356L184.894 53.5337L184.89 54.2282Z" fill="#D9DADA"/>
<path d="M184.892 53.1701L185.206 53.172L185.21 52.4775L184.896 52.4756L184.892 53.1701Z" fill="#D9DADA"/>
<path d="M184.907 52.1161L185.221 52.118L185.225 51.4235L184.911 51.4216L184.907 52.1161Z" fill="#D9DADA"/>
<path fill-rule="evenodd" clip-rule="evenodd" d="M191.93 41.73L198.71 38.42L198.64 49.1L192.09 52.64L191.93 41.73Z" fill="#F7DCE1"/>
<path d="M193.18 42.87L197.82 40.39L197.83 40.98L193.19 43.45L193.18 42.87Z" fill="#FEFEFE"/>
<path d="M193.18 44.16L197.83 41.66V42.21L193.18 44.73V44.16Z" fill="#FEFEFE"/>
<path d="M193.2 45.47L197.83 42.98L197.82 43.55L193.19 46.09L193.2 45.47Z" fill="#FEFEFE"/>
<path d="M193.17 47.13L197.82 44.47L197.84 45.1L193.18 47.76L193.17 47.13Z" fill="#FEFEFE"/>
<path d="M193.2 48.55L197.84 46.04L197.82 46.61L193.2 49.17V48.55Z" fill="#FEFEFE"/>
<path d="M193.19 50.0401L197.82 47.4401V48.0401L193.19 50.6301V50.0401Z" fill="#FEFEFE"/>
<path d="M153.798 44.6941L153.672 44.9821L154.309 45.2599L154.434 44.9719L153.798 44.6941Z" fill="#D9DADA"/>
<path d="M154.765 45.1241L154.639 45.412L155.276 45.6899L155.401 45.4019L154.765 45.1241Z" fill="#D9DADA"/>
<path d="M155.75 45.5541L155.624 45.842L156.261 46.1199L156.386 45.8319L155.75 45.5541Z" fill="#D9DADA"/>
<path d="M156.719 45.9641L156.593 46.2521L157.23 46.5299L157.355 46.2419L156.719 45.9641Z" fill="#D9DADA"/>
<path d="M157.694 46.3851L157.568 46.673L158.204 46.9509L158.33 46.6629L157.694 46.3851Z" fill="#D9DADA"/>
<path d="M158.663 46.8111L158.537 47.0991L159.173 47.3769L159.299 47.0889L158.663 46.8111Z" fill="#D9DADA"/>
<path d="M159.635 47.2301L159.509 47.5181L160.146 47.7959L160.271 47.5079L159.635 47.2301Z" fill="#D9DADA"/>
<path d="M160.598 47.6601L160.472 47.9481L161.109 48.2259L161.234 47.9379L160.598 47.6601Z" fill="#D9DADA"/>
<path d="M161.569 48.0841L161.443 48.3721L162.079 48.6499L162.205 48.3619L161.569 48.0841Z" fill="#D9DADA"/>
<path d="M162.535 48.5151L162.409 48.803L163.045 49.0809L163.171 48.7929L162.535 48.5151Z" fill="#D9DADA"/>
<path d="M163.521 48.9451L163.395 49.2331L164.032 49.5109L164.157 49.223L163.521 48.9451Z" fill="#D9DADA"/>
<path d="M164.49 49.3551L164.364 49.6431L165.001 49.9209L165.126 49.6329L164.49 49.3551Z" fill="#D9DADA"/>
<path d="M165.465 49.7761L165.339 50.0641L165.975 50.3419L166.101 50.054L165.465 49.7761Z" fill="#D9DADA"/>
<path d="M166.434 50.2011L166.308 50.4891L166.944 50.7669L167.07 50.4789L166.434 50.2011Z" fill="#D9DADA"/>
<path d="M167.406 50.6211L167.28 50.9091L167.917 51.1869L168.042 50.8989L167.406 50.6211Z" fill="#D9DADA"/>
<path d="M168.369 51.0501L168.243 51.3381L168.88 51.6159L169.005 51.3279L168.369 51.0501Z" fill="#D9DADA"/>
<path fill-rule="evenodd" clip-rule="evenodd" d="M169.01 45.23L174.5 47.55V55.02L169.01 52.57V45.23Z" fill="#1D9974"/>
<path fill-rule="evenodd" clip-rule="evenodd" d="M151.57 40.28L156.38 42.32V48.76L151.55 46.78L151.57 40.28Z" fill="#2169B1"/>
<path fill-rule="evenodd" clip-rule="evenodd" d="M153.11 42.95C154.07 42.25 155.31 42.5 155.67 42.98C156.02 43.46 155.87 44.92 154.9 45.63C153.94 46.34 152.63 45.96 152.28 45.48C151.93 45 152.15 43.66 153.11 42.95Z" fill="#FFFFFA"/>
<path d="M161.34 67.19C161.809 67.19 162.19 66.411 162.19 65.45C162.19 64.489 161.809 63.71 161.34 63.71C160.871 63.71 160.49 64.489 160.49 65.45C160.49 66.411 160.871 67.19 161.34 67.19Z" fill="#FB5F77"/>
<path d="M160.4 63.24C160.869 63.24 161.25 62.461 161.25 61.5C161.25 60.539 160.869 59.76 160.4 59.76C159.931 59.76 159.55 60.539 159.55 61.5C159.55 62.461 159.931 63.24 160.4 63.24Z" fill="#FB5F77"/>
<path d="M149.936 66.0171L149.81 66.3051L150.447 66.5829L150.572 66.2949L149.936 66.0171Z" fill="#D9DADA"/>
<path d="M150.903 66.4481L150.777 66.736L151.414 67.0139L151.539 66.7259L150.903 66.4481Z" fill="#D9DADA"/>
<path d="M151.888 66.8781L151.762 67.1661L152.399 67.4439L152.524 67.1559L151.888 66.8781Z" fill="#D9DADA"/>
<path d="M152.857 67.2871L152.731 67.5751L153.368 67.8529L153.493 67.5649L152.857 67.2871Z" fill="#D9DADA"/>
<path d="M153.833 67.7081L153.707 67.996L154.344 68.2739L154.469 67.9859L153.833 67.7081Z" fill="#D9DADA"/>
<path d="M154.802 68.1341L154.676 68.4221L155.313 68.6999L155.438 68.4119L154.802 68.1341Z" fill="#D9DADA"/>
<path d="M155.774 68.5541L155.648 68.842L156.285 69.1199L156.41 68.8319L155.774 68.5541Z" fill="#D9DADA"/>
<path d="M156.736 68.9831L156.61 69.2711L157.247 69.5489L157.372 69.2609L156.736 68.9831Z" fill="#D9DADA"/>
<path d="M157.707 69.4071L157.581 69.6951L158.218 69.9729L158.343 69.6849L157.707 69.4071Z" fill="#D9DADA"/>
<path d="M158.674 69.8381L158.548 70.126L159.185 70.4039L159.31 70.1159L158.674 69.8381Z" fill="#D9DADA"/>
<path d="M159.659 70.2681L159.533 70.556L160.17 70.8339L160.295 70.5459L159.659 70.2681Z" fill="#D9DADA"/>
<path d="M160.628 70.6781L160.502 70.9661L161.139 71.2439L161.264 70.9559L160.628 70.6781Z" fill="#D9DADA"/>
<path d="M161.604 71.0991L161.478 71.3871L162.115 71.6649L162.24 71.377L161.604 71.0991Z" fill="#D9DADA"/>
<path d="M162.573 71.5251L162.447 71.813L163.084 72.0909L163.209 71.8029L162.573 71.5251Z" fill="#D9DADA"/>
<path d="M163.544 71.9441L163.418 72.2321L164.055 72.5099L164.18 72.2219L163.544 71.9441Z" fill="#D9DADA"/>
<path d="M164.507 72.3741L164.381 72.662L165.018 72.9399L165.143 72.6519L164.507 72.3741Z" fill="#D9DADA"/>
<path d="M136.444 46.46H136.13V47.1545H136.444V46.46Z" fill="#D9DADA"/>
<path d="M136.434 47.52H136.12V48.2145H136.434V47.52Z" fill="#D9DADA"/>
<path d="M136.434 48.6H136.12V49.2945H136.434V48.6Z" fill="#D9DADA"/>
<path d="M136.444 49.65H136.13V50.3445H136.444V49.65Z" fill="#D9DADA"/>
<path d="M136.444 50.71H136.13V51.4045H136.444V50.71Z" fill="#D9DADA"/>
<path d="M136.444 51.77H136.13V52.4645H136.444V51.77Z" fill="#D9DADA"/>
<path d="M136.454 52.83H136.14V53.5245H136.454V52.83Z" fill="#D9DADA"/>
<path d="M136.444 53.88H136.13V54.5745H136.444V53.88Z" fill="#D9DADA"/>
<path d="M136.444 54.94H136.13V55.6345H136.444V54.94Z" fill="#D9DADA"/>
<path d="M136.434 56H136.12V56.6945H136.434V56Z" fill="#D9DADA"/>
<path d="M136.434 57.07H136.12V57.7645H136.434V57.07Z" fill="#D9DADA"/>
<path d="M136.444 58.13H136.13V58.8245H136.444V58.13Z" fill="#D9DADA"/>
<path d="M136.454 59.19H136.14V59.8845H136.454V59.19Z" fill="#D9DADA"/>
<path d="M136.444 60.25H136.13V60.9445H136.444V60.25Z" fill="#D9DADA"/>
<path d="M136.454 61.31H136.14V62.0045H136.454V61.31Z" fill="#D9DADA"/>
<path d="M136.444 62.36H136.13V63.0545H136.444V62.36Z" fill="#D9DADA"/>
<path d="M136.434 63.41H136.12V64.1045H136.434V63.41Z" fill="#D9DADA"/>
<path d="M136.424 64.46H136.11V65.1545H136.424V64.46Z" fill="#D9DADA"/>
<path d="M136.424 65.54H136.11V66.2345H136.424V65.54Z" fill="#D9DADA"/>
<path d="M136.444 66.59H136.13V67.2845H136.444V66.59Z" fill="#D9DADA"/>
<path d="M136.444 67.65H136.13V68.3445H136.444V67.65Z" fill="#D9DADA"/>
<path d="M136.444 68.71H136.13V69.4045H136.444V68.71Z" fill="#D9DADA"/>
<path d="M136.444 69.77H136.13V70.4645H136.444V69.77Z" fill="#D9DADA"/>
<path d="M136.434 70.8201H136.12V71.5146H136.434V70.8201Z" fill="#D9DADA"/>
<path d="M136.434 71.88H136.12V72.5745H136.434V71.88Z" fill="#D9DADA"/>
<path d="M136.424 72.94H136.11V73.6345H136.424V72.94Z" fill="#D9DADA"/>
<path d="M136.424 74.02H136.11V74.7145H136.424V74.02Z" fill="#D9DADA"/>
<path d="M136.444 75.07H136.13V75.7645H136.444V75.07Z" fill="#D9DADA"/>
<path d="M136.444 76.13H136.13V76.8245H136.444V76.13Z" fill="#D9DADA"/>
<path d="M136.444 77.19H136.13V77.8845H136.444V77.19Z" fill="#D9DADA"/>
<path d="M136.444 78.25H136.13V78.9445H136.444V78.25Z" fill="#D9DADA"/>
<path d="M136.434 79.3H136.12V79.9945H136.434V79.3Z" fill="#D9DADA"/>
<path d="M136.574 22.4901H136.26V23.1846H136.574V22.4901Z" fill="#D9DADA"/>
<path d="M136.574 23.55H136.26V24.2446H136.574V23.55Z" fill="#D9DADA"/>
<path d="M136.574 24.6201H136.26V25.3146H136.574V24.6201Z" fill="#D9DADA"/>
<path d="M136.584 25.6801H136.27V26.3746H136.584V25.6801Z" fill="#D9DADA"/>
<path d="M136.584 26.7401H136.27V27.4346H136.584V26.7401Z" fill="#D9DADA"/>
<path d="M136.584 27.8H136.27V28.4946H136.584V27.8Z" fill="#D9DADA"/>
<path d="M136.584 28.86H136.27V29.5545H136.584V28.86Z" fill="#D9DADA"/>
<path d="M136.584 29.91H136.27V30.6045H136.584V29.91Z" fill="#D9DADA"/>
<path d="M136.584 30.97H136.27V31.6645H136.584V30.97Z" fill="#D9DADA"/>
<path d="M136.574 32.03H136.26V32.7245H136.574V32.03Z" fill="#D9DADA"/>
<path d="M136.574 33.1H136.26V33.7945H136.574V33.1Z" fill="#D9DADA"/>
<path d="M136.584 34.15H136.27V34.8445H136.584V34.15Z" fill="#D9DADA"/>
<path d="M136.584 35.22H136.27V35.9145H136.584V35.22Z" fill="#D9DADA"/>
<path d="M136.584 36.28H136.27V36.9745H136.584V36.28Z" fill="#D9DADA"/>
<path d="M136.594 37.33H136.28V38.0245H136.594V37.33Z" fill="#D9DADA"/>
<path d="M136.584 38.39H136.27V39.0845H136.584V38.39Z" fill="#D9DADA"/>
<path d="M137.38 22.9567L137.256 23.2454L137.894 23.5195L138.018 23.2309L137.38 22.9567Z" fill="#D9DADA"/>
<path d="M138.349 23.382L138.225 23.6707L138.863 23.9448L138.987 23.6561L138.349 23.382Z" fill="#D9DADA"/>
<path d="M139.336 23.8062L139.212 24.0949L139.85 24.369L139.974 24.0803L139.336 23.8062Z" fill="#D9DADA"/>
<path d="M140.308 24.2102L140.184 24.4988L140.822 24.773L140.946 24.4843L140.308 24.2102Z" fill="#D9DADA"/>
<path d="M141.286 24.6257L141.162 24.9144L141.8 25.1886L141.924 24.8999L141.286 24.6257Z" fill="#D9DADA"/>
<path d="M142.257 25.0456L142.133 25.3343L142.771 25.6084L142.895 25.3197L142.257 25.0456Z" fill="#D9DADA"/>
<path d="M143.231 25.4596L143.107 25.7483L143.745 26.0224L143.869 25.7337L143.231 25.4596Z" fill="#D9DADA"/>
<path d="M144.197 25.8833L144.073 26.172L144.711 26.4461L144.835 26.1574L144.197 25.8833Z" fill="#D9DADA"/>
<path d="M145.17 26.3021L145.046 26.5908L145.684 26.8649L145.808 26.5763L145.17 26.3021Z" fill="#D9DADA"/>
<path d="M146.139 26.7274L146.015 27.0161L146.653 27.2902L146.777 27.0015L146.139 26.7274Z" fill="#D9DADA"/>
<path d="M147.127 27.1516L147.003 27.4403L147.641 27.7144L147.765 27.4257L147.127 27.1516Z" fill="#D9DADA"/>
<path d="M148.098 27.5555L147.974 27.8442L148.612 28.1184L148.736 27.8297L148.098 27.5555Z" fill="#D9DADA"/>
<path d="M149.076 27.9711L148.952 28.2598L149.59 28.5339L149.714 28.2453L149.076 27.9711Z" fill="#D9DADA"/>
<path d="M150.048 28.391L149.924 28.6797L150.562 28.9538L150.686 28.6651L150.048 28.391Z" fill="#D9DADA"/>
<path d="M151.022 28.805L150.898 29.0937L151.536 29.3678L151.66 29.0791L151.022 28.805Z" fill="#D9DADA"/>
<path d="M151.987 29.2287L151.863 29.5174L152.501 29.7915L152.625 29.5028L151.987 29.2287Z" fill="#D9DADA"/>
<path d="M118.335 13.4255L118.211 13.7142L118.849 13.9884L118.973 13.6997L118.335 13.4255Z" fill="#D9DADA"/>
<path d="M119.304 13.8508L119.18 14.1395L119.818 14.4136L119.942 14.125L119.304 13.8508Z" fill="#D9DADA"/>
<path d="M120.292 14.275L120.168 14.5637L120.806 14.8378L120.93 14.5492L120.292 14.275Z" fill="#D9DADA"/>
<path d="M121.264 14.679L121.14 14.9677L121.778 15.2418L121.902 14.9531L121.264 14.679Z" fill="#D9DADA"/>
<path d="M122.242 15.0946L122.118 15.3832L122.756 15.6574L122.88 15.3687L122.242 15.0946Z" fill="#D9DADA"/>
<path d="M123.213 15.5144L123.089 15.8031L123.727 16.0772L123.851 15.7885L123.213 15.5144Z" fill="#D9DADA"/>
<path d="M124.187 15.9284L124.063 16.2171L124.701 16.4912L124.825 16.2025L124.187 15.9284Z" fill="#D9DADA"/>
<path d="M125.153 16.3521L125.029 16.6408L125.667 16.9149L125.791 16.6262L125.153 16.3521Z" fill="#D9DADA"/>
<path d="M126.126 16.7709L126.002 17.0596L126.64 17.3338L126.764 17.0451L126.126 16.7709Z" fill="#D9DADA"/>
<path d="M127.095 17.1962L126.971 17.4849L127.609 17.759L127.733 17.4704L127.095 17.1962Z" fill="#D9DADA"/>
<path d="M128.083 17.6204L127.959 17.9091L128.597 18.1832L128.721 17.8946L128.083 17.6204Z" fill="#D9DADA"/>
<path d="M129.054 18.0244L128.93 18.313L129.568 18.5872L129.692 18.2985L129.054 18.0244Z" fill="#D9DADA"/>
<path d="M130.032 18.4399L129.908 18.7286L130.546 19.0028L130.67 18.7141L130.032 18.4399Z" fill="#D9DADA"/>
<path d="M131.004 18.8599L130.88 19.1486L131.518 19.4227L131.642 19.134L131.004 18.8599Z" fill="#D9DADA"/>
<path d="M131.978 19.2738L131.854 19.5625L132.492 19.8366L132.616 19.5479L131.978 19.2738Z" fill="#D9DADA"/>
<path d="M132.943 19.6975L132.819 19.9862L133.457 20.2603L133.581 19.9716L132.943 19.6975Z" fill="#D9DADA"/>
<path d="M98.0801 5.90717L97.9561 6.19586L98.5942 6.46999L98.7182 6.1813L98.0801 5.90717Z" fill="#D9DADA"/>
<path d="M99.0491 6.33247L98.925 6.62115L99.5632 6.89528L99.6872 6.60659L99.0491 6.33247Z" fill="#D9DADA"/>
<path d="M100.037 6.75666L99.9131 7.04535L100.551 7.31947L100.675 7.03078L100.037 6.75666Z" fill="#D9DADA"/>
<path d="M101.008 7.16059L100.884 7.44928L101.522 7.7234L101.646 7.43471L101.008 7.16059Z" fill="#D9DADA"/>
<path d="M101.986 7.57618L101.862 7.86487L102.5 8.13899L102.624 7.8503L101.986 7.57618Z" fill="#D9DADA"/>
<path d="M102.958 7.9961L102.834 8.28479L103.472 8.55891L103.596 8.27022L102.958 7.9961Z" fill="#D9DADA"/>
<path d="M103.932 8.41004L103.808 8.69873L104.446 8.97285L104.57 8.68416L103.932 8.41004Z" fill="#D9DADA"/>
<path d="M104.897 8.83375L104.773 9.12244L105.411 9.39656L105.535 9.10787L104.897 8.83375Z" fill="#D9DADA"/>
<path d="M105.871 9.25257L105.747 9.54126L106.385 9.81538L106.509 9.52669L105.871 9.25257Z" fill="#D9DADA"/>
<path d="M106.84 9.67786L106.716 9.96655L107.354 10.2407L107.478 9.95199L106.84 9.67786Z" fill="#D9DADA"/>
<path d="M107.827 10.1021L107.703 10.3907L108.341 10.6649L108.465 10.3762L107.827 10.1021Z" fill="#D9DADA"/>
<path d="M108.799 10.506L108.675 10.7947L109.313 11.0688L109.437 10.7801L108.799 10.506Z" fill="#D9DADA"/>
<path d="M109.777 10.9216L109.653 11.2103L110.291 11.4844L110.415 11.1957L109.777 10.9216Z" fill="#D9DADA"/>
<path d="M110.748 11.3414L110.624 11.6301L111.262 11.9043L111.386 11.6156L110.748 11.3414Z" fill="#D9DADA"/>
<path d="M111.722 11.7554L111.598 12.0441L112.236 12.3183L112.36 12.0296L111.722 11.7554Z" fill="#D9DADA"/>
<path d="M112.688 12.1791L112.564 12.4678L113.202 12.742L113.326 12.4533L112.688 12.1791Z" fill="#D9DADA"/>
<path d="M71.2943 29.09H70.9801V29.7845H71.2943V29.09Z" fill="#D9DADA"/>
<path d="M71.2843 30.15H70.9701V30.8445H71.2843V30.15Z" fill="#D9DADA"/>
<path d="M71.2843 31.23H70.9701V31.9245H71.2843V31.23Z" fill="#D9DADA"/>
<path d="M71.2943 32.28H70.9801V32.9745H71.2943V32.28Z" fill="#D9DADA"/>
<path d="M71.2943 33.34H70.9801V34.0345H71.2943V33.34Z" fill="#D9DADA"/>
<path d="M71.2943 34.4H70.9801V35.0945H71.2943V34.4Z" fill="#D9DADA"/>
<path d="M71.3043 35.46H70.9901V36.1545H71.3043V35.46Z" fill="#D9DADA"/>
<path d="M71.2943 36.51H70.9801V37.2045H71.2943V36.51Z" fill="#D9DADA"/>
<path d="M71.2943 37.57H70.9801V38.2645H71.2943V37.57Z" fill="#D9DADA"/>
<path d="M71.2843 38.63H70.9701V39.3245H71.2843V38.63Z" fill="#D9DADA"/>
<path d="M71.2843 39.71H70.9701V40.4045H71.2843V39.71Z" fill="#D9DADA"/>
<path d="M71.2943 40.76H70.9801V41.4545H71.2943V40.76Z" fill="#D9DADA"/>
<path d="M71.2943 41.82H70.9801V42.5145H71.2943V41.82Z" fill="#D9DADA"/>
<path d="M71.2943 42.88H70.9801V43.5745H71.2943V42.88Z" fill="#D9DADA"/>
<path d="M71.3043 43.94H70.9901V44.6345H71.3043V43.94Z" fill="#D9DADA"/>
<path d="M71.2943 44.99H70.9801V45.6845H71.2943V44.99Z" fill="#D9DADA"/>
<path d="M68.1243 11.33H67.8101V12.0245H68.1243V11.33Z" fill="#D9DADA"/>
<path d="M68.1142 12.38H67.8V13.0745H68.1142V12.38Z" fill="#D9DADA"/>
<path d="M68.1142 13.46H67.8V14.1545H68.1142V13.46Z" fill="#D9DADA"/>
<path d="M68.1243 14.51H67.8101V15.2045H68.1243V14.51Z" fill="#D9DADA"/>
<path d="M68.1343 15.57H67.8201V16.2645H68.1343V15.57Z" fill="#D9DADA"/>
<path d="M68.1343 16.63H67.8201V17.3245H68.1343V16.63Z" fill="#D9DADA"/>
<path d="M68.1343 17.69H67.8201V18.3845H68.1343V17.69Z" fill="#D9DADA"/>
<path d="M68.1243 18.74H67.8101V19.4345H68.1243V18.74Z" fill="#D9DADA"/>
<path d="M68.1243 19.8H67.8101V20.4946H68.1243V19.8Z" fill="#D9DADA"/>
<path d="M68.1142 20.86H67.8V21.5545H68.1142V20.86Z" fill="#D9DADA"/>
<path d="M68.1142 21.9401H67.8V22.6346H68.1142V21.9401Z" fill="#D9DADA"/>
<path d="M68.1343 22.9901H67.8201V23.6846H68.1343V22.9901Z" fill="#D9DADA"/>
<path d="M68.1343 24.05H67.8201V24.7446H68.1343V24.05Z" fill="#D9DADA"/>
<path d="M68.1343 25.11H67.8201V25.8045H68.1343V25.11Z" fill="#D9DADA"/>
<path d="M68.1343 26.17H67.8201V26.8645H68.1343V26.17Z" fill="#D9DADA"/>
<path d="M68.1243 27.22H67.8101V27.9145H68.1243V27.22Z" fill="#D9DADA"/>
<path d="M83.542 3.85676L83.418 4.14545L84.0561 4.41957L84.1801 4.13088L83.542 3.85676Z" fill="#D9DADA"/>
<path d="M84.5111 4.28205L84.3871 4.57074L85.0252 4.84486L85.1492 4.55617L84.5111 4.28205Z" fill="#D9DADA"/>
<path d="M85.4985 4.70624L85.3745 4.99493L86.0126 5.26906L86.1366 4.98037L85.4985 4.70624Z" fill="#D9DADA"/>
<path d="M86.4703 5.11018L86.3463 5.39886L86.9844 5.67299L87.1084 5.3843L86.4703 5.11018Z" fill="#D9DADA"/>
<path d="M87.4481 5.52576L87.3241 5.81445L87.9622 6.08858L88.0862 5.79989L87.4481 5.52576Z" fill="#D9DADA"/>
<path d="M88.4197 5.94569L88.2957 6.23438L88.9338 6.5085L89.0578 6.21981L88.4197 5.94569Z" fill="#D9DADA"/>
<path d="M89.3938 6.35963L89.2698 6.64832L89.9079 6.92244L90.0319 6.63375L89.3938 6.35963Z" fill="#D9DADA"/>
<path d="M90.3591 6.78333L90.2351 7.07202L90.8732 7.34614L90.9972 7.05746L90.3591 6.78333Z" fill="#D9DADA"/>
<path d="M91.3324 7.20216L91.2084 7.49084L91.8465 7.76497L91.9705 7.47628L91.3324 7.20216Z" fill="#D9DADA"/>
<path d="M92.3016 7.62745L92.1776 7.91614L92.8157 8.19026L92.9397 7.90157L92.3016 7.62745Z" fill="#D9DADA"/>
<path d="M93.2891 8.05164L93.165 8.34033L93.8032 8.61446L93.9272 8.32577L93.2891 8.05164Z" fill="#D9DADA"/>
<path d="M94.2607 8.45557L94.1367 8.74426L94.7748 9.01839L94.8988 8.7297L94.2607 8.45557Z" fill="#D9DADA"/>
<path d="M95.2386 8.87116L95.1146 9.15985L95.7527 9.43397L95.8768 9.14529L95.2386 8.87116Z" fill="#D9DADA"/>
<path d="M96.2102 9.29108L96.0862 9.57977L96.7243 9.8539L96.8483 9.56521L96.2102 9.29108Z" fill="#D9DADA"/>
<path d="M97.1841 9.70509L97.0601 9.99377L97.6982 10.2679L97.8222 9.97921L97.1841 9.70509Z" fill="#D9DADA"/>
<path d="M98.1501 10.1287L98.0261 10.4174L98.6642 10.6915L98.7883 10.4029L98.1501 10.1287Z" fill="#D9DADA"/>
<path d="M58.1483 19.3817L58.0243 19.6703L58.6624 19.9445L58.7864 19.6558L58.1483 19.3817Z" fill="#D9DADA"/>
<path d="M59.1174 19.807L58.9934 20.0956L59.6315 20.3698L59.7555 20.0811L59.1174 19.807Z" fill="#D9DADA"/>
<path d="M60.1049 20.2311L59.9808 20.5198L60.6189 20.794L60.743 20.5053L60.1049 20.2311Z" fill="#D9DADA"/>
<path d="M61.0767 20.6351L60.9526 20.9238L61.5907 21.1979L61.7148 20.9092L61.0767 20.6351Z" fill="#D9DADA"/>
<path d="M62.0544 21.0507L61.9304 21.3394L62.5685 21.6135L62.6925 21.3248L62.0544 21.0507Z" fill="#D9DADA"/>
<path d="M63.026 21.4706L62.902 21.7593L63.5401 22.0334L63.6641 21.7447L63.026 21.4706Z" fill="#D9DADA"/>
<path d="M64.0001 21.8846L63.8761 22.1733L64.5142 22.4474L64.6382 22.1587L64.0001 21.8846Z" fill="#D9DADA"/>
<path d="M64.9654 22.3083L64.8414 22.597L65.4795 22.8711L65.6036 22.5824L64.9654 22.3083Z" fill="#D9DADA"/>
<path d="M65.9387 22.7271L65.8147 23.0157L66.4528 23.2899L66.5768 23.0012L65.9387 22.7271Z" fill="#D9DADA"/>
<path d="M66.908 23.1524L66.7839 23.441L67.422 23.7152L67.5461 23.4265L66.908 23.1524Z" fill="#D9DADA"/>
<path d="M67.8954 23.5765L67.7714 23.8652L68.4095 24.1394L68.5335 23.8507L67.8954 23.5765Z" fill="#D9DADA"/>
<path d="M68.8671 23.9805L68.743 24.2692L69.3812 24.5433L69.5052 24.2546L68.8671 23.9805Z" fill="#D9DADA"/>
<path d="M69.845 24.3961L69.7209 24.6848L70.3591 24.9589L70.4831 24.6702L69.845 24.3961Z" fill="#D9DADA"/>
<path d="M70.8165 24.8159L70.6925 25.1046L71.3306 25.3787L71.4546 25.09L70.8165 24.8159Z" fill="#D9DADA"/>
<path d="M71.7906 25.23L71.6666 25.5187L72.3047 25.7928L72.4288 25.5041L71.7906 25.23Z" fill="#D9DADA"/>
<path d="M72.756 25.6536L72.632 25.9423L73.2701 26.2164L73.3941 25.9278L72.756 25.6536Z" fill="#D9DADA"/>
<path d="M72.2535 52.2961L72.1278 52.584L72.7643 52.8619L72.89 52.5739L72.2535 52.2961Z" fill="#D9DADA"/>
<path d="M73.2201 52.7261L73.0944 53.014L73.7309 53.2919L73.8566 53.0039L73.2201 52.7261Z" fill="#D9DADA"/>
<path d="M74.2052 53.1561L74.0795 53.444L74.716 53.7219L74.8417 53.4339L74.2052 53.1561Z" fill="#D9DADA"/>
<path d="M75.1745 53.5661L75.0488 53.8541L75.6853 54.1319L75.811 53.8439L75.1745 53.5661Z" fill="#D9DADA"/>
<path d="M76.1499 53.9871L76.0242 54.275L76.6607 54.5529L76.7864 54.2649L76.1499 53.9871Z" fill="#D9DADA"/>
<path d="M77.119 54.4131L76.9933 54.701L77.6298 54.9789L77.7555 54.6909L77.119 54.4131Z" fill="#D9DADA"/>
<path d="M78.0907 54.8321L77.965 55.1201L78.6015 55.3979L78.7272 55.1099L78.0907 54.8321Z" fill="#D9DADA"/>
<path d="M79.0536 55.2621L78.9279 55.55L79.5644 55.8279L79.6901 55.5399L79.0536 55.2621Z" fill="#D9DADA"/>
<path d="M80.0244 55.6861L79.8987 55.9741L80.5352 56.2519L80.6609 55.9639L80.0244 55.6861Z" fill="#D9DADA"/>
<path d="M80.9909 56.1171L80.8652 56.405L81.5017 56.6829L81.6274 56.3949L80.9909 56.1171Z" fill="#D9DADA"/>
<path d="M81.976 56.5471L81.8503 56.835L82.4868 57.1129L82.6125 56.8249L81.976 56.5471Z" fill="#D9DADA"/>
<path d="M82.9453 56.9571L82.8196 57.2451L83.4561 57.5229L83.5818 57.2349L82.9453 56.9571Z" fill="#D9DADA"/>
<path d="M83.9207 57.3781L83.795 57.6661L84.4315 57.9439L84.5572 57.6559L83.9207 57.3781Z" fill="#D9DADA"/>
<path d="M84.8899 57.8031L84.7642 58.0911L85.4007 58.3689L85.5264 58.0809L84.8899 57.8031Z" fill="#D9DADA"/>
<path d="M85.8615 58.2231L85.7358 58.511L86.3723 58.7889L86.498 58.5009L85.8615 58.2231Z" fill="#D9DADA"/>
<path d="M86.8244 58.6521L86.6987 58.9401L87.3352 59.2179L87.4609 58.9299L86.8244 58.6521Z" fill="#D9DADA"/>
<path d="M56.7722 45.543L56.6465 45.831L57.283 46.1088L57.4087 45.8209L56.7722 45.543Z" fill="#D9DADA"/>
<path d="M57.7387 45.9741L57.613 46.262L58.2495 46.5399L58.3752 46.2519L57.7387 45.9741Z" fill="#D9DADA"/>
<path d="M58.7238 46.4041L58.5981 46.692L59.2346 46.9698L59.3603 46.6819L58.7238 46.4041Z" fill="#D9DADA"/>
<path d="M59.6932 46.8131L59.5675 47.101L60.204 47.3788L60.3297 47.0909L59.6932 46.8131Z" fill="#D9DADA"/>
<path d="M60.6685 47.234L60.5428 47.522L61.1794 47.7998L61.305 47.5118L60.6685 47.234Z" fill="#D9DADA"/>
<path d="M61.6377 47.66L61.512 47.948L62.1485 48.2258L62.2742 47.9379L61.6377 47.66Z" fill="#D9DADA"/>
<path d="M62.6093 48.08L62.4836 48.368L63.1201 48.6458L63.2458 48.3579L62.6093 48.08Z" fill="#D9DADA"/>
<path d="M63.5722 48.509L63.4465 48.797L64.083 49.0748L64.2087 48.7869L63.5722 48.509Z" fill="#D9DADA"/>
<path d="M64.5431 48.933L64.4174 49.221L65.0539 49.4988L65.1796 49.2109L64.5431 48.933Z" fill="#D9DADA"/>
<path d="M65.5096 49.364L65.3839 49.652L66.0204 49.9298L66.1461 49.6418L65.5096 49.364Z" fill="#D9DADA"/>
<path d="M66.4947 49.7941L66.369 50.082L67.0055 50.3599L67.1312 50.0719L66.4947 49.7941Z" fill="#D9DADA"/>
<path d="M67.464 50.204L67.3383 50.492L67.9748 50.7698L68.1005 50.4819L67.464 50.204Z" fill="#D9DADA"/>
<path d="M68.4394 50.6251L68.3137 50.913L68.9502 51.1909L69.0759 50.9029L68.4394 50.6251Z" fill="#D9DADA"/>
<path d="M69.4085 51.051L69.2828 51.339L69.9193 51.6168L70.045 51.3289L69.4085 51.051Z" fill="#D9DADA"/>
<path d="M70.3802 51.47L70.2545 51.758L70.891 52.0358L71.0167 51.7479L70.3802 51.47Z" fill="#D9DADA"/>
<path d="M71.3431 51.9L71.2174 52.188L71.8539 52.4658L71.9796 52.1779L71.3431 51.9Z" fill="#D9DADA"/>
<path d="M56.3527 45.8667L56.4598 46.162L55.8069 46.3988L55.6998 46.1034L56.3527 45.8667Z" fill="#D9DADA"/>
<path d="M55.3607 46.2356L55.4678 46.531L54.8149 46.7678L54.7078 46.4724L55.3607 46.2356Z" fill="#D9DADA"/>
<path d="M54.3503 46.6017L54.4574 46.897L53.8045 47.1338L53.6974 46.8384L54.3503 46.6017Z" fill="#D9DADA"/>
<path d="M53.3569 46.9486L53.464 47.244L52.8111 47.4808L52.704 47.1854L53.3569 46.9486Z" fill="#D9DADA"/>
<path d="M52.3565 47.3076L52.4636 47.603L51.8107 47.8398L51.7036 47.5444L52.3565 47.3076Z" fill="#D9DADA"/>
<path d="M51.3624 47.6706L51.4695 47.966L50.8166 48.2028L50.7095 47.9074L51.3624 47.6706Z" fill="#D9DADA"/>
<path d="M50.3659 48.0276L50.473 48.323L49.8201 48.5597L49.713 48.2644L50.3659 48.0276Z" fill="#D9DADA"/>
<path d="M49.3778 48.3946L49.4849 48.69L48.832 48.9268L48.7249 48.6314L49.3778 48.3946Z" fill="#D9DADA"/>
<path d="M48.3818 48.7567L48.4889 49.0521L47.836 49.2888L47.7289 48.9934L48.3818 48.7567Z" fill="#D9DADA"/>
<path d="M47.3897 49.1247L47.4968 49.42L46.8439 49.6568L46.7368 49.3614L47.3897 49.1247Z" fill="#D9DADA"/>
<path d="M46.3793 49.4906L46.4865 49.786L45.8335 50.0228L45.7264 49.7274L46.3793 49.4906Z" fill="#D9DADA"/>
<path d="M45.3859 49.8377L45.493 50.1331L44.8401 50.3698L44.733 50.0744L45.3859 49.8377Z" fill="#D9DADA"/>
<path d="M44.3856 50.1967L44.4927 50.4921L43.8398 50.7288L43.7327 50.4334L44.3856 50.1967Z" fill="#D9DADA"/>
<path d="M43.3914 50.5597L43.4985 50.855L42.8456 51.0918L42.7385 50.7964L43.3914 50.5597Z" fill="#D9DADA"/>
<path d="M42.395 50.9167L42.5021 51.212L41.8492 51.4488L41.7421 51.1534L42.395 50.9167Z" fill="#D9DADA"/>
<path d="M41.4068 51.2837L41.5139 51.579L40.861 51.8158L40.7539 51.5204L41.4068 51.2837Z" fill="#D9DADA"/>
<path fill-rule="evenodd" clip-rule="evenodd" d="M36.03 47.31C35.55 45.3 43.78 44.46 44.07 47.78C44.22 49.51 44.63 50.85 45.04 51.64C45.66 52.84 46.52 52.94 46.8 53.86C47.97 57.75 43.4 56.97 45.36 61.45C45.93 62.75 39.3 65.34 36.21 60.62C34.3 57.72 38.76 56.97 38.55 53.75C38.49 52.84 37.77 51.77 36.77 50.34C36.27 49.63 36.01 47.82 36.03 47.31Z" fill="black"/>
<path d="M72.6252 38.9711L72.4995 39.259L73.136 39.5369L73.2617 39.2489L72.6252 38.9711Z" fill="#D9DADA"/>
<path d="M73.5918 39.4011L73.4661 39.689L74.1026 39.9669L74.2283 39.6789L73.5918 39.4011Z" fill="#D9DADA"/>
<path d="M74.5769 39.8311L74.4512 40.119L75.0877 40.3969L75.2134 40.1089L74.5769 39.8311Z" fill="#D9DADA"/>
<path d="M75.5462 40.2411L75.4205 40.5291L76.057 40.8069L76.1827 40.5189L75.5462 40.2411Z" fill="#D9DADA"/>
<path d="M76.5216 40.662L76.3959 40.95L77.0324 41.2278L77.1581 40.9399L76.5216 40.662Z" fill="#D9DADA"/>
<path d="M77.4907 41.0881L77.365 41.376L78.0015 41.6539L78.1272 41.3659L77.4907 41.0881Z" fill="#D9DADA"/>
<path d="M78.4624 41.5071L78.3367 41.795L78.9732 42.0729L79.0989 41.7849L78.4624 41.5071Z" fill="#D9DADA"/>
<path d="M79.4253 41.9371L79.2996 42.225L79.9361 42.5029L80.0618 42.2149L79.4253 41.9371Z" fill="#D9DADA"/>
<path d="M80.3961 42.3611L80.2704 42.649L80.9069 42.9269L81.0326 42.6389L80.3961 42.3611Z" fill="#D9DADA"/>
<path d="M81.3626 42.7921L81.2369 43.08L81.8734 43.3579L81.9991 43.0699L81.3626 42.7921Z" fill="#D9DADA"/>
<path d="M82.3476 43.2221L82.2219 43.5101L82.8584 43.7879L82.9841 43.4999L82.3476 43.2221Z" fill="#D9DADA"/>
<path d="M83.317 43.6321L83.1913 43.92L83.8278 44.1979L83.9535 43.9099L83.317 43.6321Z" fill="#D9DADA"/>
<path d="M84.2924 44.0531L84.1667 44.3411L84.8033 44.6189L84.9289 44.3309L84.2924 44.0531Z" fill="#D9DADA"/>
<path d="M85.2616 44.4781L85.1359 44.7661L85.7724 45.0439L85.8981 44.7559L85.2616 44.4781Z" fill="#D9DADA"/>
<path d="M86.2331 44.8981L86.1074 45.186L86.7439 45.4639L86.8696 45.1759L86.2331 44.8981Z" fill="#D9DADA"/>
<path d="M87.1961 45.3271L87.0704 45.6151L87.7069 45.8929L87.8326 45.6049L87.1961 45.3271Z" fill="#D9DADA"/>
<path d="M57.0643 32.2059L56.9386 32.4939L57.5751 32.7717L57.7008 32.4838L57.0643 32.2059Z" fill="#D9DADA"/>
<path d="M58.0308 32.6368L57.9052 32.9248L58.5417 33.2026L58.6674 32.9147L58.0308 32.6368Z" fill="#D9DADA"/>
<path d="M59.016 33.0668L58.8903 33.3548L59.5268 33.6326L59.6525 33.3447L59.016 33.0668Z" fill="#D9DADA"/>
<path d="M59.9853 33.4764L59.8596 33.7644L60.4961 34.0422L60.6218 33.7543L59.9853 33.4764Z" fill="#D9DADA"/>
<path d="M60.9607 33.8978L60.835 34.1857L61.4715 34.4636L61.5972 34.1756L60.9607 33.8978Z" fill="#D9DADA"/>
<path d="M61.9298 34.3232L61.8041 34.6112L62.4406 34.889L62.5663 34.6011L61.9298 34.3232Z" fill="#D9DADA"/>
<path d="M62.9015 34.7429L62.7758 35.0308L63.4123 35.3087L63.538 35.0207L62.9015 34.7429Z" fill="#D9DADA"/>
<path d="M63.8643 35.1722L63.7386 35.4602L64.3752 35.738L64.5008 35.4501L63.8643 35.1722Z" fill="#D9DADA"/>
<path d="M64.8352 35.5966L64.7095 35.8846L65.346 36.1624L65.4717 35.8745L64.8352 35.5966Z" fill="#D9DADA"/>
<path d="M65.8017 36.0275L65.676 36.3155L66.3125 36.5933L66.4382 36.3054L65.8017 36.0275Z" fill="#D9DADA"/>
<path d="M66.7868 36.4575L66.6611 36.7455L67.2976 37.0233L67.4233 36.7354L66.7868 36.4575Z" fill="#D9DADA"/>
<path d="M67.7561 36.867L67.6304 37.155L68.2669 37.4328L68.3926 37.1448L67.7561 36.867Z" fill="#D9DADA"/>
<path d="M68.7315 37.2883L68.6058 37.5763L69.2423 37.8541L69.368 37.5662L68.7315 37.2883Z" fill="#D9DADA"/>
<path d="M69.7006 37.7138L69.575 38.0018L70.2115 38.2796L70.3372 37.9916L69.7006 37.7138Z" fill="#D9DADA"/>
<path d="M70.6723 38.1335L70.5466 38.4215L71.1831 38.6993L71.3088 38.4114L70.6723 38.1335Z" fill="#D9DADA"/>
<path d="M71.6352 38.5628L71.5095 38.8508L72.146 39.1286L72.2717 38.8406L71.6352 38.5628Z" fill="#D9DADA"/>
<path d="M22.7807 25.7354L22.8868 26.0311L22.2332 26.2658L22.127 25.9701L22.7807 25.7354Z" fill="#D9DADA"/>
<path d="M21.7874 26.1008L21.8936 26.3965L21.2399 26.6313L21.1337 26.3355L21.7874 26.1008Z" fill="#D9DADA"/>
<path d="M20.7759 26.464L20.8821 26.7597L20.2284 26.9944L20.1223 26.6987L20.7759 26.464Z" fill="#D9DADA"/>
<path d="M19.7814 26.808L19.8876 27.1037L19.2339 27.3384L19.1277 27.0427L19.7814 26.808Z" fill="#D9DADA"/>
<path d="M18.78 27.1632L18.8862 27.4589L18.2326 27.6936L18.1264 27.3979L18.78 27.1632Z" fill="#D9DADA"/>
<path d="M17.7847 27.5231L17.8909 27.8188L17.2372 28.0536L17.131 27.7579L17.7847 27.5231Z" fill="#D9DADA"/>
<path d="M16.7872 27.8769L16.8934 28.1726L16.2398 28.4073L16.1336 28.1116L16.7872 27.8769Z" fill="#D9DADA"/>
<path d="M15.7977 28.241L15.9039 28.5367L15.2503 28.7715L15.1441 28.4757L15.7977 28.241Z" fill="#D9DADA"/>
<path d="M14.8008 28.5997L14.907 28.8954L14.2533 29.1302L14.1472 28.8345L14.8008 28.5997Z" fill="#D9DADA"/>
<path d="M13.8075 28.9652L13.9137 29.2609L13.2601 29.4956L13.1539 29.1999L13.8075 28.9652Z" fill="#D9DADA"/>
<path d="M12.7959 29.3283L12.9021 29.624L12.2485 29.8587L12.1423 29.563L12.7959 29.3283Z" fill="#D9DADA"/>
<path d="M11.8015 29.6722L11.9077 29.968L11.2541 30.2027L11.1479 29.907L11.8015 29.6722Z" fill="#D9DADA"/>
<path d="M10.8002 30.0275L10.9064 30.3232L10.2527 30.558L10.1465 30.2622L10.8002 30.0275Z" fill="#D9DADA"/>
<path d="M9.8047 30.3873L9.91089 30.683L9.25725 30.9178L9.15107 30.622L9.8047 30.3873Z" fill="#D9DADA"/>
<path d="M8.80726 30.7412L8.91345 31.0369L8.25982 31.2716L8.15363 30.9759L8.80726 30.7412Z" fill="#D9DADA"/>
<path d="M7.81788 31.1053L7.92407 31.4011L7.27044 31.6358L7.16425 31.3401L7.81788 31.1053Z" fill="#D9DADA"/>
<path fill-rule="evenodd" clip-rule="evenodd" d="M3.24011 25.93L10.0201 23.51L9.96011 34.18L3.41011 36.87L3.24011 25.93Z" fill="#B6E3FA"/>
<path d="M4.56006 27.01L9.21006 25.12V25.72L4.57006 27.58L4.56006 27.01Z" fill="#FEFEFE"/>
<path d="M4.56006 28.29L9.21006 26.4L9.22006 26.95L4.56006 28.86V28.29Z" fill="#FEFEFE"/>
<path d="M4.58008 29.6L9.22008 27.72L9.21008 28.29L4.58008 30.22V29.6Z" fill="#FEFEFE"/>
<path d="M4.56006 31.27L9.20006 29.21L9.22006 29.84L4.57006 31.9L4.56006 31.27Z" fill="#FEFEFE"/>
<path d="M4.58008 32.68L9.22008 30.78L9.20008 31.35L4.58008 33.31V32.68Z" fill="#FEFEFE"/>
<path d="M4.57007 34.17L9.20007 32.18L9.21007 32.78L4.57007 34.77V34.17Z" fill="#FEFEFE"/>
<path d="M21.5043 26.79H21.1901V27.4845H21.5043V26.79Z" fill="#D9DADA"/>
<path d="M21.4943 27.85H21.1801V28.5445H21.4943V27.85Z" fill="#D9DADA"/>
<path d="M21.4943 28.92H21.1801V29.6145H21.4943V28.92Z" fill="#D9DADA"/>
<path d="M21.5043 29.98H21.1901V30.6745H21.5043V29.98Z" fill="#D9DADA"/>
<path d="M21.5043 31.04H21.1901V31.7345H21.5043V31.04Z" fill="#D9DADA"/>
<path d="M21.5043 32.1H21.1901V32.7945H21.5043V32.1Z" fill="#D9DADA"/>
<path d="M21.5143 33.15H21.2001V33.8445H21.5143V33.15Z" fill="#D9DADA"/>
<path d="M21.5043 34.21H21.1901V34.9045H21.5043V34.21Z" fill="#D9DADA"/>
<path d="M21.5043 35.27H21.1901V35.9645H21.5043V35.27Z" fill="#D9DADA"/>
<path d="M21.4943 36.33H21.1801V37.0245H21.4943V36.33Z" fill="#D9DADA"/>
<path d="M21.4943 37.4H21.1801V38.0945H21.4943V37.4Z" fill="#D9DADA"/>
<path d="M21.5043 38.45H21.1901V39.1445H21.5043V38.45Z" fill="#D9DADA"/>
<path d="M21.5043 39.52H21.1901V40.2145H21.5043V39.52Z" fill="#D9DADA"/>
<path d="M21.5043 40.57H21.1901V41.2645H21.5043V40.57Z" fill="#D9DADA"/>
<path d="M21.5143 41.63H21.2001V42.3245H21.5143V41.63Z" fill="#D9DADA"/>
<path d="M21.5043 42.69H21.1901V43.3845H21.5043V42.69Z" fill="#D9DADA"/>
<path d="M36.5642 29.39H36.25V30.0845H36.5642V29.39Z" fill="#D9DADA"/>
<path d="M36.5542 30.45H36.24V31.1445H36.5542V30.45Z" fill="#D9DADA"/>
<path d="M36.5542 31.52H36.24V32.2145H36.5542V31.52Z" fill="#D9DADA"/>
<path d="M36.5642 32.57H36.25V33.2645H36.5642V32.57Z" fill="#D9DADA"/>
<path d="M36.5642 33.64H36.25V34.3345H36.5642V33.64Z" fill="#D9DADA"/>
<path d="M36.5642 34.69H36.25V35.3845H36.5642V34.69Z" fill="#D9DADA"/>
<path d="M36.5742 35.75H36.26V36.4445H36.5742V35.75Z" fill="#D9DADA"/>
<path d="M36.5642 36.81H36.25V37.5045H36.5642V36.81Z" fill="#D9DADA"/>
<path d="M36.5642 37.87H36.25V38.5645H36.5642V37.87Z" fill="#D9DADA"/>
<path d="M36.5542 38.92H36.24V39.6145H36.5542V38.92Z" fill="#D9DADA"/>
<path d="M36.5542 40H36.24V40.6945H36.5542V40Z" fill="#D9DADA"/>
<path d="M36.5642 41.05H36.25V41.7445H36.5642V41.05Z" fill="#D9DADA"/>
<path d="M36.5742 42.11H36.26V42.8045H36.5742V42.11Z" fill="#D9DADA"/>
<path d="M36.5642 43.17H36.25V43.8645H36.5642V43.17Z" fill="#D9DADA"/>
<path d="M36.5742 44.23H36.26V44.9245H36.5742V44.23Z" fill="#D9DADA"/>
<path d="M36.5642 45.28H36.25V45.9745H36.5642V45.28Z" fill="#D9DADA"/>
<path fill-rule="evenodd" clip-rule="evenodd" d="M64.11 0.960022L72.37 4.45002L72.36 13.34L64.12 9.82002L64.11 0.960022Z" fill="#FEFEFE"/>
<path d="M64.08 0.860027L72.34 4.35003L72.36 4.36003V4.39003L72.35 13.28V13.34L72.3 13.32L64.06 9.79003L64.03 9.78003V9.75003V0.900027V0.840027L64.08 0.860027ZM72.28 4.41003L64.11 0.960027V9.73003L72.27 13.22L72.28 4.41003Z" fill="#EBECEC"/>
<path d="M66.3501 9.61C65.1701 8.84 64.7901 7.96 64.8601 7.22C64.9001 6.84 65.0601 6.49 65.3001 6.22C65.5401 5.94 65.8501 5.74 66.1901 5.65C66.3901 5.59 66.6001 5.57 66.8101 5.59C66.7701 5.46 66.7401 5.32 66.7401 5.17C66.7301 4.82 66.8201 4.54 66.9801 4.33C67.1701 4.1 67.4401 3.96 67.7501 3.9C68.0401 3.85 68.3601 3.87 68.6801 3.95C69.2501 4.09 69.8201 4.43 70.1601 4.91C70.5701 5.49 70.3301 6.33 70.1001 6.88C70.5401 6.77 70.9001 6.84 71.1701 7C71.3501 7.12 71.4901 7.28 71.5801 7.47C71.6701 7.65 71.7101 7.86 71.7101 8.08C71.7001 8.64 71.3701 9.26 70.6901 9.66C70.5901 9.71 69.9201 9.72 69.1401 9.72C67.9401 9.7 66.3901 9.64 66.3501 9.61ZM65.3601 7.27C65.3001 7.84 65.6301 8.54 66.6201 9.19L69.1401 9.22C69.8501 9.23 70.4301 9.23 70.4401 9.23C70.9601 8.93 71.2001 8.47 71.2101 8.07C71.2101 7.93 71.1901 7.8 71.1301 7.68C71.0801 7.58 71.0101 7.49 70.9101 7.43C70.6601 7.28 70.2701 7.28 69.7301 7.55H69.7201C69.5701 7.62 69.4701 7.58 69.4001 7.44C69.3301 7.31 69.3801 7.24 69.4401 7.1C69.6101 6.78 70.1401 5.74 69.7501 5.19C69.4901 4.82 69.0301 4.55 68.5601 4.43C68.3101 4.37 68.0601 4.35 67.8401 4.39C67.6501 4.43 67.4801 4.51 67.3801 4.64C67.2801 4.76 67.2301 4.93 67.2401 5.16C67.2501 5.45 67.4001 5.68 67.5701 5.85C67.7201 5.96 67.8701 6.09 68.0101 6.27L67.6301 6.58C67.6001 6.55 67.5401 6.5 67.4801 6.45C67.4101 6.39 67.3301 6.32 67.2601 6.25C66.9601 6.07 66.6301 6.04 66.3301 6.13C66.0801 6.2 65.8501 6.34 65.6801 6.54C65.5001 6.74 65.3901 6.99 65.3601 7.27Z" fill="#609BC5"/>
<path fill-rule="evenodd" clip-rule="evenodd" d="M91.5699 1.32001L99.8199 4.81001L99.8099 13.7L91.5699 10.17V1.32001Z" fill="#FEFEFE"/>
<path d="M91.54 1.22001L99.79 4.71001L99.82 4.72001V4.75001L99.81 13.64V13.69L99.76 13.67L91.51 10.15L91.49 10.14V10.11V1.25001V1.20001L91.54 1.22001ZM99.74 4.77001L91.57 1.31001V10.09L99.73 13.58L99.74 4.77001Z" fill="#EBECEC"/>
<path fill-rule="evenodd" clip-rule="evenodd" d="M93.7101 3.63L97.7501 5.4L97.8001 11.39L93.6001 9.53L93.7101 3.63Z" fill="#4387F6"/>
<path fill-rule="evenodd" clip-rule="evenodd" d="M111.35 6.84003L119.6 10.33L119.59 19.23L111.35 15.7V6.84003Z" fill="#FEFEFE"/>
<path d="M111.32 6.74003L119.57 10.24L119.6 10.25V10.27L119.59 19.16V19.22L119.53 19.2L111.29 15.67L111.27 15.66V15.64V6.78003V6.72003L111.32 6.74003ZM119.52 10.3L111.34 6.84003L111.35 15.61L119.51 19.1L119.52 10.3Z" fill="#EBECEC"/>
<path fill-rule="evenodd" clip-rule="evenodd" d="M112.64 10.12L116.18 9.92004L118.43 12.86L114.53 13.09L112.64 10.12Z" fill="#FDBC00"/>
<path fill-rule="evenodd" clip-rule="evenodd" d="M112.54 13.21L114.53 13.08L112.64 10.11L112.54 13.21Z" fill="#C53036"/>
<path fill-rule="evenodd" clip-rule="evenodd" d="M118.38 16.07L114.43 16.2L114.5 13.09L118.4 12.86L118.38 16.07Z" fill="#22B2F8"/>
<path fill-rule="evenodd" clip-rule="evenodd" d="M129.43 12.57L137.68 16.06L137.67 24.95L129.43 21.43V12.57Z" fill="#FEFEFE"/>
<path d="M129.4 12.47L137.65 15.97L137.67 15.98V16L137.66 24.89V24.95L137.61 24.93L129.37 21.4L129.35 21.39V21.36L129.34 12.51V12.45L129.4 12.47ZM137.6 16.03L129.42 12.57V21.34L137.59 24.83L137.6 16.03Z" fill="#EBECEC"/>
<path d="M134.422 15.39H133.43V18.2342H134.422V15.39Z" fill="#43AF7E"/>
<path d="M135.85 16.94H134.43V18.23H135.85V16.94Z" fill="#43AF7E"/>
<path d="M133.09 15.25H132V16.67H133.09V15.25Z" fill="#41C0E3"/>
<path d="M133.03 17.2H130.81V18.23H133.03V17.2Z" fill="#41C0E3"/>
<path d="M133.43 18.6H132.24V21.64H133.43V18.6Z" fill="#C42F59"/>
<path d="M135.86 18.59H133.71V19.62H135.86V18.59Z" fill="#E5B43E"/>
<path d="M131.92 18.59H130.86V19.78H131.92V18.59Z" fill="#C42F59"/>
<path d="M134.938 20.38H133.78V21.3391H134.938V20.38Z" fill="#E5B43E"/>
<path fill-rule="evenodd" clip-rule="evenodd" d="M144.56 20.64L152.81 24.13L152.8 33.02L144.56 29.49V20.64Z" fill="#FEFEFE"/>
<path d="M144.53 20.54L152.78 24.03L152.8 24.04V24.07L152.79 32.96V33.01L152.74 32.99L144.5 29.47L144.48 29.46V29.43L144.47 20.57V20.52L144.53 20.54ZM152.73 24.09L144.55 20.63V29.41L152.72 32.9L152.73 24.09Z" fill="#EBECEC"/>
<path d="M148.52 25.72C148.945 25.72 149.29 25.1425 149.29 24.43C149.29 23.7176 148.945 23.14 148.52 23.14C148.095 23.14 147.75 23.7176 147.75 24.43C147.75 25.1425 148.095 25.72 148.52 25.72Z" fill="#AFD149"/>
<path d="M150.42 28.74C150.939 28.74 151.36 28.0013 151.36 27.09C151.36 26.1787 150.939 25.44 150.42 25.44C149.901 25.44 149.48 26.1787 149.48 27.09C149.48 28.0013 149.901 28.74 150.42 28.74Z" fill="#86B640"/>
<path d="M146.83 28.97C147.349 28.97 147.77 28.2582 147.77 27.38C147.77 26.5019 147.349 25.79 146.83 25.79C146.311 25.79 145.89 26.5019 145.89 27.38C145.89 28.2582 146.311 28.97 146.83 28.97Z" fill="#90D6E2"/>
<path fill-rule="evenodd" clip-rule="evenodd" d="M156.74 28.5L164.99 31.99L164.98 40.88L156.74 37.35V28.5Z" fill="#FEFEFE"/>
<path d="M156.71 28.4L164.96 31.89L164.98 31.9V31.93L164.97 40.82V40.87L164.92 40.85L156.68 37.33L156.66 37.32V37.29V28.43V28.38L156.71 28.4ZM164.91 31.95L156.73 28.49V37.27L164.9 40.76L164.91 31.95Z" fill="#EBECEC"/>
<path d="M160.86 35.86C161.241 35.86 161.55 35.3362 161.55 34.69C161.55 34.0438 161.241 33.52 160.86 33.52C160.479 33.52 160.17 34.0438 160.17 34.69C160.17 35.3362 160.479 35.86 160.86 35.86Z" fill="#89B0E9"/>
<path d="M160.9 31.33C161.54 31.33 162.11 31.72 162.52 32.35L162.54 32.39L162.06 32.56L161.95 32.39C161.65 32.03 161.29 31.82 160.9 31.82C160.44 31.82 160.01 32.12 159.69 32.61C159.35 33.13 159.15 33.86 159.15 34.67C159.15 35.47 159.35 36.2 159.69 36.72C160.01 37.22 160.44 37.52 160.9 37.52C161.36 37.52 161.79 37.22 162.11 36.72C162.43 36.23 162.63 35.56 162.65 34.8L163.14 34.77C163.12 35.62 162.89 36.42 162.52 36.99C162.11 37.62 161.54 38.01 160.9 38.01C160.26 38.01 159.69 37.62 159.28 36.99C158.9 36.39 158.66 35.57 158.66 34.67C158.66 33.77 158.9 32.94 159.28 32.35C159.69 31.72 160.26 31.33 160.9 31.33Z" fill="#3F77CC"/>
<path fill-rule="evenodd" clip-rule="evenodd" d="M162.69 32.67L161.24 33.66L161.56 34.31L163.09 33.29L162.69 32.67Z" fill="#3F77CC"/>
<path fill-rule="evenodd" clip-rule="evenodd" d="M56.5699 28.5L64.8199 31.99L64.8099 40.88L56.5699 37.36V28.5Z" fill="#FEFEFE"/>
<path d="M56.54 28.4L64.79 31.89L64.82 31.9V31.93L64.81 40.82V40.88L64.75 40.85L56.51 37.33L56.49 37.32V37.29V28.44V28.38L56.54 28.4ZM64.74 31.95L56.56 28.49L56.57 37.27L64.73 40.76L64.74 31.95Z" fill="#EBECEC"/>
<path fill-rule="evenodd" clip-rule="evenodd" d="M50.99 11.83L59.24 15.32L59.23 24.21L50.99 20.68V11.83Z" fill="#FEFEFE"/>
<path d="M50.96 11.73L59.21 15.22L59.23 15.23V15.26L59.22 24.15V24.2L59.17 24.18L50.93 20.65L50.91 20.64V20.62L50.9 11.76V11.71L50.96 11.73ZM59.16 15.28L50.98 11.82V20.59L59.15 24.09L59.16 15.28Z" fill="#EBECEC"/>
<path fill-rule="evenodd" clip-rule="evenodd" d="M52.66 13.33L56.25 14.93L56.23 18.95L52.71 17.35L52.66 13.33Z" fill="#0EABE0"/>
<path fill-rule="evenodd" clip-rule="evenodd" d="M54.37 16.78L57.96 18.38L57.94 22.4L54.42 20.8L54.37 16.78Z" fill="#C6EEF6"/>
<path fill-rule="evenodd" clip-rule="evenodd" d="M57.97 19.97L56.24 19.19L56.27 21.59L57.96 22.36L57.97 19.97Z" fill="#64AFE9"/>
<path d="M59.3301 30.9L62.9001 34.8L63.3901 35.34L62.7201 35.6L58.8501 37.12L58.4901 36.19L61.6801 34.94L58.6001 31.57L59.3301 30.9Z" fill="#185C9D"/>
<path d="M58.8401 32.3L60.4901 34.11L59.7501 34.78L58.1001 32.97L58.8401 32.3Z" fill="#185C9D"/>
<path fill-rule="evenodd" clip-rule="evenodd" d="M67.0601 18.84L75.3201 22.33L75.3101 31.22L67.0701 27.69L67.0601 18.84Z" fill="#FEFEFE"/>
<path d="M67.0301 18.74L75.2901 22.23L75.3101 22.24V22.27L75.3001 31.16V31.21L75.2501 31.19L67.0101 27.66L66.9801 27.65V27.63V18.77V18.72L67.0301 18.74ZM75.2301 22.29L67.0601 18.83V27.6L75.2201 31.1L75.2301 22.29Z" fill="#EBECEC"/>
<path fill-rule="evenodd" clip-rule="evenodd" d="M68.1301 19.8L73.8801 22.31V29.91L68.0901 27.52L68.1301 19.8Z" fill="#FF9300"/>
<path fill-rule="evenodd" clip-rule="evenodd" d="M70.79 24.87L72.83 24.07L72.9 26.3L70.8 27.12L70.79 24.87Z" fill="white"/>
<path fill-rule="evenodd" clip-rule="evenodd" d="M68.6101 23.13L70.6301 24.12V24.92L68.6401 23.92L68.6101 23.13Z" fill="#FFE18F"/>
<path fill-rule="evenodd" clip-rule="evenodd" d="M68.6001 24.22L70.6301 25.21V26.01L68.6401 25.01L68.6001 24.22Z" fill="#FFE18F"/>
<path fill-rule="evenodd" clip-rule="evenodd" d="M68.6101 25.32L70.6301 26.31V27.1L68.6401 26.11L68.6101 25.32Z" fill="#FFE18F"/>
</svg>
