<svg width="267" height="62" viewBox="0 0 267 62" fill="none" xmlns="http://www.w3.org/2000/svg">
<path fill-rule="evenodd" clip-rule="evenodd" d="M63.8697 34.718L54.9023 34.718L54.9023 37.5911C54.9023 37.5911 56.3646 38.5737 57.2883 40.0858C58.212 41.598 58.7506 45 58.7506 45C58.7506 45 60.0976 44.0548 61.8683 43.6391C63.639 43.2234 65.9093 43.4125 65.9093 43.4125C65.9093 43.4125 67.0642 41.9757 69.2576 41.3714C71.4516 40.7665 73.3758 41.1069 73.3758 41.1069C73.3758 41.1069 74.6074 39.5189 77.1088 38.952C79.6107 38.3846 81.2651 38.8008 81.2651 38.8008C81.2651 38.8008 82.9972 37.2886 83.767 36.7217C84.5367 36.1548 87 34.9451 87 34.9451C87 34.9451 85.0372 34.2265 83.8828 33.6595C82.7284 33.0926 80.9963 31.4293 80.9963 31.4293C80.9963 31.4293 79.0721 31.9967 76.8009 31.2401C74.5302 30.4841 73.2218 28.8207 73.2218 28.8207C73.2218 28.8207 71.6051 29.7654 69.0656 29.1232C66.5251 28.4809 65.9479 26.7796 65.9479 26.7796C65.9479 26.7796 64.2549 27.1574 61.9069 26.5525C59.559 25.9482 58.4432 24.7001 58.4432 24.7001C58.4432 24.7001 58.2507 27.4977 57.6348 28.707C57.019 29.9167 55.1716 31.9957 55.1716 31.9957C55.1716 31.9957 57.7116 32.109 59.059 32.2602C60.406 32.4114 61.2525 32.7139 62.0995 33.1675C62.9465 33.6216 63.8697 34.718 63.8697 34.718ZM49.1297 34.9072L49.1297 37.5152C49.1297 37.5152 47.9367 38.0442 47.5135 38.7249C47.0902 39.4051 46.8976 41.1818 46.8976 41.1818L42.9334 41.1818L42.9334 37.5906L6.65343e-07 37.5906L9.0635e-07 34.9067L49.1297 34.9067L49.1297 34.9072ZM54.7107 37.5911L54.7107 31.9962L53.8642 31.9962L53.8642 37.5911L54.7107 37.5911ZM53.2484 37.5911L53.2484 31.9962L52.4019 31.9962L52.4019 37.5911L53.2484 37.5911ZM51.7088 37.5911L51.7088 31.9962L50.8623 31.9962L50.8623 37.5911L51.7088 37.5911Z" fill="#FFAE00"/>
<path fill-rule="evenodd" clip-rule="evenodd" d="M31.547 20.4453C33.1887 20.5551 36.0039 21.1046 36.0039 21.1046C36.0039 21.1046 33.8622 22.1943 32.6757 23.1006L33.3849 23.3768C33.7692 23.5253 34.1323 23.6695 34.4774 23.8085C35.0462 23.4984 35.7122 23.4414 35.7122 23.4414C35.7122 23.4414 35.3948 23.7223 35.1463 24.0824C36.3948 24.6003 37.3831 25.0537 38.2201 25.4737C39.0983 25.0231 40.6631 24.8845 40.6631 24.8845C40.6631 24.8845 39.8694 25.2984 39.045 25.9026C40.7878 26.8405 41.9155 27.6601 43.8254 28.7625C44.3027 29.0382 44.7821 29.3139 45.2609 29.5845C46.4062 29.2093 47.7039 29.1452 47.7039 29.1452C47.7039 29.1452 46.7422 29.5354 46.0169 30.0077C48.6505 31.4655 51.2107 32.6942 53.1714 32.8662C55.5404 33.074 57.3487 32.9543 58.0986 32.7545L58.0986 37.3003L58.9587 37.3003L58.9587 31.8779C58.9587 31.8779 58.5287 31.4749 58.3723 31.145C58.2158 30.8155 57.2385 29.2032 57.2385 29.2032L56.5343 29.5694C56.5343 29.5694 56.5343 29.8993 56.6913 30.3023C56.8477 30.7052 57.2778 31.3288 57.2778 31.3288C57.2778 31.3288 56.5741 30.9989 55.7527 30.2292C54.7653 29.304 54.4288 28.1305 52.6437 26.1995L52.435 26.775C52.435 26.775 52.2901 26.2942 52.1845 25.7197C51.9557 25.4883 51.7067 25.2465 51.4336 24.9939C51.3994 25.584 51.4441 26.2598 51.4441 26.2598C51.4441 26.2598 51.0121 25.5279 50.9914 24.5947C50.6057 24.2534 50.2113 23.9209 49.8084 23.5974C47.1481 21.4539 44.7177 19.8934 41.6595 18.9097C41.6861 19.3445 41.7208 19.7788 41.7636 20.2124C41.7636 20.2124 41.067 19.2467 40.6445 18.6119C39.3302 18.2593 37.8947 18.0029 36.2776 17.8446C35.6373 17.7819 35.0201 17.7343 34.4225 17.7004C34.6128 18.0591 34.8143 18.4126 35.0266 18.7603C35.4562 19.4569 36.3163 20.4094 36.3163 20.4094C36.3163 20.4094 34.6343 20.0795 32.3668 19.933C30.0984 19.7859 27.3224 20.2624 27.3224 20.2624C27.3224 20.2624 29.9042 20.3355 31.547 20.4453Z" fill="#FFAE00"/>
<path fill-rule="evenodd" clip-rule="evenodd" d="M64.0493 34.2402L55.0566 34.2402L55.0566 37.0858L54.8645 37.0858L54.8645 31.5444L55.3272 31.5444C55.3272 31.5444 57.8743 31.6566 59.2256 31.8064C60.5763 31.9561 61.4252 32.2557 62.2746 32.705C63.1235 33.1543 64.0493 34.2402 64.0493 34.2402ZM49.2678 37.0858L49.2678 34.4276L1.60825e-05 34.4276L1.63414e-05 31.5444L41.2601 31.5444C42.4942 32.089 43.6434 32.4651 44.6367 32.5552C46.9749 32.7676 48.7595 32.6453 49.4997 32.4411L49.4997 37.0858L49.2678 37.0858ZM54.0156 31.5444L54.0156 37.0858L53.3981 37.0858L53.3981 31.5444L54.0156 31.5444ZM52.5492 31.5444L52.5492 37.0858L51.8542 37.0858L51.8542 31.5444L52.5492 31.5444ZM51.0053 31.5444L51.0053 37.0858L50.3485 37.0858L50.3485 31.5444L51.0053 31.5444ZM17.5048 20.0126C19.0805 20.3945 21.4454 21.3798 24.4081 22.576C25.5791 21.6495 27.6929 20.5366 27.6929 20.5366C27.6929 20.5366 24.9139 19.975 23.2941 19.8628C21.6728 19.7511 19.1261 19.6755 19.1261 19.6755C19.1261 19.6755 21.8664 19.1886 24.1047 19.3389C26.3426 19.4887 28.0026 19.8258 28.0026 19.8258C28.0026 19.8258 27.1533 18.8525 26.7298 18.1407C26.5183 17.7882 26.3004 17.3798 26.1336 17.0577C21.2215 16.7711 17.7421 17.5402 14.5715 19.7136C15.4204 19.6384 15.8061 19.6009 17.5048 20.0126ZM30.6947 25.4395C31.5084 24.8221 32.2917 24.3993 32.2917 24.3993C32.2917 24.3993 30.7474 24.5408 29.8806 25.0012C30.1541 25.1435 30.4255 25.2896 30.6947 25.4395ZM43.9095 26.3299L44.1155 25.7419C43.974 25.5839 43.8236 25.4202 43.6623 25.2512C43.7272 25.6143 43.8097 25.9743 43.9095 26.3299ZM42.4847 24.1021C42.5051 25.0557 42.9315 25.8035 42.9315 25.8035C42.9315 25.8035 42.8868 25.113 42.9211 24.51C42.7826 24.3771 42.6371 24.2413 42.4847 24.1021ZM33.3774 19.624C33.3774 19.624 33.3049 18.8718 33.2746 18.2929C32.949 18.1841 32.6154 18.0829 32.2729 17.9886C32.6903 18.6372 33.3774 19.624 33.3774 19.624ZM37.5756 29.6345C38.291 29.1519 39.2406 28.7532 39.2406 28.7532C39.2406 28.7532 37.9599 28.8187 36.8295 29.202C37.0782 29.3474 37.3274 29.4919 37.5756 29.6345ZM26.1862 23.2993C26.4151 23.3947 26.634 23.4881 26.8465 23.5791C27.0917 23.2107 27.405 22.9242 27.405 22.9242C27.405 22.9242 26.7477 22.9825 26.1862 23.2993ZM82.2923 33.8709C82.3243 33.8244 82.336 33.7676 82.3248 33.7128C82.3136 33.658 82.2805 33.6097 82.2327 33.5785C82.2287 33.5761 81.7983 33.292 81.4434 32.7758C81.079 32.2455 80.8536 31.5969 80.8516 31.5906C80.8334 31.5375 80.7942 31.4937 80.7426 31.4687C80.691 31.4436 80.6313 31.4395 80.5766 31.4572C80.5219 31.4749 80.4767 31.513 80.4509 31.563C80.4251 31.613 80.4209 31.6709 80.4391 31.724C80.449 31.7529 80.6848 32.4314 81.082 33.0098C81.4871 33.5997 81.9711 33.9161 81.9914 33.9296C82.0395 33.9602 82.098 33.9711 82.1543 33.9601C82.2106 33.9491 82.2602 33.9171 82.2923 33.8709ZM79.9596 33.2525C79.9968 33.2111 80.0156 33.1571 80.012 33.1023C80.0083 33.0474 79.9826 32.9962 79.9402 32.9597C79.8985 32.9236 79.5044 32.6087 78.4534 32.5692C77.4244 32.5306 76.786 32.7204 76.7596 32.7286C76.7047 32.7452 76.6588 32.7823 76.632 32.8317C76.6052 32.8812 76.5998 32.9389 76.6169 32.9922C76.634 33.0456 76.6723 33.0901 76.7233 33.1161C76.7742 33.142 76.8337 33.1473 76.8887 33.1307C76.8947 33.1292 77.4889 32.9549 78.4371 32.9901C79.3281 33.0233 79.6518 33.2742 79.6548 33.2766C79.6987 33.3121 79.7553 33.3294 79.8122 33.3249C79.8692 33.3204 79.9221 33.2944 79.9596 33.2525ZM75.2714 33.723C75.2926 33.7045 75.3099 33.6822 75.3222 33.6572C75.3346 33.6322 75.3417 33.6052 75.3432 33.5775C75.3448 33.5499 75.3406 33.5222 75.3311 33.4961C75.3216 33.47 75.3069 33.446 75.2878 33.4254C75.2813 33.4177 74.6012 32.6819 74.1167 31.8868C73.6287 31.0854 73.0554 29.7549 73.0499 29.7414C73.0277 29.6898 72.9853 29.6488 72.932 29.6276C72.8787 29.6063 72.8189 29.6064 72.7657 29.628C72.7125 29.6495 72.6703 29.6906 72.6484 29.7423C72.6265 29.794 72.6266 29.8521 72.6488 29.9037C72.6726 29.959 73.239 31.2742 73.7429 32.1011C74.2497 32.9337 74.9358 33.6763 74.9646 33.7071C75.0031 33.7487 75.0571 33.7737 75.1146 33.7766C75.1721 33.7796 75.2285 33.7603 75.2714 33.723ZM72.1916 32.3216C72.2401 32.2924 72.2748 32.2457 72.2881 32.1918C72.3014 32.1379 72.2922 32.0811 72.2626 32.0337C72.2432 32.0038 71.7771 31.2863 70.2114 30.8191C68.6531 30.3539 67.6801 30.6958 67.6394 30.7108C67.5277 30.7512 67.4711 30.8721 67.5128 30.9809C67.5545 31.0898 67.6791 31.1452 67.7913 31.1057C67.8002 31.1023 68.6784 30.8023 70.0838 31.2217C71.4738 31.6368 71.8893 32.2489 71.8932 32.2552C71.9241 32.302 71.9726 32.3352 72.0284 32.3476C72.0842 32.36 72.1428 32.3507 72.1916 32.3216ZM65.7212 32.5104C65.7397 32.4575 65.7358 32.3997 65.7104 32.3496C65.685 32.2995 65.6402 32.2612 65.5857 32.2431C65.5773 32.2403 64.7199 31.9489 63.738 31.019C62.1862 29.5492 61.6813 27.1832 61.6764 27.1592C61.6651 27.1044 61.6318 27.0562 61.5838 27.0252C61.5359 26.9942 61.4772 26.983 61.4207 26.994C61.3642 27.005 61.3146 27.0373 61.2826 27.0838C61.2507 27.1303 61.2391 27.1872 61.2505 27.242C61.2713 27.3441 61.7841 29.7577 63.4342 31.3204C64.4926 32.3226 65.408 32.6298 65.4462 32.6424C65.4732 32.6513 65.5017 32.6549 65.5302 32.6531C65.5586 32.6513 65.5864 32.6441 65.612 32.6318C65.6375 32.6196 65.6603 32.6025 65.6791 32.5817C65.6978 32.5609 65.7122 32.5366 65.7212 32.5104ZM64.0493 34.2402C64.0493 34.2402 64.7443 34.6144 66.0563 34.6144C67.3688 34.6144 68.797 34.0177 69.4528 33.9407C70.7261 33.7909 72.346 34.5176 73.5056 34.6144C75.744 34.8017 77.9828 34.3524 77.9828 34.3524C77.9828 34.3524 78.6381 34.8249 79.2566 34.8393C80.8775 34.8764 82.2669 34.4276 83.3477 34.3524C84.4284 34.2773 86.281 34.5022 86.281 34.5022C86.281 34.5022 85.0846 34.9891 83.8108 35.8501C82.5375 36.7112 81.3406 37.7596 81.3406 37.7596C81.3406 37.7596 79.4105 37.3849 77.2496 37.9469C75.0882 38.5084 73.4674 39.9685 73.4674 39.9685C73.4674 39.9685 70.9972 39.7066 69.3377 40.193C67.6781 40.6798 65.8255 42.2897 65.8255 42.2897C65.8255 42.2897 64.0498 42.14 62.6221 42.4019C61.1939 42.6639 59.3025 43.6001 59.3025 43.6001C59.3025 43.6001 58.9937 41.1662 58.0674 39.5568C57.1411 37.9469 56.0991 36.9361 56.0991 36.9361C56.0991 36.9361 57.5273 37.0858 58.8781 36.8985C60.2288 36.7112 61.2326 36.5614 62.1202 35.9999C63.0073 35.4384 64.0493 34.2402 64.0493 34.2402Z" fill="#FFAE00"/>
<path fill-rule="evenodd" clip-rule="evenodd" d="M45.5976 39.3127C45.6006 39.3035 45.9006 38.3947 46.2924 37.9577C46.6821 37.5222 47.4928 37.1796 47.5008 37.176C47.551 37.151 47.5899 37.1075 47.6097 37.0542C47.6296 37.0009 47.6289 36.9419 47.6078 36.8891C47.5867 36.8363 47.5467 36.7938 47.496 36.77C47.4453 36.7462 47.3877 36.7431 47.3348 36.7611C47.2977 36.7765 46.4258 37.1448 45.9688 37.6546C45.5133 38.1623 45.1947 39.1296 45.1812 39.1707C45.1628 39.2271 45.167 39.2887 45.193 39.342C45.2191 39.3952 45.2647 39.4357 45.3199 39.4546C45.3751 39.4734 45.4354 39.469 45.4875 39.4424C45.5395 39.4159 45.5791 39.3692 45.5976 39.3127ZM44.5441 36.954C45.2278 36.9124 46.0481 36.6355 46.0827 36.6237C46.11 36.6143 46.1353 36.5996 46.157 36.5803C46.1788 36.561 46.1966 36.5375 46.2095 36.5111C46.2224 36.4847 46.2301 36.456 46.2321 36.4266C46.2341 36.3972 46.2305 36.3677 46.2214 36.3398C46.2123 36.3118 46.1978 36.286 46.1789 36.2637C46.16 36.2415 46.1371 36.2232 46.1113 36.2101C46.0855 36.1969 46.0574 36.1891 46.0287 36.187C45.9999 36.1849 45.971 36.1886 45.9437 36.198C45.9357 36.2005 45.1436 36.4683 44.5185 36.5062C43.9095 36.5426 43.0933 36.2431 43.0853 36.24C43.0306 36.2197 42.9703 36.2224 42.9175 36.2475C42.8648 36.2727 42.824 36.3182 42.8041 36.3741C42.7842 36.4301 42.7869 36.4917 42.8115 36.5457C42.8361 36.5996 42.8806 36.6413 42.9353 36.6616C42.9724 36.675 43.8438 36.996 44.5441 36.954ZM37.5987 41.3571C37.6057 41.3392 38.3005 39.5379 39.2441 38.3034C40.1651 37.0976 41.4328 36.6267 41.4454 36.6221C41.4725 36.6123 41.4976 36.5971 41.519 36.5774C41.5404 36.5576 41.5578 36.5338 41.5702 36.5072C41.5827 36.4806 41.5898 36.4518 41.5913 36.4223C41.5929 36.3929 41.5887 36.3635 41.5791 36.3357C41.5694 36.3079 41.5546 36.2823 41.5353 36.2604C41.516 36.2385 41.4927 36.2207 41.4667 36.208C41.4406 36.1953 41.4124 36.188 41.3837 36.1864C41.3549 36.1849 41.3261 36.1892 41.2989 36.199C41.2422 36.2195 39.9008 36.7144 38.898 38.0269C37.9147 39.3138 37.2184 41.1171 37.1893 41.1935C37.1788 41.221 37.1737 41.2503 37.1743 41.2798C37.1749 41.3093 37.1811 41.3384 37.1927 41.3654C37.2043 41.3925 37.2209 41.4169 37.2418 41.4373C37.2626 41.4578 37.2871 41.4738 37.314 41.4846C37.3409 41.4953 37.3696 41.5005 37.3984 41.5C37.4273 41.4994 37.4557 41.493 37.4822 41.4811C37.5086 41.4693 37.5325 41.4523 37.5525 41.431C37.5725 41.4097 37.5882 41.3846 37.5987 41.3571ZM33.9923 39.1758C34.9499 38.8496 35.8098 38.2141 35.8459 38.1875C35.8928 38.1524 35.9243 38.0997 35.9334 38.041C35.9425 37.9823 35.9286 37.9223 35.8946 37.8741C35.8602 37.8261 35.8088 37.794 35.7513 37.7846C35.6939 37.7753 35.6352 37.7896 35.5881 37.8243C35.5795 37.8305 34.7448 38.446 33.8533 38.7501C32.9674 39.0522 31.8743 39.0178 31.8633 39.0178C31.8345 39.0168 31.8058 39.0216 31.7788 39.0319C31.7518 39.0423 31.7271 39.0579 31.706 39.078C31.685 39.0981 31.668 39.1223 31.6561 39.1491C31.6442 39.1759 31.6375 39.2048 31.6365 39.2343C31.6355 39.2637 31.6402 39.2931 31.6503 39.3206C31.6604 39.3482 31.6757 39.3735 31.6954 39.395C31.7151 39.4165 31.7387 39.4339 31.7649 39.4461C31.7911 39.4583 31.8194 39.4651 31.8482 39.4661C31.8959 39.4676 33.0296 39.5035 33.9923 39.1758ZM53.4429 37.2591C53.4439 37.254 53.5558 36.7662 53.7329 36.44C53.8749 36.179 54.3876 35.7384 54.5732 35.5912C54.614 35.553 54.6392 35.5005 54.6439 35.4441C54.6485 35.3878 54.6323 35.3317 54.5983 35.287C54.5644 35.2424 54.5152 35.2124 54.4606 35.2031C54.4061 35.1938 54.3501 35.2058 54.3038 35.2368C54.228 35.2968 53.5603 35.8348 53.3496 36.2221C53.142 36.6042 53.0206 37.1355 53.0155 37.1576C53.0024 37.2155 53.0122 37.2765 53.043 37.327C53.0738 37.3774 53.1229 37.4134 53.1796 37.4269C53.2363 37.4403 53.2958 37.4302 53.3452 37.3988C53.3946 37.3673 53.4298 37.3171 53.4429 37.2591Z" fill="#FFAE00"/>
<path d="M120.864 36.408L121.856 39H125.888L116.928 15.96L108 39H112.032L112.992 36.408H120.864ZM114.208 33.176L116.928 25.4L119.648 33.176H114.208ZM139.571 27.832C141.491 27.352 143.315 25.848 143.315 22.904C143.315 16.44 135.859 16.6 135.859 16.6H128.403V39H135.859C137.363 39 143.635 38.712 143.635 32.568C143.635 32.568 143.795 28.696 139.571 27.832ZM132.115 25.944V20.312H135.859C135.859 20.312 139.571 20.152 139.571 23.16C139.571 25.944 135.859 25.944 135.859 25.944H132.115ZM135.859 35.288H132.115V29.688H135.859C135.859 29.688 139.891 29.464 139.891 32.472C139.891 34.904 137.427 35.288 135.859 35.288ZM155.3 32.92C159.876 32.92 163.62 29.176 163.62 24.6C163.62 20.024 159.876 16.28 155.3 16.28C150.724 16.28 146.98 20.024 146.98 24.6C146.98 29.176 150.724 32.92 155.3 32.92ZM155.3 19.992C157.86 19.992 159.908 22.04 159.908 24.6C159.908 27.16 157.86 29.208 155.3 29.208C152.74 29.208 150.692 27.16 150.692 24.6C150.692 22.04 152.74 19.992 155.3 19.992ZM162.596 39V35.288H147.812V39H162.596ZM179.835 39H184.219L178.139 29.272C180.315 28.664 183.067 27.096 183.067 23.128C183.067 16.6 175.579 16.6 175.579 16.6H168.123V20.344L171.675 25.944H168.123V39H171.867V29.656H174.01L179.835 39ZM176.059 25.912L172.571 20.344H175.579C175.579 20.344 179.323 20.344 179.323 23.128C179.323 25.336 177.051 25.816 176.059 25.912ZM192.58 20.024H195.076V16.6H186.34V20.024H188.836V35.576H186.212V39H195.204V35.576H192.58V20.024ZM218.744 26.264H211.256V29.816H215V33.048C213.624 34.616 211.64 35.576 209.4 35.576C205.272 35.576 201.944 33.272 201.944 27.8C201.944 22.904 205.272 20.024 209.4 20.024C211.448 20.024 213.336 20.856 214.68 22.2L217.304 19.576C215.288 17.528 212.504 16.28 209.4 16.28C203.224 16.28 198.2 21.144 198.2 27.8C198.2 35.128 202.904 39.32 208.92 39.32C211.576 39.32 213.464 38.68 215.288 36.984L215.48 39.096H218.744V26.264ZM227.366 20.344H238.566V16.6H223.622V39H238.566V35.256H227.366V29.656H236.678V25.944H227.366V20.344ZM261.09 39V16.6H257.378V32.536L246.21 16.6H242.434V39H246.178V23.064L257.314 39H261.09Z" fill="#FFAE00"/>
</svg>
