<svg width="48" height="48" viewBox="0 0 48 48" fill="none" xmlns="http://www.w3.org/2000/svg">
<path d="M23.998 14.7539C18.89 14.7539 14.752 18.8939 14.752 23.9999C14.752 29.1079 18.89 33.2479 23.998 33.2479C29.102 33.2479 33.244 29.1079 33.244 23.9999C33.244 18.8939 29.102 14.7539 23.998 14.7539ZM23.998 30.0079C20.68 30.0079 17.99 27.3179 17.99 24.0019C17.99 20.6839 20.68 17.9959 23.998 17.9959C27.316 17.9959 30.002 20.6839 30.002 24.0019C30.002 27.3179 27.316 30.0079 23.998 30.0079Z" fill="white"/>
<path d="M33.6121 16.5698C34.8028 16.5698 35.7681 15.6045 35.7681 14.4138C35.7681 13.2231 34.8028 12.2578 33.6121 12.2578C32.4213 12.2578 31.4561 13.2231 31.4561 14.4138C31.4561 15.6045 32.4213 16.5698 33.6121 16.5698Z" fill="white"/>
<path d="M41.0659 12.2218C40.1279 9.80377 38.2179 7.89177 35.7999 6.95777C34.4019 6.43177 32.9239 6.14977 31.4279 6.11777C29.5019 6.03377 28.8919 6.00977 24.0079 6.00977C19.1239 6.00977 18.4979 6.00977 16.5879 6.11777C15.0959 6.14777 13.6179 6.42977 12.2199 6.95777C9.79991 7.89177 7.88991 9.80377 6.95391 12.2218C6.42791 13.6218 6.14591 15.0978 6.11591 16.5938C6.02991 18.5178 6.00391 19.1278 6.00391 24.0138C6.00391 28.8978 6.00391 29.5198 6.11591 31.4338C6.14591 32.9298 6.42791 34.4058 6.95391 35.8078C7.89191 38.2238 9.80191 40.1358 12.2219 41.0718C13.6139 41.6158 15.0919 41.9238 16.5919 41.9718C18.5179 42.0558 19.1279 42.0818 24.0119 42.0818C28.8959 42.0818 29.5219 42.0818 31.4319 41.9718C32.9259 41.9418 34.4039 41.6578 35.8039 41.1338C38.2219 40.1958 40.1319 38.2858 41.0699 35.8678C41.5959 34.4678 41.8779 32.9918 41.9079 31.4958C41.9939 29.5718 42.0199 28.9618 42.0199 24.0758C42.0199 19.1898 42.0199 18.5698 41.9079 16.6558C41.8819 15.1398 41.6019 13.6378 41.0659 12.2218ZM38.6299 31.2858C38.6159 32.4378 38.4079 33.5798 38.0079 34.6618C37.3979 36.2358 36.1559 37.4798 34.5839 38.0838C33.5139 38.4818 32.3859 38.6898 31.2439 38.7058C29.3439 38.7938 28.8079 38.8158 23.9359 38.8158C19.0599 38.8158 18.5619 38.8158 16.6259 38.7058C15.4879 38.6918 14.3559 38.4818 13.2879 38.0838C11.7099 37.4818 10.4599 36.2378 9.84991 34.6618C9.45791 33.5938 9.24591 32.4638 9.22791 31.3238C9.14191 29.4238 9.12191 28.8878 9.12191 24.0158C9.12191 19.1418 9.12191 18.6438 9.22791 16.7058C9.24191 15.5538 9.44991 14.4138 9.84991 13.3318C10.4599 11.7538 11.7099 10.5118 13.2879 9.90777C14.3559 9.51177 15.4879 9.30177 16.6259 9.28577C18.5279 9.19977 19.0619 9.17577 23.9359 9.17577C28.8099 9.17577 29.3099 9.17577 31.2439 9.28577C32.3859 9.29977 33.5139 9.50977 34.5839 9.90777C36.1559 10.5138 37.3979 11.7578 38.0079 13.3318C38.3999 14.3998 38.6119 15.5298 38.6299 16.6698C38.7159 18.5718 38.7379 19.1058 38.7379 23.9798C38.7379 28.8518 38.7379 29.3758 38.6519 31.2878H38.6299V31.2858Z" fill="white"/>
</svg>
