<svg width="246" height="122" viewBox="0 0 246 122" fill="none" xmlns="http://www.w3.org/2000/svg">
<path fill-rule="evenodd" clip-rule="evenodd" d="M156.513 28.715L141.98 28.715L141.98 33.3713C141.98 33.3713 144.35 34.9639 145.847 37.4146C147.344 39.8652 148.217 45.3789 148.217 45.3789C148.217 45.3789 150.4 43.847 153.269 43.1733C156.139 42.4995 159.818 42.8061 159.818 42.8061C159.818 42.8061 161.69 40.4775 165.245 39.498C168.801 38.5178 171.919 39.0694 171.919 39.0694C171.919 39.0694 173.915 36.4958 177.969 35.5769C182.024 34.6573 184.705 35.3319 184.705 35.3319C184.705 35.3319 187.513 32.8812 188.76 31.9624C190.008 31.0436 194 29.083 194 29.083C194 29.083 190.819 27.9184 188.948 26.9995C187.077 26.0807 184.27 23.385 184.27 23.385C184.27 23.385 181.151 24.3046 177.47 23.0784C173.79 21.8531 171.67 19.1573 171.67 19.1573C171.67 19.1573 169.05 20.6884 164.934 19.6475C160.817 18.6065 159.881 15.8493 159.881 15.8493C159.881 15.8493 157.137 16.4616 153.332 15.4813C149.527 14.5018 147.718 12.479 147.718 12.479C147.718 12.479 147.406 17.0132 146.408 18.9729C145.41 20.9335 142.416 24.303 142.416 24.303C142.416 24.303 146.533 24.4866 148.716 24.7317C150.899 24.9767 152.271 25.4669 153.644 26.2021C155.017 26.9381 156.513 28.715 156.513 28.715ZM132.624 29.0215L132.624 33.2484C132.624 33.2484 130.691 34.1057 130.005 35.2089C129.319 36.3114 129.007 39.1907 129.007 39.1907L122.582 39.1907L122.582 33.3705L53 33.3705L53 29.0208L132.624 29.0208L132.624 29.0215ZM141.669 33.3713L141.669 24.3038L140.297 24.3038L140.297 33.3713L141.669 33.3713ZM139.299 33.3713L139.299 24.3038L137.927 24.3038L137.927 33.3713L139.299 33.3713ZM136.804 33.3713L136.804 24.3038L135.432 24.3038L135.432 33.3713L136.804 33.3713Z" fill="#FFAE00"/>
<path fill-rule="evenodd" clip-rule="evenodd" d="M104.128 5.58363C106.788 5.7616 111.351 6.65225 111.351 6.65225C111.351 6.65225 107.88 8.41826 105.957 9.88715L107.106 10.3348C107.729 10.5754 108.318 10.8091 108.877 11.0344C109.799 10.5318 110.878 10.4394 110.878 10.4394C110.878 10.4394 110.364 10.8947 109.961 11.4782C111.984 12.3177 113.586 13.0525 114.943 13.7331C116.366 13.0029 118.902 12.7783 118.902 12.7783C118.902 12.7783 117.616 13.449 116.28 14.4282C119.104 15.9483 120.932 17.2766 124.027 19.0633C124.801 19.5101 125.578 19.957 126.354 20.3954C128.21 19.7874 130.313 19.6835 130.313 19.6835C130.313 19.6835 128.754 20.316 127.579 21.0814C131.847 23.4439 135.997 25.4353 139.174 25.7141C143.014 26.051 145.944 25.8569 147.16 25.5331L147.16 32.9004L148.554 32.9004L148.554 24.1123C148.554 24.1123 147.857 23.4592 147.603 22.9245C147.35 22.3906 145.766 19.7775 145.766 19.7775L144.625 20.371C144.625 20.371 144.625 20.9057 144.879 21.5588C145.132 22.2119 145.829 23.2224 145.829 23.2224C145.829 23.2224 144.689 22.6877 143.358 21.4404C141.758 19.9409 141.212 18.0389 138.319 14.9095L137.981 15.8421C137.981 15.8421 137.746 15.063 137.575 14.1319C137.204 13.7568 136.8 13.365 136.358 12.9555C136.302 13.9119 136.375 15.0072 136.375 15.0072C136.375 15.0072 135.675 13.821 135.641 12.3086C135.016 11.7554 134.377 11.2165 133.724 10.6922C129.412 7.21826 125.473 4.68916 120.517 3.09501C120.56 3.79963 120.616 4.5035 120.686 5.20628C120.686 5.20628 119.557 3.64116 118.872 2.61226C116.742 2.0409 114.415 1.62536 111.795 1.3687C110.757 1.26711 109.757 1.18996 108.788 1.13497C109.097 1.71643 109.423 2.28931 109.767 2.85286C110.463 3.98183 111.857 5.52557 111.857 5.52557C111.857 5.52557 109.131 4.99088 105.456 4.75332C101.78 4.515 97.281 5.28725 97.281 5.28725C97.281 5.28725 101.465 5.40565 104.128 5.58363Z" fill="#FFAE00"/>
<path fill-rule="evenodd" clip-rule="evenodd" d="M156.804 27.9409L142.23 27.9409L142.23 32.5528L141.918 32.5528L141.918 23.5718L142.668 23.5718C142.668 23.5718 146.796 23.7536 148.986 23.9964C151.175 24.2391 152.551 24.7245 153.928 25.4527C155.304 26.1809 156.804 27.9409 156.804 27.9409ZM132.848 32.5528L132.848 28.2445L53 28.2445L53 23.5718L119.87 23.5718C121.87 24.4545 123.732 25.064 125.342 25.21C129.132 25.5542 132.024 25.3559 133.224 25.025L133.224 32.5528L132.848 32.5528ZM140.543 23.5718L140.543 32.5528L139.542 32.5528L139.542 23.5718L140.543 23.5718ZM138.166 23.5718L138.166 32.5528L137.04 32.5528L137.04 23.5718L138.166 23.5718ZM135.664 23.5718L135.664 32.5528L134.599 32.5528L134.599 23.5718L135.664 23.5718ZM81.3699 4.88235C83.9235 5.50128 87.7564 7.09814 92.5579 9.03686C94.4558 7.53521 97.8815 5.73152 97.8815 5.73152C97.8815 5.73152 93.3777 4.82148 90.7525 4.63963C88.1248 4.45856 83.9975 4.33602 83.9975 4.33602C83.9975 4.33602 88.4386 3.54695 92.0663 3.79046C95.6932 4.03319 98.3836 4.57953 98.3836 4.57953C98.3836 4.57953 97.007 3.00217 96.3207 1.84862C95.978 1.27731 95.6248 0.615463 95.3545 0.0933183C87.3935 -0.371068 81.7544 0.875361 76.6158 4.39767C77.9916 4.27592 78.6167 4.21504 81.3699 4.88235ZM102.747 13.6776C104.065 12.677 105.335 11.9918 105.335 11.9918C105.335 11.9918 102.832 12.2212 101.427 12.9674C101.87 13.198 102.31 13.4348 102.747 13.6776ZM124.164 15.1207L124.497 14.1677C124.268 13.9118 124.024 13.6464 123.763 13.3724C123.868 13.9609 124.002 14.5444 124.164 15.1207ZM121.855 11.5102C121.888 13.0556 122.579 14.2677 122.579 14.2677C122.579 14.2677 122.506 13.1484 122.562 12.1713C122.337 11.9559 122.102 11.7358 121.855 11.5102ZM107.094 4.25251C107.094 4.25251 106.977 3.0334 106.928 2.09526C106.4 1.91887 105.859 1.75497 105.304 1.60199C105.981 2.6533 107.094 4.25251 107.094 4.25251ZM113.898 20.4764C115.058 19.6943 116.597 19.0481 116.597 19.0481C116.597 19.0481 114.521 19.1542 112.689 19.7755C113.092 20.0112 113.496 20.2454 113.898 20.4764ZM95.4398 10.2091C95.8106 10.3637 96.1655 10.5151 96.5098 10.6626C96.9072 10.0655 97.4149 9.60115 97.4149 9.60115C97.4149 9.60115 96.3497 9.69558 95.4398 10.2091ZM186.37 27.3423C186.422 27.267 186.441 27.1749 186.423 27.086C186.405 26.9972 186.351 26.919 186.274 26.8685C186.267 26.8646 185.57 26.4041 184.994 25.5675C184.404 24.7082 184.039 23.6568 184.035 23.6467C184.006 23.5607 183.942 23.4896 183.859 23.4491C183.775 23.4085 183.678 23.4018 183.59 23.4305C183.501 23.4592 183.428 23.5208 183.386 23.6019C183.344 23.683 183.337 23.7769 183.367 23.8629C183.383 23.9097 183.765 25.0094 184.409 25.9468C185.065 26.9029 185.85 27.4156 185.883 27.4375C185.96 27.487 186.055 27.5048 186.147 27.4869C186.238 27.4691 186.318 27.4171 186.37 27.3423ZM182.59 26.3401C182.65 26.273 182.68 26.1855 182.675 26.0966C182.669 26.0078 182.627 25.9247 182.558 25.8656C182.491 25.8071 181.852 25.2966 180.149 25.2326C178.481 25.1702 177.446 25.4777 177.404 25.491C177.314 25.5179 177.24 25.578 177.197 25.6582C177.153 25.7383 177.145 25.8319 177.172 25.9183C177.2 26.0047 177.262 26.0769 177.345 26.119C177.427 26.1611 177.524 26.1696 177.613 26.1427C177.622 26.1403 178.585 25.8578 180.122 25.9148C181.566 25.9686 182.091 26.3753 182.096 26.3792C182.167 26.4367 182.259 26.4648 182.351 26.4575C182.443 26.4502 182.529 26.4081 182.59 26.3401ZM174.992 27.1027C175.026 27.0727 175.054 27.0365 175.074 26.996C175.094 26.9555 175.106 26.9117 175.108 26.8668C175.11 26.822 175.104 26.7772 175.088 26.7349C175.073 26.6926 175.049 26.6537 175.018 26.6203C175.008 26.6078 173.905 25.4153 173.12 24.1267C172.329 22.828 171.4 20.6715 171.391 20.6497C171.355 20.566 171.287 20.4997 171.2 20.4652C171.114 20.4307 171.017 20.431 170.931 20.4658C170.844 20.5007 170.776 20.5674 170.74 20.6512C170.705 20.735 170.705 20.829 170.741 20.9127C170.78 21.0024 171.698 23.1339 172.514 24.474C173.336 25.8235 174.448 27.027 174.494 27.0769C174.557 27.1442 174.644 27.1847 174.737 27.1896C174.831 27.1944 174.922 27.1631 174.992 27.1027ZM170 24.8315C170.079 24.7841 170.135 24.7084 170.157 24.6211C170.178 24.5337 170.163 24.4416 170.115 24.3647C170.084 24.3164 169.328 23.1534 166.791 22.3964C164.265 21.6424 162.688 22.1966 162.622 22.2208C162.441 22.2863 162.35 22.4822 162.417 22.6586C162.485 22.835 162.687 22.9248 162.869 22.8608C162.883 22.8553 164.306 22.3691 166.584 23.0489C168.837 23.7216 169.51 24.7136 169.517 24.7238C169.567 24.7996 169.645 24.8534 169.736 24.8735C169.826 24.8937 169.921 24.8786 170 24.8315ZM159.514 25.1374C159.544 25.0517 159.537 24.958 159.496 24.8768C159.455 24.7956 159.382 24.7336 159.294 24.7043C159.28 24.6996 157.891 24.2274 156.3 22.7203C153.785 20.3382 152.966 16.5037 152.958 16.4647C152.94 16.3759 152.886 16.2978 152.808 16.2476C152.731 16.1974 152.635 16.1792 152.544 16.197C152.452 16.2148 152.372 16.2672 152.32 16.3425C152.268 16.4179 152.25 16.5101 152.268 16.5989C152.302 16.7644 153.133 20.6762 155.807 23.2088C157.522 24.833 159.006 25.331 159.068 25.3513C159.112 25.3657 159.158 25.3717 159.204 25.3687C159.25 25.3658 159.295 25.3541 159.337 25.3342C159.378 25.3143 159.415 25.2867 159.445 25.2529C159.476 25.2192 159.499 25.1799 159.514 25.1374ZM156.804 27.9409C156.804 27.9409 157.93 28.5473 160.057 28.5473C162.184 28.5473 164.499 27.5803 165.561 27.4554C167.625 27.2127 170.25 28.3905 172.13 28.5473C175.757 28.8509 179.386 28.1228 179.386 28.1228C179.386 28.1228 180.448 28.8884 181.45 28.9118C184.077 28.9719 186.329 28.2445 188.081 28.1228C189.832 28.001 192.835 28.3655 192.835 28.3655C192.835 28.3655 190.896 29.1546 188.831 30.5501C186.768 31.9456 184.828 33.6447 184.828 33.6447C184.828 33.6447 181.7 33.0375 178.198 33.9483C174.695 34.8583 172.068 37.2247 172.068 37.2247C172.068 37.2247 168.064 36.8002 165.375 37.5884C162.685 38.3775 159.683 40.9867 159.683 40.9867C159.683 40.9867 156.805 40.7439 154.491 41.1685C152.176 41.5931 149.111 43.1103 149.111 43.1103C149.111 43.1103 148.611 39.1658 147.109 36.5574C145.608 33.9483 143.919 32.31 143.919 32.31C143.919 32.31 146.234 32.5528 148.423 32.2492C150.612 31.9456 152.239 31.7028 153.678 30.7928C155.115 29.8827 156.804 27.9409 156.804 27.9409Z" fill="#FFAE00"/>
<path fill-rule="evenodd" clip-rule="evenodd" d="M126.899 36.1617C126.904 36.1467 127.39 34.6738 128.025 33.9656C128.657 33.2598 129.971 32.7046 129.984 32.6988C130.065 32.6582 130.128 32.5876 130.16 32.5012C130.193 32.4149 130.191 32.3193 130.157 32.2337C130.123 32.1482 130.058 32.0792 129.976 32.0407C129.894 32.0022 129.8 31.997 129.715 32.0263C129.655 32.0512 128.242 32.6481 127.501 33.4743C126.763 34.2972 126.246 35.8649 126.224 35.9314C126.195 36.0229 126.201 36.1228 126.244 36.2091C126.286 36.2954 126.36 36.361 126.449 36.3915C126.539 36.4221 126.636 36.415 126.721 36.3719C126.805 36.3288 126.869 36.2532 126.899 36.1617ZM125.192 32.3388C126.3 32.2715 127.629 31.8226 127.685 31.8035C127.73 31.7884 127.771 31.7645 127.806 31.7332C127.841 31.7019 127.87 31.6638 127.891 31.6211C127.912 31.5784 127.924 31.5318 127.928 31.4842C127.931 31.4366 127.925 31.3887 127.91 31.3434C127.895 31.2981 127.872 31.2562 127.841 31.2202C127.811 31.1841 127.774 31.1546 127.732 31.1332C127.69 31.1119 127.645 31.0992 127.598 31.0958C127.551 31.0924 127.505 31.0985 127.46 31.1136C127.447 31.1177 126.163 31.5517 125.15 31.6132C124.163 31.6722 122.841 31.1867 122.828 31.1818C122.739 31.1488 122.641 31.1532 122.556 31.1939C122.47 31.2347 122.404 31.3085 122.372 31.3991C122.34 31.4897 122.344 31.5897 122.384 31.6771C122.424 31.7645 122.496 31.8321 122.585 31.865C122.645 31.8866 124.057 32.407 125.192 32.3388ZM113.936 39.475C113.947 39.4459 115.073 36.5266 116.602 34.5258C118.095 32.5716 120.15 31.8085 120.17 31.801C120.214 31.7851 120.254 31.7604 120.289 31.7285C120.324 31.6965 120.352 31.6579 120.372 31.6148C120.392 31.5717 120.404 31.5249 120.406 31.4772C120.409 31.4295 120.402 31.3818 120.387 31.3368C120.371 31.2917 120.347 31.2503 120.316 31.2148C120.284 31.1793 120.247 31.1504 120.204 31.1299C120.162 31.1093 120.116 31.0974 120.07 31.0949C120.023 31.0924 119.976 31.0993 119.932 31.1153C119.841 31.1485 117.667 31.9506 116.041 34.0778C114.448 36.1633 113.319 39.086 113.272 39.2098C113.255 39.2544 113.247 39.3019 113.248 39.3497C113.249 39.3975 113.259 39.4447 113.278 39.4885C113.296 39.5323 113.323 39.5719 113.357 39.605C113.391 39.6381 113.431 39.6641 113.474 39.6815C113.518 39.699 113.564 39.7074 113.611 39.7065C113.658 39.7055 113.704 39.6951 113.747 39.676C113.79 39.6568 113.828 39.6292 113.861 39.5947C113.893 39.5602 113.919 39.5195 113.936 39.475ZM108.091 35.9397C109.643 35.4111 111.036 34.3812 111.095 34.338C111.171 34.2811 111.222 34.1958 111.237 34.1006C111.251 34.0055 111.229 33.9082 111.174 33.8301C111.118 33.7523 111.035 33.7002 110.942 33.6851C110.849 33.67 110.753 33.6931 110.677 33.7494C110.663 33.7594 109.31 34.7569 107.865 35.2498C106.43 35.7394 104.658 35.6837 104.64 35.6837C104.594 35.6821 104.547 35.6899 104.503 35.7066C104.46 35.7233 104.42 35.7487 104.385 35.7813C104.351 35.8139 104.324 35.853 104.304 35.8964C104.285 35.9399 104.274 35.9868 104.273 36.0345C104.271 36.0822 104.279 36.1298 104.295 36.1745C104.311 36.2192 104.336 36.2601 104.368 36.295C104.4 36.3299 104.438 36.358 104.481 36.3778C104.523 36.3976 104.569 36.4086 104.616 36.4102C104.693 36.4127 106.53 36.4709 108.091 35.9397ZM139.614 32.8334C139.616 32.8251 139.797 32.0346 140.084 31.5059C140.314 31.0828 141.145 30.3688 141.446 30.1302C141.512 30.0683 141.553 29.9832 141.561 29.8919C141.568 29.8005 141.542 29.7096 141.487 29.6372C141.432 29.5648 141.352 29.5163 141.264 29.5012C141.175 29.4861 141.084 29.5056 141.009 29.5559C140.887 29.6531 139.804 30.5251 139.463 31.1527C139.126 31.7719 138.93 32.6331 138.921 32.6688C138.9 32.7627 138.916 32.8615 138.966 32.9433C139.016 33.0252 139.095 33.0834 139.187 33.1052C139.279 33.1271 139.376 33.1107 139.456 33.0597C139.536 33.0087 139.593 32.9273 139.614 32.8334Z" fill="#FFAE00"/>
<path d="M19.296 104.112L20.784 108H26.832L13.392 73.44L0 108H6.048L7.488 104.112H19.296ZM9.312 99.264L13.392 87.6L17.472 99.264H9.312ZM47.3565 91.248C50.2365 90.528 52.9725 88.272 52.9725 83.856C52.9725 74.16 41.7885 74.4 41.7885 74.4H30.6045V108H41.7885C44.0445 108 53.4525 107.568 53.4525 98.352C53.4525 98.352 53.6925 92.544 47.3565 91.248ZM36.1725 88.416V79.968H41.7885C41.7885 79.968 47.3565 79.728 47.3565 84.24C47.3565 88.416 41.7885 88.416 41.7885 88.416H36.1725ZM41.7885 102.432H36.1725V94.032H41.7885C41.7885 94.032 47.8365 93.696 47.8365 98.208C47.8365 101.856 44.1405 102.432 41.7885 102.432ZM70.9504 98.88C77.8144 98.88 83.4304 93.264 83.4304 86.4C83.4304 79.536 77.8144 73.92 70.9504 73.92C64.0864 73.92 58.4704 79.536 58.4704 86.4C58.4704 93.264 64.0864 98.88 70.9504 98.88ZM70.9504 79.488C74.7904 79.488 77.8624 82.56 77.8624 86.4C77.8624 90.24 74.7904 93.312 70.9504 93.312C67.1104 93.312 64.0384 90.24 64.0384 86.4C64.0384 82.56 67.1104 79.488 70.9504 79.488ZM81.8944 108V102.432H59.7184V108H81.8944ZM107.752 108H114.328L105.208 93.408C108.472 92.496 112.6 90.144 112.6 84.192C112.6 74.4 101.368 74.4 101.368 74.4H90.1838V80.016L95.5118 88.416H90.1838V108H95.7998V93.984H99.0157L107.752 108ZM102.088 88.368L96.8558 80.016H101.368C101.368 80.016 106.984 80.016 106.984 84.192C106.984 87.504 103.576 88.224 102.088 88.368ZM126.87 79.536H130.614V74.4H117.51V79.536H121.254V102.864H117.318V108H130.806V102.864H126.87V79.536ZM166.116 88.896H154.884V94.224H160.5V99.072C158.436 101.424 155.46 102.864 152.1 102.864C145.908 102.864 140.916 99.408 140.916 91.2C140.916 83.856 145.908 79.536 152.1 79.536C155.172 79.536 158.004 80.784 160.02 82.8L163.956 78.864C160.932 75.792 156.756 73.92 152.1 73.92C142.836 73.92 135.3 81.216 135.3 91.2C135.3 102.192 142.356 108.48 151.38 108.48C155.364 108.48 158.196 107.52 160.932 104.976L161.22 108.144H166.116V88.896ZM179.049 80.016H195.849V74.4H173.433V108H195.849V102.384H179.049V93.984H193.017V88.416H179.049V80.016ZM229.635 108V74.4H224.067V98.304L207.315 74.4H201.651V108H207.267V84.096L223.971 108H229.635Z" fill="#FFAE00"/>
</svg>
