<svg width="40" height="32" viewBox="0 0 40 32" fill="none" xmlns="http://www.w3.org/2000/svg">
<path d="M35.266 7.99409C35.292 8.34409 35.292 8.69209 35.292 9.04009C35.292 19.6901 27.186 31.9621 12.372 31.9621C7.808 31.9621 3.568 30.6401 0 28.3441C0.648 28.4181 1.272 28.4441 1.946 28.4441C5.712 28.4441 9.178 27.1721 11.948 25.0021C8.406 24.9281 5.438 22.6081 4.414 19.4161C4.912 19.4901 5.412 19.5401 5.936 19.5401C6.658 19.5401 7.384 19.4401 8.058 19.2661C4.364 18.5181 1.598 15.2761 1.598 11.3601V11.2601C2.672 11.8581 3.918 12.2321 5.238 12.2821C3.068 10.8381 1.646 8.36809 1.646 5.57409C1.646 4.07809 2.044 2.70609 2.742 1.51009C6.708 6.39609 12.67 9.59009 19.354 9.94009C19.23 9.34009 19.154 8.71809 19.154 8.09408C19.154 3.65409 22.746 0.0380859 27.21 0.0380859C29.53 0.0380859 31.624 1.01009 33.096 2.58209C34.916 2.23209 36.66 1.55809 38.208 0.636085C37.61 2.50609 36.336 4.07809 34.666 5.07609C36.288 4.90009 37.86 4.45209 39.304 3.82809C38.208 5.42409 36.838 6.84609 35.266 7.99409Z" fill="white"/>
</svg>
