<svg width="41" height="24" viewBox="0 0 41 24" fill="none" xmlns="http://www.w3.org/2000/svg">
<path d="M39.158 1.70966C39.438 0.779657 39.158 0.0976562 37.834 0.0976562H33.448C32.332 0.0976562 31.822 0.687657 31.542 1.33566C31.542 1.33566 29.312 6.77366 26.152 10.2997C25.132 11.3257 24.666 11.6497 24.11 11.6497C23.832 11.6497 23.428 11.3257 23.428 10.3957V1.70966C23.428 0.593657 23.106 0.0976562 22.176 0.0976562H15.284C14.588 0.0976562 14.168 0.613657 14.168 1.10566C14.168 2.16166 15.748 2.40566 15.91 5.38166V11.8377C15.91 13.2517 15.656 13.5097 15.096 13.5097C13.61 13.5097 9.994 8.05166 7.848 1.80366C7.43 0.589657 7.008 0.0996571 5.888 0.0996571H1.504C0.25 0.0996571 0 0.689657 0 1.33766C0 2.50166 1.486 8.26166 6.922 15.8797C10.546 21.0817 15.648 23.9017 20.296 23.9017C23.082 23.9017 23.426 23.2757 23.426 22.1957V18.2637C23.426 17.0117 23.692 16.7597 24.574 16.7597C25.222 16.7597 26.338 17.0877 28.94 19.5937C31.912 22.5657 32.404 23.8997 34.074 23.8997H38.458C39.71 23.8997 40.336 23.2737 39.976 22.0377C39.582 20.8077 38.162 19.0177 36.278 16.8997C35.254 15.6917 33.724 14.3917 33.258 13.7417C32.608 12.9037 32.796 12.5337 33.258 11.7897C33.26 11.7917 38.602 4.26766 39.158 1.70966Z" fill="white"/>
</svg>
