<svg width="151" height="23" viewBox="0 0 151 23" fill="none" xmlns="http://www.w3.org/2000/svg">
<path fill-rule="evenodd" clip-rule="evenodd" d="M35.5322 13.6246L30.5434 13.6246L30.5434 15.2663C30.5434 15.2663 31.3569 15.8278 31.8708 16.6919C32.3847 17.556 32.6843 19.5 32.6843 19.5C32.6843 19.5 33.4336 18.9599 34.4187 18.7223C35.4038 18.4848 36.6668 18.5929 36.6668 18.5929C36.6668 18.5929 37.3093 17.7719 38.5296 17.4265C39.7501 17.0809 40.8206 17.2754 40.8206 17.2754C40.8206 17.2754 41.5058 16.3679 42.8973 16.044C44.2892 15.7197 45.2096 15.9576 45.2096 15.9576C45.2096 15.9576 46.1732 15.0935 46.6014 14.7695C47.0297 14.4456 48.4 13.7543 48.4 13.7543C48.4 13.7543 47.3081 13.3437 46.6659 13.0197C46.0236 12.6958 45.06 11.7453 45.06 11.7453C45.06 11.7453 43.9896 12.0695 42.726 11.6372C41.4628 11.2052 40.7349 10.2547 40.7349 10.2547C40.7349 10.2547 39.8355 10.7945 38.4227 10.4275C37.0094 10.0605 36.6883 9.08831 36.6883 9.08831C36.6883 9.08831 35.7464 9.30419 34.4402 8.95856C33.134 8.61321 32.5133 7.9 32.5133 7.9C32.5133 7.9 32.4061 9.49868 32.0635 10.1897C31.7209 10.8809 30.6932 12.069 30.6932 12.069C30.6932 12.069 32.1062 12.1337 32.8559 12.2201C33.6052 12.3065 34.0761 12.4793 34.5473 12.7385C35.0185 12.998 35.5322 13.6246 35.5322 13.6246ZM27.332 13.7326L27.332 15.223C27.332 15.223 26.6683 15.5253 26.4328 15.9142C26.1973 16.3029 26.0902 17.3181 26.0902 17.3181L23.8848 17.3181L23.8848 15.266L2.32583e-05 15.266L2.33924e-05 13.7324L27.332 13.7324L27.332 13.7326ZM30.4368 15.2663L30.4368 12.0692L29.9658 12.0692L29.9658 15.2663L30.4368 15.2663ZM29.6233 15.2663L29.6233 12.0692L29.1523 12.0692L29.1523 15.2663L29.6233 15.2663ZM28.7668 15.2663L28.7668 12.0692L28.2958 12.0692L28.2958 15.2663L28.7668 15.2663Z" fill="#FFAE00"/>
<path fill-rule="evenodd" clip-rule="evenodd" d="M17.5502 5.46863C18.4636 5.53138 20.0297 5.84541 20.0297 5.84541C20.0297 5.84541 18.8382 6.46808 18.1781 6.98598L18.5727 7.14381C18.7865 7.22864 18.9885 7.31105 19.1805 7.3905C19.4969 7.21329 19.8674 7.1807 19.8674 7.1807C19.8674 7.1807 19.6909 7.34122 19.5526 7.54698C20.2471 7.84296 20.797 8.10205 21.2626 8.34202C21.7512 8.08454 22.6217 8.00536 22.6217 8.00536C22.6217 8.00536 22.1802 8.24183 21.7215 8.5871C22.6911 9.12305 23.3185 9.5914 24.381 10.2213C24.6465 10.3789 24.9132 10.5364 25.1796 10.691C25.8167 10.4767 26.5387 10.44 26.5387 10.44C26.5387 10.44 26.0037 10.663 25.6002 10.9329C27.0653 11.7659 28.4896 12.468 29.5804 12.5663C30.8983 12.6851 31.9043 12.6167 32.3215 12.5025L32.3215 15.1001L32.8 15.1001L32.8 12.0016C32.8 12.0016 32.5607 11.7713 32.4737 11.5828C32.3867 11.3945 31.843 10.4732 31.843 10.4732L31.4512 10.6824C31.4512 10.6824 31.4512 10.8709 31.5385 11.1012C31.6256 11.3315 31.8648 11.6878 31.8648 11.6878C31.8648 11.6878 31.4733 11.4993 31.0164 11.0595C30.4671 10.5308 30.2799 9.86018 29.2868 8.75677L29.1707 9.08561C29.1707 9.08561 29.0901 8.8109 29.0313 8.4826C28.904 8.35036 28.7655 8.2122 28.6136 8.06785C28.5945 8.40504 28.6194 8.79124 28.6194 8.79124C28.6194 8.79124 28.3791 8.37299 28.3676 7.83973C28.153 7.6447 27.9336 7.45468 27.7095 7.26985C26.2295 6.04497 24.8774 5.15325 23.1761 4.59118C23.1909 4.83962 23.2102 5.08779 23.234 5.33558C23.234 5.33558 22.8464 4.78374 22.6114 4.42097C21.8802 4.21951 21.0816 4.073 20.182 3.98251C19.8257 3.94669 19.4824 3.91949 19.15 3.9001C19.2558 4.10511 19.3679 4.3071 19.486 4.5058C19.725 4.90386 20.2035 5.44816 20.2035 5.44816C20.2035 5.44816 19.2678 5.25963 18.0063 5.17587C16.7443 5.09184 15.2 5.36413 15.2 5.36413C15.2 5.36413 16.6363 5.40587 17.5502 5.46863Z" fill="#FFAE00"/>
<path fill-rule="evenodd" clip-rule="evenodd" d="M35.632 13.3517L30.6292 13.3517L30.6292 14.9778L30.5223 14.9778L30.5223 11.8112L30.7797 11.8112C30.7797 11.8112 32.1967 11.8753 32.9485 11.9609C33.6999 12.0465 34.1722 12.2176 34.6447 12.4744C35.1169 12.7311 35.632 13.3517 35.632 13.3517ZM27.4088 14.9778L27.4088 13.4587L4.58223e-07 13.4587L6.02256e-07 11.8112L22.9539 11.8112C23.6404 12.1224 24.2798 12.3373 24.8324 12.3888C26.1331 12.5102 27.126 12.4403 27.5377 12.3236L27.5377 14.9778L27.4088 14.9778ZM30.0501 11.8112L30.0501 14.9778L29.7065 14.9778L29.7065 11.8112L30.0501 11.8112ZM29.2342 11.8112L29.2342 14.9778L28.8476 14.9778L28.8476 11.8112L29.2342 11.8112ZM28.3754 11.8112L28.3754 14.9778L28.01 14.9778L28.01 11.8112L28.3754 11.8112ZM9.73831 5.22159C10.6149 5.43981 11.9305 6.00284 13.5787 6.6864C14.2302 6.15695 15.4061 5.52099 15.4061 5.52099C15.4061 5.52099 13.8601 5.20013 12.959 5.13601C12.057 5.07216 10.6403 5.02896 10.6403 5.02896C10.6403 5.02896 12.1647 4.75075 13.41 4.8366C14.655 4.92219 15.5785 5.11482 15.5785 5.11482C15.5785 5.11482 15.1059 4.55867 14.8704 4.15194C14.7527 3.95051 14.6315 3.71715 14.5387 3.53305C11.806 3.36931 9.87032 3.80878 8.10642 5.0507C8.57867 5.00777 8.79325 4.98631 9.73831 5.22159ZM17.0761 8.32266C17.5288 7.96987 17.9646 7.72826 17.9646 7.72826C17.9646 7.72826 17.1054 7.80916 16.6232 8.07224C16.7754 8.15356 16.9264 8.23704 17.0761 8.32266ZM24.4278 8.83148L24.5424 8.49548C24.4637 8.40522 24.38 8.31165 24.2903 8.21506C24.3264 8.42256 24.3723 8.62826 24.4278 8.83148ZM23.6352 7.55847C23.6465 8.10334 23.8837 8.5307 23.8837 8.5307C23.8837 8.5307 23.8589 8.13608 23.8779 7.79155C23.8009 7.7156 23.72 7.638 23.6352 7.55847ZM18.5686 4.99952C18.5686 4.99952 18.5282 4.56967 18.5114 4.2389C18.3302 4.17671 18.1446 4.11892 17.9541 4.06498C18.1863 4.43566 18.5686 4.99952 18.5686 4.99952ZM20.9041 10.7198C21.3021 10.4441 21.8304 10.2162 21.8304 10.2162C21.8304 10.2162 21.1179 10.2536 20.4891 10.4727C20.6274 10.5558 20.7661 10.6383 20.9041 10.7198ZM14.568 7.09973C14.6953 7.15422 14.8171 7.20761 14.9353 7.25962C15.0717 7.0491 15.246 6.88536 15.246 6.88536C15.246 6.88536 14.8803 6.91866 14.568 7.09973ZM45.781 13.1406C45.7988 13.1141 45.8053 13.0816 45.7991 13.0503C45.7929 13.019 45.7744 12.9914 45.7478 12.9736C45.7456 12.9722 45.5062 12.8098 45.3087 12.5148C45.106 12.2119 44.9806 11.8412 44.9795 11.8376C44.9694 11.8073 44.9476 11.7822 44.9189 11.7679C44.8902 11.7536 44.857 11.7513 44.8265 11.7614C44.7961 11.7715 44.7709 11.7932 44.7566 11.8218C44.7422 11.8504 44.7399 11.8835 44.75 11.9138C44.7556 11.9303 44.8867 12.3181 45.1077 12.6486C45.333 12.9857 45.6023 13.1665 45.6136 13.1742C45.6403 13.1916 45.6729 13.1979 45.7042 13.1916C45.7355 13.1853 45.7631 13.167 45.781 13.1406ZM44.4833 12.7873C44.5039 12.7636 44.5144 12.7327 44.5124 12.7014C44.5104 12.6701 44.496 12.6408 44.4725 12.62C44.4493 12.5993 44.23 12.4194 43.6454 12.3968C43.0729 12.3748 42.7177 12.4832 42.7031 12.4879C42.6725 12.4974 42.6469 12.5186 42.632 12.5468C42.6172 12.5751 42.6141 12.6081 42.6237 12.6385C42.6332 12.669 42.6545 12.6945 42.6828 12.7093C42.7112 12.7241 42.7443 12.7271 42.7749 12.7177C42.7782 12.7168 43.1088 12.6172 43.6362 12.6373C44.132 12.6563 44.312 12.7997 44.3137 12.801C44.3381 12.8213 44.3696 12.8312 44.4013 12.8287C44.433 12.8261 44.4624 12.8112 44.4833 12.7873ZM41.8751 13.0561C41.8869 13.0456 41.8965 13.0328 41.9034 13.0185C41.9103 13.0043 41.9142 12.9888 41.9151 12.973C41.9159 12.9572 41.9136 12.9414 41.9083 12.9265C41.903 12.9115 41.8948 12.8978 41.8842 12.8861C41.8806 12.8817 41.5023 12.4612 41.2327 12.0068C40.9613 11.5489 40.6423 10.7886 40.6392 10.7809C40.6269 10.7514 40.6033 10.728 40.5737 10.7159C40.544 10.7037 40.5107 10.7038 40.4811 10.7161C40.4515 10.7284 40.4281 10.7519 40.4159 10.7814C40.4037 10.811 40.4038 10.8441 40.4161 10.8736C40.4294 10.9053 40.7445 11.6568 41.0248 12.1293C41.3067 12.6051 41.6884 13.0294 41.7044 13.0471C41.7259 13.0708 41.7559 13.0851 41.7879 13.0868C41.8199 13.0885 41.8512 13.0775 41.8751 13.0561ZM40.1617 12.2553C40.1888 12.2386 40.2081 12.212 40.2154 12.1812C40.2228 12.1503 40.2177 12.1179 40.2012 12.0908C40.1905 12.0737 39.9311 11.6637 39.0601 11.3968C38.1932 11.1309 37.6519 11.3263 37.6293 11.3348C37.5671 11.358 37.5356 11.427 37.5588 11.4892C37.582 11.5514 37.6514 11.5831 37.7138 11.5605C37.7187 11.5586 38.2073 11.3871 38.9891 11.6268C39.7624 11.864 39.9936 12.2138 39.9958 12.2174C40.0129 12.2441 40.0399 12.2631 40.071 12.2702C40.102 12.2773 40.1346 12.2719 40.1617 12.2553ZM36.5621 12.3632C36.5724 12.333 36.5703 12.3 36.5561 12.2713C36.542 12.2427 36.517 12.2208 36.4868 12.2105C36.4821 12.2088 36.0051 12.0423 35.4588 11.511C34.5955 10.6711 34.3147 9.31911 34.3119 9.30535C34.3056 9.27404 34.2871 9.24651 34.2604 9.2288C34.2337 9.2111 34.2011 9.20468 34.1697 9.21096C34.1383 9.21724 34.1106 9.23569 34.0929 9.26227C34.0751 9.28885 34.0687 9.32137 34.075 9.35268C34.0866 9.41102 34.3718 10.7903 35.2898 11.6832C35.8786 12.2559 36.3879 12.4315 36.4091 12.4386C36.4242 12.4437 36.44 12.4458 36.4559 12.4448C36.4717 12.4437 36.4872 12.4396 36.5014 12.4326C36.5156 12.4256 36.5283 12.4159 36.5387 12.4039C36.5491 12.392 36.5571 12.3782 36.5621 12.3632ZM35.632 13.3517C35.632 13.3517 36.0186 13.5655 36.7486 13.5655C37.4788 13.5655 38.2733 13.2245 38.6381 13.1805C39.3465 13.0949 40.2476 13.5102 40.8928 13.5655C42.138 13.6725 43.3835 13.4158 43.3835 13.4158C43.3835 13.4158 43.7481 13.6858 44.0922 13.694C44.9939 13.7152 45.7669 13.4587 46.3681 13.4158C46.9693 13.3729 48 13.5014 48 13.5014C48 13.5014 47.3344 13.7796 46.6258 14.2716C45.9174 14.7637 45.2516 15.3627 45.2516 15.3627C45.2516 15.3627 44.1778 15.1486 42.9756 15.4698C41.7732 15.7907 40.8715 16.625 40.8715 16.625C40.8715 16.625 39.4973 16.4753 38.574 16.7533C37.6508 17.0315 36.6201 17.9514 36.6201 17.9514C36.6201 17.9514 35.6323 17.8658 34.838 18.0155C34.0435 18.1652 32.9913 18.7002 32.9913 18.7002C32.9913 18.7002 32.8195 17.3094 32.3042 16.3897C31.7888 15.4698 31.2091 14.8922 31.2091 14.8922C31.2091 14.8922 32.0037 14.9778 32.7551 14.8707C33.5066 14.7637 34.065 14.6781 34.5588 14.3572C35.0523 14.0363 35.632 13.3517 35.632 13.3517Z" fill="#FFAE00"/>
<path fill-rule="evenodd" clip-rule="evenodd" d="M25.3669 16.2501C25.3686 16.2449 25.5355 15.7255 25.7535 15.4758C25.9703 15.227 26.4213 15.0312 26.4258 15.0292C26.4536 15.0149 26.4753 14.99 26.4863 14.9595C26.4974 14.9291 26.497 14.8954 26.4853 14.8652C26.4735 14.835 26.4513 14.8107 26.4231 14.7971C26.3949 14.7835 26.3628 14.7817 26.3334 14.7921C26.3127 14.8009 25.8277 15.0113 25.5735 15.3026C25.32 15.5928 25.1428 16.1455 25.1353 16.169C25.125 16.2012 25.1274 16.2364 25.1419 16.2668C25.1564 16.2973 25.1817 16.3204 25.2125 16.3312C25.2432 16.3419 25.2767 16.3394 25.3057 16.3243C25.3346 16.3091 25.3567 16.2824 25.3669 16.2501ZM24.7809 14.9023C25.1612 14.8785 25.6175 14.7203 25.6368 14.7135C25.652 14.7082 25.6661 14.6998 25.6782 14.6887C25.6903 14.6777 25.7002 14.6643 25.7074 14.6492C25.7145 14.6341 25.7188 14.6177 25.7199 14.6009C25.7211 14.5841 25.719 14.5673 25.714 14.5513C25.7089 14.5353 25.7009 14.5206 25.6904 14.5078C25.6799 14.4951 25.6671 14.4847 25.6527 14.4772C25.6384 14.4697 25.6228 14.4652 25.6068 14.464C25.5908 14.4628 25.5747 14.4649 25.5595 14.4703C25.555 14.4717 25.1144 14.6247 24.7666 14.6464C24.4278 14.6672 23.9738 14.496 23.9693 14.4943C23.9389 14.4827 23.9053 14.4842 23.876 14.4986C23.8466 14.513 23.8239 14.539 23.8129 14.5709C23.8018 14.6029 23.8033 14.6381 23.817 14.6689C23.8306 14.6997 23.8554 14.7236 23.8858 14.7352C23.9065 14.7428 24.3913 14.9263 24.7809 14.9023ZM20.917 17.4184C20.9209 17.4081 21.3074 16.3788 21.8324 15.6734C22.3448 14.9843 23.05 14.7153 23.057 14.7126C23.0721 14.707 23.086 14.6983 23.0979 14.6871C23.1098 14.6758 23.1195 14.6622 23.1264 14.647C23.1334 14.6318 23.1373 14.6153 23.1382 14.5985C23.139 14.5817 23.1367 14.5648 23.1314 14.5489C23.126 14.5331 23.1177 14.5185 23.107 14.5059C23.0963 14.4934 23.0833 14.4832 23.0688 14.476C23.0543 14.4687 23.0387 14.4646 23.0226 14.4637C23.0066 14.4628 22.9906 14.4652 22.9755 14.4708C22.9439 14.4826 22.1977 14.7654 21.6398 15.5154C21.0928 16.2507 20.7054 17.2812 20.6892 17.3249C20.6834 17.3406 20.6806 17.3573 20.6809 17.3742C20.6812 17.391 20.6847 17.4077 20.6911 17.4231C20.6976 17.4386 20.7068 17.4525 20.7184 17.4642C20.73 17.4759 20.7436 17.485 20.7586 17.4912C20.7736 17.4973 20.7895 17.5003 20.8056 17.5C20.8216 17.4996 20.8374 17.496 20.8522 17.4892C20.8669 17.4825 20.8802 17.4727 20.8913 17.4606C20.9024 17.4484 20.9111 17.4341 20.917 17.4184ZM18.9107 16.1719C19.4434 15.9855 19.9218 15.6224 19.9419 15.6071C19.968 15.5871 19.9855 15.557 19.9905 15.5234C19.9956 15.4899 19.9878 15.4556 19.9689 15.428C19.9498 15.4006 19.9212 15.3823 19.8893 15.3769C19.8573 15.3716 19.8247 15.3798 19.7984 15.3996C19.7937 15.4031 19.3293 15.7548 18.8334 15.9286C18.3405 16.1013 17.7324 16.0816 17.7262 16.0816C17.7102 16.081 17.6943 16.0838 17.6792 16.0897C17.6642 16.0956 17.6505 16.1045 17.6388 16.116C17.6271 16.1275 17.6176 16.1413 17.611 16.1566C17.6043 16.1719 17.6006 16.1885 17.6001 16.2053C17.5995 16.2221 17.6022 16.2389 17.6078 16.2546C17.6134 16.2704 17.6219 16.2848 17.6329 16.2971C17.6438 16.3094 17.6569 16.3194 17.6715 16.3263C17.6861 16.3333 17.7019 16.3372 17.7179 16.3378C17.7444 16.3386 18.3751 16.3592 18.9107 16.1719ZM29.7315 15.0766C29.732 15.0737 29.7943 14.795 29.8928 14.6086C29.9718 14.4594 30.257 14.2077 30.3603 14.1235C30.383 14.1017 30.397 14.0717 30.3996 14.0395C30.4022 14.0073 30.3931 13.9752 30.3742 13.9497C30.3554 13.9242 30.328 13.9071 30.2977 13.9018C30.2673 13.8964 30.2361 13.9033 30.2104 13.921C30.1683 13.9553 29.7968 14.2628 29.6796 14.484C29.564 14.7024 29.4965 15.006 29.4937 15.0186C29.4864 15.0517 29.4919 15.0865 29.509 15.1154C29.5261 15.1442 29.5534 15.1648 29.585 15.1725C29.6165 15.1802 29.6497 15.1744 29.6771 15.1564C29.7046 15.1385 29.7242 15.1098 29.7315 15.0766Z" fill="#FFAE00"/>
<path d="M75.832 14.704L76.328 16H78.344L73.864 4.48L69.4 16H71.416L71.896 14.704H75.832ZM72.504 13.088L73.864 9.2L75.224 13.088H72.504ZM85.1855 10.416C86.1455 10.176 87.0575 9.424 87.0575 7.952C87.0575 4.72 83.3295 4.8 83.3295 4.8H79.6015V16H83.3295C84.0815 16 87.2175 15.856 87.2175 12.784C87.2175 12.784 87.2975 10.848 85.1855 10.416ZM81.4575 9.472V6.656H83.3295C83.3295 6.656 85.1855 6.576 85.1855 8.08C85.1855 9.472 83.3295 9.472 83.3295 9.472H81.4575ZM83.3295 14.144H81.4575V11.344H83.3295C83.3295 11.344 85.3455 11.232 85.3455 12.736C85.3455 13.952 84.1135 14.144 83.3295 14.144ZM93.0501 12.96C95.3381 12.96 97.2101 11.088 97.2101 8.8C97.2101 6.512 95.3381 4.64 93.0501 4.64C90.7621 4.64 88.8901 6.512 88.8901 8.8C88.8901 11.088 90.7621 12.96 93.0501 12.96ZM93.0501 6.496C94.3301 6.496 95.3541 7.52 95.3541 8.8C95.3541 10.08 94.3301 11.104 93.0501 11.104C91.7701 11.104 90.7461 10.08 90.7461 8.8C90.7461 7.52 91.7701 6.496 93.0501 6.496ZM96.6981 16V14.144H89.3061V16H96.6981ZM105.317 16H107.509L104.469 11.136C105.557 10.832 106.933 10.048 106.933 8.064C106.933 4.8 103.189 4.8 103.189 4.8H99.4613V6.672L101.237 9.472H99.4613V16H101.333V11.328H102.405L105.317 16ZM103.429 9.456L101.685 6.672H103.189C103.189 6.672 105.061 6.672 105.061 8.064C105.061 9.168 103.925 9.408 103.429 9.456ZM111.69 6.512H112.938V4.8H108.57V6.512H109.818V14.288H108.506V16H113.002V14.288H111.69V6.512ZM124.772 9.632H121.028V11.408H122.9V13.024C122.212 13.808 121.22 14.288 120.1 14.288C118.036 14.288 116.372 13.136 116.372 10.4C116.372 7.952 118.036 6.512 120.1 6.512C121.124 6.512 122.068 6.928 122.74 7.6L124.052 6.288C123.044 5.264 121.652 4.64 120.1 4.64C117.012 4.64 114.5 7.072 114.5 10.4C114.5 14.064 116.852 16.16 119.86 16.16C121.188 16.16 122.132 15.84 123.044 14.992L123.14 16.048H124.772V9.632ZM129.083 6.672H134.683V4.8H127.211V16H134.683V14.128H129.083V11.328H133.739V9.472H129.083V6.672ZM145.945 16V4.8H144.089V12.768L138.505 4.8H136.617V16H138.489V8.032L144.057 16H145.945Z" fill="#FFAE00"/>
</svg>
